{
.appVersion = "3306";
.formatVersion = 3;
axes = (
{
name = Weight;
tag = wght;
}
);
customParameters = (
{
name = fsType;
value = (
);
},
{
name = panose;
value = (
2,
11,
0,
9,
4,
0,
0,
2,
0,
4
);
}
);
date = "2025-07-25 06:50:54 +0000";
familyName = Caesium;
features = (
{
code = "sub [zero one two three four five six seven eight nine] x' by x.digit;
sub zero b' [zero one] by b.digit;";
tag = calt;
},
{
code = "#ifdef VARIABLE
condition 480 < wght;
sub dollar by dollar.alt;
#endif";
tag = rvrn;
}
);
fontMaster = (
{
axesValues = (
400
);
customParameters = (
{
name = underlineThickness;
value = 62;
},
{
name = underlinePosition;
value = -81;
},
{
name = typoAscender;
value = 930;
},
{
name = typoDescender;
value = -320;
},
{
name = typoLineGap;
value = 0;
},
{
name = hheaAscender;
value = 930;
},
{
name = hheaDescender;
value = -320;
},
{
name = hheaLineGap;
value = 0;
}
);
id = "8BE779D0-3CB0-4E3D-A7BD-4D55C0B0047B";
metricValues = (
{
pos = 805;
},
{
pos = 693;
},
{
pos = 518;
},
{
},
{
pos = -195;
},
{
}
);
name = _Regular;
},
{
axesValues = (
150
);
customParameters = (
{
name = underlineThickness;
value = 33;
},
{
name = underlinePosition;
value = -81;
},
{
name = typoAscender;
value = 930;
},
{
name = typoDescender;
value = -320;
},
{
name = typoLineGap;
value = 0;
},
{
name = hheaAscender;
value = 930;
},
{
name = hheaDescender;
value = -320;
},
{
name = hheaLineGap;
value = 0;
}
);
iconName = Light;
id = "C0AB487F-B285-4883-B6B5-039B935D5538";
metricValues = (
{
pos = 805;
},
{
pos = 693;
},
{
pos = 518;
},
{
},
{
pos = -195;
},
{
}
);
name = Thin;
visible = 1;
},
{
axesValues = (
456
);
customParameters = (
{
name = underlineThickness;
value = 68;
},
{
name = underlinePosition;
value = -81;
},
{
name = typoAscender;
value = 930;
},
{
name = typoDescender;
value = -320;
},
{
name = typoLineGap;
value = 0;
},
{
name = hheaAscender;
value = 930;
},
{
name = hheaDescender;
value = -320;
},
{
name = hheaLineGap;
value = 0;
}
);

glyphs = (
{
glyphname = A;
layers = (
{
anchors = (
{
name = top;
pos = (301,693);
}
);
layerId = "1B7E510F-672B-4CC4-A590-B1F79D1107BB";
shapes = (
{
closed = 1;
nodes = (
(9,0,l),
(148,0,l),
(293,524,l),
(302,524,l),
(429,0,l),
(568,0,l),
(380,693,l),
(221,693,l)
);
},
{
closed = 1;
nodes = (
(113,131,l),
(464,131,l),
(466,250,l),
(115,250,l)
);
}
);
width = 586;
},
{
anchors = (
{
name = top;
pos = (301,693);
}
);
layerId = "F9DFE8EC-1309-4B06-A6CE-E9C97F6115FD";
shapes = (
{
closed = 1;
nodes = (
(17,0,l),
(120,0,l),
(295,609,l),
(304,609,l),
(457,0,l),
(559,0,l),
(371,693,l),
(230,693,l)
);
},
{
closed = 1;
nodes = (
(113,169,l),
(465,169,l),
(466,262,l),
(115,262,l)
);
}
);
width = 586;
},
{
anchors = (
{
name = top;
pos = (303,693);
}
);
layerId = "C0AB487F-B285-4883-B6B5-039B935D5538";
shapes = (
{
closed = 1;
nodes = (
(29,0,l),
(78,0,l),
(297,651,l),
(302,651,l),
(499,0,l),
(548,0,l),
(334,693,l),
(267,693,l)
);
},
{
closed = 1;
nodes = (
(114,193,l),
(465,193,l),
(466,237,l),
(114,237,l)
);
}
);
width = 586;
},
{
anchors = (
{
name = top;
pos = (301.366,693);
}
);
layerId = "8BE779D0-3CB0-4E3D-A7BD-4D55C0B0047B";
shapes = (
{
closed = 1;
nodes = (
(19.196,0,l),
(112.314,0,l),
(295.366,616.686,l),
(303.634,616.686,l),
(464.686,0,l),
(556.987,0,l),
(364.229,693,l),
(236.771,693,l)
);
},
{
closed = 1;
nodes = (
(113.183,173.392,l),
(465,173.392,l),
(466,257.425,l),
(114.817,257.425,l)
);
}
);
width = 586;
}
);
unicode = 65;
},
{
glyphname = AE;
layers = (
{
anchors = (
{
name = bottom;
pos = (313,0);
},
{
name = ogonek;
pos = (515,5);
},
{
name = top;
pos = (313,693);
}
);
layerId = "1B7E510F-672B-4CC4-A590-B1F79D1107BB";
shapes = (
{
closed = 1;
nodes = (
(14,0,l),
(143,0,l),
(260,579,l),
(354,579,l),
(354,693,l),
(175,693,l)
);
},
{
closed = 1;
nodes = (
(113,110,l),
(347,110,l),
(347,227,l),
(113,227,l)
);
},
{
closed = 1;
nodes = (
(281,0,l),
(545,0,l),
(545,118,l),
(281,118,l)
);
},
{
closed = 1;
nodes = (
(281,0,l),
(397,0,l),
(397,693,l),
(281,693,l)
);
},
{
closed = 1;
nodes = (
(281,288,l),
(516,288,l),
(516,406,l),
(281,406,l)
);
},
{
closed = 1;
nodes = (
(281,575,l),
(545,575,l),
(545,693,l),
(281,693,l)
);
}
);
width = 586;
},
{
anchors = (
{
name = bottom;
pos = (313,0);
},
{
name = ogonek;
pos = (515,5);
},
{
name = top;
pos = (313,693);
}
);
layerId = "F9DFE8EC-1309-4B06-A6CE-E9C97F6115FD";
shapes = (
{
closed = 1;
nodes = (
(21,0,l),
(113,0,l),
(280,609,l),
(345,609,l),
(345,693,l),
(211,693,l)
);
},
{
closed = 1;
nodes = (
(113,147,l),
(343,147,l),
(343,233,l),
(113,233,l)
);
},
{
closed = 1;
nodes = (
(288,0,l),
(537,0,l),
(537,93,l),
(288,93,l)
);
},
{
closed = 1;
nodes = (
(288,0,l),
(381,0,l),
(381,693,l),
(288,693,l)
);
},
{
closed = 1;
nodes = (
(293,301,l),
(508,301,l),
(508,394,l),
(293,394,l)
);
},
{
closed = 1;
nodes = (
(288,601,l),
(537,601,l),
(537,693,l),
(288,693,l)
);
}
);
width = 586;
},
{
anchors = (
{
name = bottom;
pos = (313,0);
},
{
name = ogonek;
pos = (515,5);
},
{
name = top;
pos = (313,693);
}
);
layerId = "C0AB487F-B285-4883-B6B5-039B935D5538";
shapes = (
{
closed = 1;
nodes = (
(33,0,l),
(75,0,l),
(303,649,l),
(339,649,l),
(339,693,l),
(276,693,l)
);
},
{
closed = 1;
nodes = (
(113,168,l),
(342,168,l),
(342,212,l),
(113,212,l)
);
},
{
closed = 1;
nodes = (
(312,0,l),
(524,0,l),
(524,44,l),
(312,44,l)
);
},
{
closed = 1;
nodes = (
(312,0,l),
(357,0,l),
(357,693,l),
(312,693,l)
);
},
{
closed = 1;
nodes = (
(312,325,l),
(495,325,l),
(495,369,l),
(312,369,l)
);
},
{
closed = 1;
nodes = (
(312,649,l),
(524,649,l),
(524,693,l),
(312,693,l)
);
}
);
width = 586;
},
{
anchors = (
{
name = bottom;
pos = (313,0);
},
{
name = ogonek;
pos = (515,5);
},
{
name = top;
pos = (313,693);
}
);
layerId = "8BE779D0-3CB0-4E3D-A7BD-4D55C0B0047B";
shapes = (
{
closed = 1;
nodes = (
(23.196,0,l),
(106.046,0,l),
(284.209,616.32,l),
(343.902,616.32,l),
(343.902,693,l),
(222.895,693,l)
);
},
{
closed = 1;
nodes = (
(113,150.843,l),
(342.817,150.843,l),
(342.817,229.157,l),
(113,229.157,l)
);
},
{
closed = 1;
nodes = (
(292.392,0,l),
(534.621,0,l),
(534.621,84.033,l),
(292.392,84.033,l)
);
},
{
closed = 1;
nodes = (
(292.392,0,l),
(376.608,0,l),
(376.608,693,l),
(292.392,693,l)
);
},
{
closed = 1;
nodes = (
(296.477,305.392,l),
(505.621,305.392,l),
(505.621,389.425,l),
(296.477,389.425,l)
);
},
{
closed = 1;
nodes = (
(292.392,609.784,l),
(534.621,609.784,l),
(534.621,693,l),
(292.392,693,l)
);
}
);
width = 586;
}
);
unicode = 198;
},
{
glyphname = B;
layers = (
{
anchors = (
{
name = bottom;
pos = (269,0);
},
{
name = top;
pos = (281,693);
}
);
layerId = "1B7E510F-672B-4CC4-A590-B1F79D1107BB";
shapes = (
{
closed = 1;
nodes = (
(177,0,l),
(329,0,ls),
(455,0,o),
(551,59,o),
(551,195,cs),
(551,299,o),
(483,358,o),
(365,358,cs),
(174,358,l),
(185,307,l),
(299,307,ls),
(373,307,o),
(416,273,o),
(416,215,cs),
(416,147,o),
(366,119,o),
(303,119,cs),
(179,119,l)
);
},
{
closed = 1;
nodes = (
(65,0,l),
(194,0,l),
(206,693,l),
(77,693,l)
);
},
{
closed = 1;
nodes = (
(160,341,l),
(353,341,l),
(353,389,l),
(161,389,l)
);
},
{
closed = 1;
nodes = (
(184,374,l),
(347,374,ls),
(446,374,o),
(528,416,o),
(528,525,cs),
(528,633,o),
(446,693,o),
(302,693,cs),
(190,693,l),
(199,575,l),
(295,575,ls),
(360,575,o),
(392,552,o),
(392,506,cs),
(391,453,o),
(360,426,o),
(299,426,cs),
(185,426,l)
);
}
);
width = 586;
},
{
anchors = (
{
name = bottom;
pos = (269,0);
},
{
name = top;
pos = (281,693);
}
);
layerId = "F9DFE8EC-1309-4B06-A6CE-E9C97F6115FD";
shapes = (
{
closed = 1;
nodes = (
(158,0,l),
(329,0,ls),
(454,0,o),
(543,62,o),
(543,194,cs),
(543,302,o),
(464,364,o),
(325,364,cs),
(155,364,l),
(166,320,l),
(300,320,ls),
(390,320,o),
(440,279,o),
(440,208,cs),
(440,126,o),
(378,93,o),
(303,93,cs),
(160,93,l)
);
},
{
closed = 1;
nodes = (
(74,0,l),
(175,0,l),
(187,693,l),
(86,693,l)
);
},
{
closed = 1;
nodes = (
(141,341,l),
(340,341,l),
(341,389,l),
(142,389,l)
);
},
{
closed = 1;
nodes = (
(165,368,l),
(307,368,ls),
(408,368,o),
(519,401,o),
(519,522,cs),
(519,632,o),
(441,693,o),
(302,693,cs),
(161,693,l),
(171,601,l),
(295,601,ls),
(373,601,o),
(417,568,o),
(417,510,cs),
(417,439,o),
(363,413,o),
(299,413,cs),
(166,413,l)
);
}
);
width = 586;
},
{
anchors = (
{
name = bottom;
pos = (269,0);
},
{
name = top;
pos = (281,693);
}
);
layerId = "C0AB487F-B285-4883-B6B5-039B935D5538";
shapes = (
{
closed = 1;
nodes = (
(114,0,l),
(310,0,ls),
(434,0,o),
(531,56,o),
(531,190,cs),
(531,302,o),
(458,366,o),
(330,366,cs),
(111,366,l),
(122,344,l),
(320,344,ls),
(424,344,o),
(484,288,o),
(484,190,cs),
(484,86,o),
(406,44,o),
(311,44,cs),
(115,44,l)
);
},
{
closed = 1;
nodes = (
(85,0,l),
(131,0,l),
(143,693,l),
(97,693,l)
);
},
{
closed = 1;
nodes = (
(127,358,l),
(345,358,l),
(346,376,l),
(127,376,l)
);
},
{
closed = 1;
nodes = (
(121,370,l),
(341,370,ls),
(442,370,o),
(508,422,o),
(508,526,cs),
(508,632,o),
(433,693,o),
(302,693,cs),
(117,693,l),
(128,649,l),
(306,649,ls),
(404,649,o),
(461,604,o),
(461,525,cs),
(461,427,o),
(387,388,o),
(298,388,cs),
(121,388,l)
);
}
);
width = 586;
},
{
anchors = (
{
name = bottom;
pos = (269,0);
},
{
name = top;
pos = (281,693);
}
);
layerId = "8BE779D0-3CB0-4E3D-A7BD-4D55C0B0047B";
shapes = (
{
closed = 1;
nodes = (
(149.948,0,l),
(325.523,0,ls),
(450.34,0,o),
(540.804,60.902,o),
(540.804,193.268,cs),
(540.804,302,o),
(462.902,364.366,o),
(325.915,364.366,cs),
(146.948,364.366,l),
(157.948,324.392,l),
(303.66,324.392,ls),
(396.222,324.392,o),
(448.052,280.647,o),
(448.052,204.706,cs),
(448.052,118.68,o),
(383.124,84.033,o),
(304.464,84.033,cs),
(151.765,84.033,l)
);
},
{
closed = 1;
nodes = (
(76.013,0,l),
(166.948,0,l),
(178.948,693,l),
(88.013,693,l)
);
},
{
closed = 1;
nodes = (
(138.438,344.111,l),
(340.915,344.111,l),
(341.915,386.621,l),
(139.255,386.621,l)
);
},
{
closed = 1;
nodes = (
(156.948,368.366,l),
(313.222,368.366,ls),
(414.222,368.366,o),
(516.987,404.843,o),
(516.987,522.732,cs),
(516.987,632,o),
(439.536,693,o),
(302,693,cs),
(152.948,693,l),
(163.131,609.784,l),
(297.013,609.784,ls),
(378.673,609.784,o),
(425.052,574.588,o),
(425.052,512.745,cs),
(425.052,436.804,o),
(367.392,408.425,o),
(298.817,408.425,cs),
(157.765,408.425,l)
);
}
);
width = 586;
}
);
unicode = 66;
},
{
glyphname = C;
layers = (
{
anchors = (
{
name = bottom;
pos = (339,0);
}
);
layerId = "1B7E510F-672B-4CC4-A590-B1F79D1107BB";
shapes = (
{
closed = 1;
nodes = (
(433,-10,o),
(492,1,o),
(550,23,c),
(529,143,l),
(483,123,o),
(437,113,o),
(389,113,cs),
(251,113,o),
(181,189,o),
(181,343,cs),
(181,464,o),
(233,580,o),
(370,580,cs),
(423,580,o),
(470,559,o),
(499,523,c),
(572,618,l),
(536,673,o),
(463,703,o),
(371,703,cs),
(144,703,o),
(45,546,o),
(45,335,cs),
(45,105,o),
(155,-10,o),
(371,-10,cs)
);
}
);
width = 586;
},
{
anchors = (
{
name = bottom;
pos = (339,0);
}
);
layerId = "F9DFE8EC-1309-4B06-A6CE-E9C97F6115FD";
shapes = (
{
closed = 1;
nodes = (
(433,-10,o),
(492,1,o),
(550,23,c),
(529,109,l),
(483,89,o),
(437,80,o),
(389,80,cs),
(236,80,o),
(158,167,o),
(158,342,cs),
(158,478,o),
(215,613,o),
(371,613,cs),
(424,613,o),
(470,588,o),
(499,544,c),
(572,616,l),
(540,672,o),
(467,703,o),
(371,703,cs),
(146,703,o),
(53,541,o),
(53,334,cs),
(53,105,o),
(160,-10,o),
(371,-10,cs)
);
}
);
width = 586;
},
{
anchors = (
{
name = bottom;
pos = (339,0);
}
);
layerId = "C0AB487F-B285-4883-B6B5-039B935D5538";
shapes = (
{
closed = 1;
nodes = (
(429,-10,o),
(490,3,o),
(549,28,c),
(537,71,l),
(482,46,o),
(429,34,o),
(373,34,cs),
(196,34,o),
(107,136,o),
(107,340,cs),
(107,506,o),
(181,659,o),
(367,659,cs),
(431,659,o),
(488,631,o),
(523,583,c),
(556,616,l),
(526,672,o),
(456,703,o),
(366,703,cs),
(144,703,o),
(60,534,o),
(60,334,cs),
(60,105,o),
(163,-10,o),
(366,-10,cs)
);
}
);
width = 586;
},
{
anchors = (
{
name = bottom;
pos = (339,0);
}
);
layerId = "8BE779D0-3CB0-4E3D-A7BD-4D55C0B0047B";
shapes = (
{
closed = 1;
nodes = (
(432.268,-10,o),
(491.634,1.366,o),
(549.817,23.915,c),
(530.464,102.046,l),
(482.817,81.131,o),
(435.536,71.582,o),
(386.072,71.582,cs),
(228.68,71.582,o),
(148.667,161.327,o),
(148.667,341.634,cs),
(148.667,483.124,o),
(208.778,621.418,o),
(370.268,621.418,cs),
(425.281,621.418,o),
(473.294,595.869,o),
(503.392,551.137,c),
(569.072,616,l),
(537.438,672,o),
(464.987,703,o),
(370.085,703,cs),
(145.634,703,o),
(54.281,539.719,o),
(54.281,334,cs),
(54.281,105,o),
(160.549,-10,o),
(370.085,-10,cs)
);
}
);
width = 586;
}
);
unicode = 67;
},
{
glyphname = D;
layers = (
{
layerId = "1B7E510F-672B-4CC4-A590-B1F79D1107BB";
shapes = (
{
closed = 1;
nodes = (
(188,0,l),
(242,0,ls),
(473,0,o),
(573,126,o),
(573,350,cs),
(573,580,o),
(467,693,o),
(254,693,cs),
(190,693,l),
(200,570,l),
(252,570,ls),
(376,570,o),
(438,493,o),
(438,346,cs),
(438,215,o),
(386,123,o),
(244,123,cs),
(190,123,l)
);
},
{
closed = 1;
nodes = (
(66,0,l),
(194,0,l),
(207,693,l),
(78,693,l)
);
}
);
width = 586;
},
{
layerId = "F9DFE8EC-1309-4B06-A6CE-E9C97F6115FD";
shapes = (
{
closed = 1;
nodes = (
(169,0,l),
(242,0,ls),
(472,0,o),
(565,132,o),
(565,351,cs),
(565,580,o),
(462,693,o),
(254,693,cs),
(171,693,l),
(181,601,l),
(252,601,ls),
(392,601,o),
(463,517,o),
(463,348,cs),
(463,199,o),
(406,93,o),
(243,93,cs),
(170,93,l)
);
},
{
closed = 1;
nodes = (
(74,0,l),
(175,0,l),
(188,693,l),
(86,693,l)
);
}
);
width = 586;
},
{
layerId = "C0AB487F-B285-4883-B6B5-039B935D5538";
shapes = (
{
closed = 1;
nodes = (
(120,0,l),
(237,0,ls),
(465,0,o),
(549,138,o),
(549,351,cs),
(549,580,o),
(449,693,o),
(249,693,cs),
(122,693,l),
(133,649,l),
(248,649,ls),
(417,649,o),
(502,550,o),
(502,350,cs),
(502,170,o),
(434,44,o),
(238,44,cs),
(120,44,l)
);
},
{
closed = 1;
nodes = (
(81,0,l),
(127,0,l),
(139,693,l),
(93,693,l)
);
}
);
width = 586;
},
{
layerId = "8BE779D0-3CB0-4E3D-A7BD-4D55C0B0047B";
shapes = (
{
closed = 1;
nodes = (
(160.033,0,l),
(241.085,0,ls),
(470.719,0,o),
(562.072,133.098,o),
(562.072,351,cs),
(562.072,580,o),
(459.621,693,o),
(253.085,693,cs),
(162.033,693,l),
(172.216,609.784,l),
(251.268,609.784,ls),
(396.575,609.784,o),
(470.137,523.039,o),
(470.137,348.366,cs),
(470.137,193.693,o),
(411.124,84.033,o),
(242.085,84.033,cs),
(160.85,84.033,l)
);
},
{
closed = 1;
nodes = (
(75.281,0,l),
(166.216,0,l),
(179.033,693,l),
(87.281,693,l)
);
}
);
width = 586;
}
);
unicode = 68;
},
{
glyphname = Eth;
layers = (
{
layerId = "1B7E510F-672B-4CC4-A590-B1F79D1107BB";
shapes = (
{
closed = 1;
nodes = (
(6,286,l),
(318,286,l),
(318,405,l),
(6,405,l)
);
},
{
ref = D;
}
);
width = 586;
},
{
layerId = "F9DFE8EC-1309-4B06-A6CE-E9C97F6115FD";
shapes = (
{
closed = 1;
nodes = (
(6,299,l),
(318,299,l),
(318,392,l),
(6,392,l)
);
},
{
ref = D;
}
);
width = 586;
},
{
layerId = "C0AB487F-B285-4883-B6B5-039B935D5538";
shapes = (
{
closed = 1;
nodes = (
(6,323,l),
(318,323,l),
(318,367,l),
(6,367,l)
);
},
{
ref = D;
}
);
width = 586;
},
{
layerId = "8BE779D0-3CB0-4E3D-A7BD-4D55C0B0047B";
shapes = (
{
closed = 1;
nodes = (
(6,303.392,l),
(318,303.392,l),
(318,387.425,l),
(6,387.425,l)
);
},
{
alignment = -1;
ref = D;
}
);
width = 586;
}
);
unicode = 208;
},
{
glyphname = E;
layers = (
{
anchors = (
{
name = top;
pos = (325,693);
}
);
layerId = "1B7E510F-672B-4CC4-A590-B1F79D1107BB";
shapes = (
{
closed = 1;
nodes = (
(95,0,l),
(224,0,l),
(236,693,l),
(107,693,l)
);
},
{
closed = 1;
nodes = (
(125,0,l),
(532,0,l),
(532,119,l),
(127,119,l)
);
},
{
closed = 1;
nodes = (
(130,288,l),
(489,288,l),
(489,407,l),
(132,407,l)
);
},
{
closed = 1;
nodes = (
(135,575,l),
(542,575,l),
(542,693,l),
(137,693,l)
);
}
);
width = 586;
},
{
anchors = (
{
name = top;
pos = (325,693);
}
);
layerId = "F9DFE8EC-1309-4B06-A6CE-E9C97F6115FD";
shapes = (
{
closed = 1;
nodes = (
(104,0,l),
(205,0,l),
(217,693,l),
(116,693,l)
);
},
{
closed = 1;
nodes = (
(134,0,l),
(523,0,l),
(523,93,l),
(135,93,l)
);
},
{
closed = 1;
nodes = (
(139,301,l),
(481,301,l),
(481,394,l),
(140,394,l)
);
},
{
closed = 1;
nodes = (
(144,601,l),
(534,601,l),
(534,693,l),
(146,693,l)
);
}
);
width = 586;
},
{
anchors = (
{
name = top;
pos = (325,693);
}
);
layerId = "C0AB487F-B285-4883-B6B5-039B935D5538";
shapes = (
{
closed = 1;
nodes = (
(115,0,l),
(161,0,l),
(173,693,l),
(127,693,l)
);
},
{
closed = 1;
nodes = (
(145,0,l),
(511,0,l),
(511,44,l),
(146,44,l)
);
},
{
closed = 1;
nodes = (
(151,325,l),
(469,325,l),
(469,369,l),
(152,369,l)
);
},
{
closed = 1;
nodes = (
(157,649,l),
(523,649,l),
(523,693,l),
(157,693,l)
);
}
);
width = 586;
},
{
anchors = (
{
name = top;
pos = (325,693);
}
);
layerId = "8BE779D0-3CB0-4E3D-A7BD-4D55C0B0047B";
shapes = (
{
closed = 1;
nodes = (
(106.013,0,l),
(196.948,0,l),
(208.948,693,l),
(118.013,693,l)
);
},
{
closed = 1;
nodes = (
(136.013,0,l),
(520.804,0,l),
(520.804,84.033,l),
(137.013,84.033,l)
);
},
{
closed = 1;
nodes = (
(141.196,305.392,l),
(478.804,305.392,l),
(478.804,389.425,l),
(142.196,389.425,l)
);
},
{
closed = 1;
nodes = (
(146.379,609.784,l),
(531.987,609.784,l),
(531.987,693,l),
(148.013,693,l)
);
}
);
width = 586;
}
);
unicode = 69;
},
{
glyphname = Eopen;
layers = (
{
layerId = "1B7E510F-672B-4CC4-A590-B1F79D1107BB";
shapes = (
{
closed = 1;
nodes = (
(157,703,o),
(82,635,o),
(82,534,cs),
(82,451,o),
(132,390,o),
(258,373,c),
(250,400,l),
(250,343,l),
(258,369,l),
(152,367,o),
(54,307,o),
(54,192,cs),
(54,70,o),
(160,-10,o),
(329,-10,cs),
(430,-10,o),
(480,-2,o),
(545,23,c),
(523,142,l),
(449,119,o),
(410,113,o),
(327,113,cs),
(241,113,o),
(189,147,o),
(189,203,cs),
(189,267,o),
(244,303,o),
(325,303,cs),
(398,303,l),
(409,426,l),
(270,430,o),
(215,458,o),
(215,517,cs),
(215,553,o),
(250,581,o),
(337,581,cs),
(398,581,o),
(448,562,o),
(477,527,c),
(558,620,l),
(514,669,o),
(443,703,o),
(337,703,cs)
);
}
);
width = 586;
},
{
layerId = "F9DFE8EC-1309-4B06-A6CE-E9C97F6115FD";
shapes = (
{
closed = 1;
nodes = (
(163,703,o),
(90,635,o),
(90,534,cs),
(90,451,o),
(141,390,o),
(267,373,c),
(258,400,l),
(258,343,l),
(267,369,l),
(160,367,o),
(63,307,o),
(63,192,cs),
(63,70,o),
(165,-10,o),
(329,-10,cs),
(426,-10,o),
(475,-2,o),
(537,23,c),
(515,108,l),
(444,86,o),
(406,80,o),
(327,80,cs),
(225,80,o),
(164,126,o),
(164,203,cs),
(164,277,o),
(229,318,o),
(325,318,cs),
(398,318,l),
(409,410,l),
(251,415,o),
(189,447,o),
(189,517,cs),
(189,571,o),
(232,613,o),
(337,613,cs),
(398,613,o),
(448,589,o),
(477,544,c),
(549,616,l),
(515,671,o),
(443,703,o),
(337,703,cs)
);
}
);
width = 586;
},
{
layerId = "C0AB487F-B285-4883-B6B5-039B935D5538";
shapes = (
{
closed = 1;
nodes = (
(187,703,o),
(102,640,o),
(102,534,cs),
(102,449,o),
(149,383,o),
(267,370,c),
(258,400,l),
(258,343,l),
(267,367,l),
(167,365,o),
(74,298,o),
(74,173,cs),
(74,58,o),
(169,-10,o),
(329,-10,cs),
(420,-10,o),
(466,-2,o),
(525,23,c),
(514,67,l),
(443,41,o),
(406,34,o),
(327,34,cs),
(197,34,o),
(121,88,o),
(121,178,cs),
(121,284,o),
(203,343,o),
(325,343,cs),
(398,343,l),
(409,386,l),
(222,392,o),
(148,435,o),
(148,526,cs),
(148,610,o),
(217,659,o),
(333,659,cs),
(405,659,o),
(470,630,o),
(510,593,c),
(540,628,l),
(501,671,o),
(426,703,o),
(332,703,cs)
);
}
);
width = 586;
},
{
layerId = "8BE779D0-3CB0-4E3D-A7BD-4D55C0B0047B";
shapes = (
{
closed = 1;
nodes = (
(167.392,703,o),
(92.196,635.915,o),
(92.196,534,cs),
(92.196,450.634,o),
(142.464,388.719,o),
(267,372.451,c),
(258,400,l),
(258,343,l),
(267,368.634,l),
(161.281,366.634,o),
(65.013,305.353,o),
(65.013,188.523,cs),
(65.013,67.804,o),
(165.732,-10,o),
(329,-10,cs),
(424.902,-10,o),
(473.353,-2,o),
(534.804,23,c),
(514.817,100.497,l),
(443.817,77.765,o),
(406,71.582,o),
(327,71.582,cs),
(219.876,71.582,o),
(156.131,119.046,o),
(156.131,198.425,cs),
(156.131,278.281,o),
(224.242,322.575,o),
(325,322.575,cs),
(398,322.575,l),
(409,405.608,l),
(245.693,410.791,o),
(181.497,444.804,o),
(181.497,518.647,cs),
(181.497,578.137,o),
(229.255,621.418,o),
(336.268,621.418,cs),
(399.281,621.418,o),
(452.026,596.503,o),
(483.039,552.967,c),
(547.353,618.196,l),
(512.438,671,o),
(439.889,703,o),
(336.085,703,cs)
);
}
);
width = 586;
}
);
unicode = 400;
},
{
glyphname = Schwa;
layers = (
{
layerId = "1B7E510F-672B-4CC4-A590-B1F79D1107BB";
shapes = (
{
closed = 1;
nodes = (
(461,-10,o),
(557,118,o),
(557,364,cs),
(557,586,o),
(457,703,o),
(257,703,cs),
(196,703,o),
(139,696,o),
(85,681,c),
(95,562,l),
(143,574,o),
(197,581,o),
(252,581,cs),
(366,581,o),
(422,503,o),
(422,358,cs),
(422,201,o),
(371,113,o),
(285,113,cs),
(204,113,o),
(163,178,o),
(163,308,cs),
(163,333,o),
(164,361,o),
(167,395,c),
(33,403,l),
(29,370,o),
(28,337,o),
(28,303,cs),
(28,94,o),
(112,-10,o),
(281,-10,cs)
);
},
{
closed = 1;
nodes = (
(59,284,l),
(496,284,l),
(496,403,l),
(33,403,l)
);
}
);
width = 586;
},
{
layerId = "F9DFE8EC-1309-4B06-A6CE-E9C97F6115FD";
shapes = (
{
closed = 1;
nodes = (
(455,-10,o),
(549,119,o),
(549,365,cs),
(549,587,o),
(451,703,o),
(257,703,cs),
(200,703,o),
(145,696,o),
(94,681,c),
(104,594,l),
(150,607,o),
(201,613,o),
(253,613,cs),
(382,613,o),
(447,526,o),
(447,361,cs),
(447,180,o),
(387,80,o),
(284,80,cs),
(187,80,o),
(139,155,o),
(139,305,cs),
(139,331,o),
(140,356,o),
(142,382,c),
(41,390,l),
(38,364,o),
(36,335,o),
(36,302,cs),
(36,94,o),
(117,-10,o),
(281,-10,cs)
);
},
{
closed = 1;
nodes = (
(67,297,l),
(497,297,l),
(497,390,l),
(41,390,l)
);
}
);
width = 586;
},
{
layerId = "C0AB487F-B285-4883-B6B5-039B935D5538";
shapes = (
{
closed = 1;
nodes = (
(446,-10,o),
(536,115,o),
(536,361,cs),
(536,582,o),
(443,703,o),
(257,703,cs),
(204,703,o),
(154,696,o),
(106,681,c),
(114,638,l),
(158,652,o),
(206,659,o),
(255,659,cs),
(412,659,o),
(490,553,o),
(490,359,cs),
(490,145,o),
(415,34,o),
(282,34,cs),
(157,34,o),
(95,117,o),
(95,283,cs),
(95,307,o),
(96,332,o),
(99,357,c),
(52,365,l),
(49,340,o),
(48,312,o),
(48,281,cs),
(48,87,o),
(125,-10,o),
(281,-10,cs)
);
},
{
closed = 1;
nodes = (
(81,319,l),
(499,319,l),
(499,365,l),
(52,365,l)
);
}
);
width = 586;
},
{
layerId = "8BE779D0-3CB0-4E3D-A7BD-4D55C0B0047B";
shapes = (
{
closed = 1;
nodes = (
(453.353,-10,o),
(546.621,118.268,o),
(546.621,364.268,cs),
(546.621,586.085,o),
(449.536,703,o),
(257,703,cs),
(200.732,703,o),
(146.647,696,o),
(96.196,681,c),
(105.83,602.052,l),
(151.464,615.235,o),
(201.915,621.418,o),
(253.366,621.418,cs),
(387.49,621.418,o),
(454.869,530.941,o),
(454.869,360.634,cs),
(454.869,173.595,o),
(392.124,71.582,o),
(283.634,71.582,cs),
(181.51,71.582,o),
(130.948,148.046,o),
(130.948,300.974,cs),
(130.948,326.608,o),
(131.948,351.608,o),
(134.131,377.425,c),
(43.013,385.425,l),
(40.013,359.608,o),
(38.196,330.791,o),
(38.196,298.157,cs),
(38.196,92.719,o),
(118.464,-10,o),
(281,-10,cs)
);
},
{
closed = 1;
nodes = (
(69.562,301.026,l),
(497.366,301.026,l),
(497.366,385.425,l),
(43.013,385.425,l)
);
}
);
width = 586;
}
);
unicode = 399;
},
{
glyphname = Ezh;
layers = (
{
layerId = "1B7E510F-672B-4CC4-A590-B1F79D1107BB";
shapes = (
{
closed = 1;
nodes = (
(435,-10,o),
(537,73,o),
(537,200,cs),
(537,338,o),
(440,419,o),
(271,422,c),
(323,401,l),
(504,567,l),
(504,693,l),
(71,693,l),
(71,575,l),
(410,575,l),
(370,604,l),
(156,407,l),
(166,306,l),
(231,306,ls),
(340,306,o),
(401,270,o),
(401,206,cs),
(401,148,o),
(354,113,o),
(274,113,cs),
(209,113,o),
(172,131,o),
(119,175,c),
(28,74,l),
(91,18,o),
(170,-10,o),
(271,-10,cs)
);
}
);
width = 586;
},
{
layerId = "F9DFE8EC-1309-4B06-A6CE-E9C97F6115FD";
shapes = (
{
closed = 1;
nodes = (
(430,-10,o),
(528,73,o),
(528,200,cs),
(528,327,o),
(435,401,o),
(271,403,c),
(271,382,l),
(496,595,l),
(496,693,l),
(80,693,l),
(80,603,l),
(410,603,l),
(411,632,l),
(156,389,l),
(166,328,l),
(231,328,ls),
(355,328,o),
(427,281,o),
(427,198,cs),
(427,124,o),
(370,80,o),
(274,80,cs),
(205,80,o),
(164,98,o),
(106,143,c),
(36,74,l),
(97,18,o),
(174,-10,o),
(271,-10,cs)
);
}
);
width = 586;
},
{
layerId = "C0AB487F-B285-4883-B6B5-039B935D5538";
shapes = (
{
closed = 1;
nodes = (
(429,-10,o),
(517,62,o),
(517,188,cs),
(517,318,o),
(416,384,o),
(212,387,c),
(212,367,l),
(484,643,l),
(484,693,l),
(91,693,l),
(91,649,l),
(449,649,l),
(459,679,l),
(158,374,l),
(165,343,l),
(212,343,ls),
(384,343,o),
(470,292,o),
(470,188,cs),
(470,90,o),
(400,34,o),
(279,34,cs),
(197,34,o),
(149,55,o),
(81,106,c),
(48,74,l),
(107,18,o),
(182,-10,o),
(276,-10,cs)
);
}
);
width = 586;
},
{
layerId = "8BE779D0-3CB0-4E3D-A7BD-4D55C0B0047B";
shapes = (
{
closed = 1;
nodes = (
(429.817,-10,o),
(525.987,70.987,o),
(525.987,197.804,cs),
(525.987,325.353,o),
(431.523,397.889,o),
(260.203,400.072,c),
(260.203,379.255,l),
(493.804,603.784,l),
(493.804,693,l),
(82.013,693,l),
(82.013,611.418,l),
(417.137,611.418,l),
(419.784,640.601,l),
(156.366,386.255,l),
(165.817,330.745,l),
(227.523,330.745,ls),
(360.307,330.745,o),
(434.869,283.013,o),
(434.869,196.17,cs),
(434.869,117.778,o),
(375.49,71.582,o),
(274.915,71.582,cs),
(203.536,71.582,o),
(161.255,90.131,o),
(101.425,136.229,c),
(38.196,74,l),
(98.83,18,o),
(175.464,-10,o),
(271.915,-10,cs)
);
}
);
width = 586;
}
);
unicode = 439;
},
{
glyphname = F;
layers = (
{
layerId = "1B7E510F-672B-4CC4-A590-B1F79D1107BB";
shapes = (
{
closed = 1;
nodes = (
(115,0,l),
(244,0,l),
(256,693,l),
(127,693,l)
);
},
{
closed = 1;
nodes = (
(150,258,l),
(500,258,l),
(500,378,l),
(152,378,l)
);
},
{
closed = 1;
nodes = (
(155,575,l),
(562,575,l),
(562,693,l),
(157,693,l)
);
}
);
width = 586;
},
{
layerId = "F9DFE8EC-1309-4B06-A6CE-E9C97F6115FD";
shapes = (
{
closed = 1;
nodes = (
(123,0,l),
(225,0,l),
(237,693,l),
(136,693,l)
);
},
{
closed = 1;
nodes = (
(158,271,l),
(500,271,l),
(500,364,l),
(160,364,l)
);
},
{
closed = 1;
nodes = (
(164,601,l),
(554,601,l),
(554,693,l),
(166,693,l)
);
}
);
width = 586;
},
{
layerId = "C0AB487F-B285-4883-B6B5-039B935D5538";
shapes = (
{
closed = 1;
nodes = (
(135,0,l),
(181,0,l),
(193,693,l),
(147,693,l)
);
},
{
closed = 1;
nodes = (
(170,296,l),
(499,296,l),
(499,340,l),
(171,340,l)
);
},
{
closed = 1;
nodes = (
(176,649,l),
(542,649,l),
(542,693,l),
(177,693,l)
);
}
);
width = 586;
},
{
layerId = "8BE779D0-3CB0-4E3D-A7BD-4D55C0B0047B";
shapes = (
{
closed = 1;
nodes = (
(125.196,0,l),
(216.948,0,l),
(228.948,693,l),
(138.013,693,l)
);
},
{
closed = 1;
nodes = (
(160.196,275.575,l),
(499.817,275.575,l),
(499.817,359.608,l),
(162.013,359.608,l)
);
},
{
closed = 1;
nodes = (
(166.196,609.784,l),
(551.804,609.784,l),
(551.804,693,l),
(168.013,693,l)
);
}
);
width = 586;
}
);
unicode = 70;
},
{
glyphname = Fhook;
layers = (
{
anchors = (
{
name = bottom;
pos = (322,-189);
}
);
layerId = "1B7E510F-672B-4CC4-A590-B1F79D1107BB";
shapes = (
{
closed = 1;
nodes = (
(17,-234,l),
(59,-233,ls),
(184,-229,o),
(242,-173,o),
(244,-47,cs),
(245,90,l),
(117,90,l),
(114,-43,ls),
(113,-91,o),
(93,-115,o),
(47,-116,c),
(17,-117,l)
);
},
{
closed = 1;
nodes = (
(115,0,l),
(244,0,l),
(256,693,l),
(127,693,l)
);
},
{
closed = 1;
nodes = (
(150,258,l),
(500,258,l),
(500,378,l),
(152,378,l)
);
},
{
closed = 1;
nodes = (
(155,575,l),
(562,575,l),
(562,693,l),
(157,693,l)
);
}
);
width = 586;
},
{
anchors = (
{
name = bottom;
pos = (322,-189);
}
);
layerId = "F9DFE8EC-1309-4B06-A6CE-E9C97F6115FD";
shapes = (
{
closed = 1;
nodes = (
(14,-232,l),
(49,-229,ls),
(156,-221,o),
(225,-155,o),
(225,-47,cs),
(226,90,l),
(125,90,l),
(122,-39,ls),
(120,-94,o),
(93,-125,o),
(42,-130,cs),
(10,-134,l)
);
},
{
closed = 1;
nodes = (
(123,0,l),
(225,0,l),
(237,693,l),
(136,693,l)
);
},
{
closed = 1;
nodes = (
(158,271,l),
(500,271,l),
(500,364,l),
(160,364,l)
);
},
{
closed = 1;
nodes = (
(164,601,l),
(554,601,l),
(554,693,l),
(166,693,l)
);
}
);
width = 586;
},
{
anchors = (
{
name = bottom;
pos = (322,-189);
}
);
layerId = "C0AB487F-B285-4883-B6B5-039B935D5538";
shapes = (
{
closed = 1;
nodes = (
(16,-229,l),
(34,-226,ls),
(141,-212,o),
(180,-156,o),
(181,-27,cs),
(182,90,l),
(137,90,l),
(134,-27,ls),
(132,-129,o),
(105,-171,o),
(30,-181,cs),
(12,-184,l)
);
},
{
closed = 1;
nodes = (
(135,0,l),
(181,0,l),
(193,693,l),
(147,693,l)
);
},
{
closed = 1;
nodes = (
(170,296,l),
(499,296,l),
(499,340,l),
(171,340,l)
);
},
{
closed = 1;
nodes = (
(176,649,l),
(542,649,l),
(542,693,l),
(177,693,l)
);
}
);
width = 586;
},
{
anchors = (
{
name = bottom;
pos = (322,-189);
}
);
layerId = "8BE779D0-3CB0-4E3D-A7BD-4D55C0B0047B";
shapes = (
{
closed = 1;
nodes = (
(14.366,-231.451,l),
(46.255,-228.451,ls),
(153.255,-219.353,o),
(216.765,-155.183,o),
(216.948,-43.34,cs),
(217.948,90,l),
(127.196,90,l),
(124.196,-36.804,ls),
(122.196,-100.405,o),
(95.196,-133.418,o),
(39.804,-139.333,cs),
(10.366,-143.15,l)
);
},
{
closed = 1;
nodes = (
(125.196,0,l),
(216.948,0,l),
(228.948,693,l),
(138.013,693,l)
);
},
{
closed = 1;
nodes = (
(160.196,275.575,l),
(499.817,275.575,l),
(499.817,359.608,l),
(162.013,359.608,l)
);
},
{
closed = 1;
nodes = (
(166.196,609.784,l),
(551.804,609.784,l),
(551.804,693,l),
(168.013,693,l)
);
}
);
width = 586;
}
);
unicode = 401;
},
{
glyphname = G;
layers = (
{
layerId = "1B7E510F-672B-4CC4-A590-B1F79D1107BB";
shapes = (
{
closed = 1;
nodes = (
(435,-10,o),
(512,11,o),
(541,20,c),
(497,138,l),
(467,129,o),
(419,113,o),
(357,113,cs),
(230,113,o),
(166,190,o),
(166,343,cs),
(166,467,o),
(215,581,o),
(355,581,cs),
(407,581,o),
(454,558,o),
(484,519,c),
(566,612,l),
(526,670,o),
(453,703,o),
(352,703,cs),
(127,703,o),
(30,542,o),
(30,334,cs),
(30,105,o),
(135,-10,o),
(343,-10,cs)
);
},
{
closed = 1;
nodes = (
(413,20,l),
(541,20,l),
(547,359,l),
(419,359,l)
);
},
{
closed = 1;
nodes = (
(324,240,l),
(492,240,l),
(494,359,l),
(324,359,l)
);
}
);
width = 586;
},
{
layerId = "F9DFE8EC-1309-4B06-A6CE-E9C97F6115FD";
shapes = (
{
closed = 1;
nodes = (
(431,-10,o),
(506,11,o),
(533,20,c),
(496,104,l),
(466,95,o),
(418,80,o),
(356,80,cs),
(215,80,o),
(143,167,o),
(143,341,cs),
(143,480,o),
(197,613,o),
(356,613,cs),
(408,613,o),
(454,588,o),
(484,544,c),
(558,616,l),
(524,671,o),
(449,703,o),
(352,703,cs),
(129,703,o),
(39,537,o),
(39,334,cs),
(39,105,o),
(140,-10,o),
(343,-10,cs)
);
},
{
closed = 1;
nodes = (
(436,20,l),
(533,20,l),
(539,347,l),
(442,347,l)
);
},
{
closed = 1;
nodes = (
(324,254,l),
(494,254,l),
(496,347,l),
(324,347,l)
);
}
);
width = 586;
},
{
layerId = "C0AB487F-B285-4883-B6B5-039B935D5538";
shapes = (
{
closed = 1;
nodes = (
(421,-10,o),
(489,11,o),
(516,20,c),
(489,59,l),
(459,50,o),
(412,34,o),
(351,34,cs),
(187,34,o),
(92,147,o),
(92,342,cs),
(92,511,o),
(163,659,o),
(352,659,cs),
(415,659,o),
(472,636,o),
(509,594,c),
(543,627,l),
(506,675,o),
(435,703,o),
(347,703,cs),
(128,703,o),
(46,531,o),
(46,335,cs),
(46,115,o),
(151,-10,o),
(338,-10,cs)
);
},
{
closed = 1;
nodes = (
(471,20,l),
(516,20,l),
(522,322,l),
(476,322,l)
);
},
{
closed = 1;
nodes = (
(325,279,l),
(498,279,l),
(499,322,l),
(325,322,l)
);
}
);
width = 586;
},
{
layerId = "8BE779D0-3CB0-4E3D-A7BD-4D55C0B0047B";
shapes = (
{
closed = 1;
nodes = (
(429.17,-10,o),
(502.889,11,o),
(529.889,20,c),
(494.719,95.765,l),
(464.719,86.765,o),
(416.902,71.582,o),
(355.085,71.582,cs),
(209.876,71.582,o),
(133.667,163.34,o),
(133.667,341.183,cs),
(133.667,485.673,o),
(190.778,621.418,o),
(355.268,621.418,cs),
(409.281,621.418,o),
(457.294,596.784,o),
(488.575,553.15,c),
(555.255,618.013,l),
(520.706,671.732,o),
(446.438,703,o),
(351.085,703,cs),
(128.817,703,o),
(40.281,535.902,o),
(40.281,334.183,cs),
(40.281,106.83,o),
(142.013,-10,o),
(342.085,-10,cs)
);
},
{
closed = 1;
nodes = (
(442.405,20,l),
(529.889,20,l),
(535.889,342.425,l),
(448.222,342.425,l)
);
},
{
closed = 1;
nodes = (
(324.183,258.575,l),
(494.732,258.575,l),
(496.549,342.425,l),
(324.183,342.425,l)
);
}
);
width = 586;
}
);
unicode = 71;
},
{
glyphname = H;
layers = (
{
layerId = "1B7E510F-672B-4CC4-A590-B1F79D1107BB";
shapes = (
{
closed = 1;
nodes = (
(392,0,l),
(521,0,l),
(534,693,l),
(405,693,l)
);
},
{
closed = 1;
nodes = (
(56,0,l),
(184,0,l),
(197,693,l),
(68,693,l)
);
},
{
closed = 1;
nodes = (
(81,286,l),
(508,286,l),
(510,405,l),
(83,405,l)
);
}
);
width = 586;
},
{
layerId = "F9DFE8EC-1309-4B06-A6CE-E9C97F6115FD";
shapes = (
{
closed = 1;
nodes = (
(411,0,l),
(513,0,l),
(525,693,l),
(424,693,l)
);
},
{
closed = 1;
nodes = (
(64,0,l),
(165,0,l),
(178,693,l),
(76,693,l)
);
},
{
closed = 1;
nodes = (
(90,299,l),
(500,299,l),
(502,392,l),
(91,392,l)
);
}
);
width = 586;
},
{
layerId = "C0AB487F-B285-4883-B6B5-039B935D5538";
shapes = (
{
closed = 1;
nodes = (
(455,0,l),
(501,0,l),
(513,693,l),
(468,693,l)
);
},
{
closed = 1;
nodes = (
(76,0,l),
(121,0,l),
(134,693,l),
(88,693,l)
);
},
{
closed = 1;
nodes = (
(103,323,l),
(488,323,l),
(489,367,l),
(103,367,l)
);
}
);
width = 586;
},
{
layerId = "8BE779D0-3CB0-4E3D-A7BD-4D55C0B0047B";
shapes = (
{
closed = 1;
nodes = (
(419.052,0,l),
(510.804,0,l),
(522.804,693,l),
(432.052,693,l)
);
},
{
closed = 1;
nodes = (
(66.196,0,l),
(156.948,0,l),
(169.948,693,l),
(78.196,693,l)
);
},
{
closed = 1;
nodes = (
(92.379,303.392,l),
(497.804,303.392,l),
(499.621,387.425,l),
(93.196,387.425,l)
);
}
);
width = 586;
}
);
unicode = 72;
},
{
glyphname = I;
layers = (
{
anchors = (
{
name = top;
pos = (303,693);
}
);
layerId = "1B7E510F-672B-4CC4-A590-B1F79D1107BB";
shapes = (
{
closed = 1;
nodes = (
(223,0,l),
(352,0,l),
(365,693,l),
(236,693,l)
);
},
{
closed = 1;
nodes = (
(70,0,l),
(509,0,l),
(509,116,l),
(70,116,l)
);
},
{
closed = 1;
nodes = (
(80,578,l),
(519,578,l),
(519,693,l),
(80,693,l)
);
}
);
width = 586;
},
{
anchors = (
{
name = top;
pos = (303,693);
}
);
layerId = "F9DFE8EC-1309-4B06-A6CE-E9C97F6115FD";
shapes = (
{
closed = 1;
nodes = (
(237,0,l),
(339,0,l),
(351,693,l),
(249,693,l)
);
},
{
closed = 1;
nodes = (
(78,0,l),
(500,0,l),
(500,93,l),
(78,93,l)
);
},
{
closed = 1;
nodes = (
(89,601,l),
(511,601,l),
(511,693,l),
(89,693,l)
);
}
);
width = 586;
},
{
anchors = (
{
name = top;
pos = (303,693);
}
);
layerId = "C0AB487F-B285-4883-B6B5-039B935D5538";
shapes = (
{
closed = 1;
nodes = (
(265,0,l),
(311,0,l),
(323,693,l),
(277,693,l)
);
},
{
closed = 1;
nodes = (
(90,0,l),
(488,0,l),
(488,44,l),
(90,44,l)
);
},
{
closed = 1;
nodes = (
(101,649,l),
(499,649,l),
(499,693,l),
(101,693,l)
);
}
);
width = 586;
},
{
anchors = (
{
name = top;
pos = (303,693);
}
);
layerId = "8BE779D0-3CB0-4E3D-A7BD-4D55C0B0047B";
shapes = (
{
closed = 1;
nodes = (
(242.124,0,l),
(333.876,0,l),
(345.876,693,l),
(254.124,693,l)
);
},
{
closed = 1;
nodes = (
(80.196,0,l),
(497.804,0,l),
(497.804,84.033,l),
(80.196,84.033,l)
);
},
{
closed = 1;
nodes = (
(91.196,609.784,l),
(508.804,609.784,l),
(508.804,693,l),
(91.196,693,l)
);
}
);
width = 586;
}
);
unicode = 73;
},
{
glyphname = J;
layers = (
{
layerId = "1B7E510F-672B-4CC4-A590-B1F79D1107BB";
shapes = (
{
closed = 1;
nodes = (
(146,575,l),
(422,575,l),
(424,693,l),
(146,693,l)
);
},
{
closed = 1;
nodes = (
(484,693,l),
(356,693,l),
(348,256,ls),
(346,163,o),
(295,117,o),
(196,117,cs),
(157,117,o),
(114,126,o),
(55,145,c),
(30,21,l),
(86,0,o),
(137,-10,o),
(197,-10,cs),
(381,-10,o),
(474,79,o),
(477,259,cs)
);
}
);
width = 586;
},
{
layerId = "F9DFE8EC-1309-4B06-A6CE-E9C97F6115FD";
shapes = (
{
closed = 1;
nodes = (
(156,601,l),
(423,601,l),
(424,693,l),
(156,693,l)
);
},
{
closed = 1;
nodes = (
(476,693,l),
(375,693,l),
(367,254,ls),
(365,140,o),
(312,83,o),
(209,83,cs),
(168,83,o),
(107,97,o),
(55,116,c),
(34,26,l),
(95,3,o),
(155,-10,o),
(206,-10,cs),
(379,-10,o),
(466,79,o),
(469,259,cs)
);
}
);
width = 586;
},
{
layerId = "C0AB487F-B285-4883-B6B5-039B935D5538";
shapes = (
{
closed = 1;
nodes = (
(162,649,l),
(439,649,l),
(440,693,l),
(162,693,l)
);
},
{
closed = 1;
nodes = (
(460,693,l),
(415,693,l),
(407,254,ls),
(404,108,o),
(347,35,o),
(211,35,cs),
(169,35,o),
(125,39,o),
(66,60,c),
(55,16,l),
(106,-2,o),
(152,-10,o),
(208,-10,cs),
(376,-10,o),
(450,79,o),
(453,259,cs)
);
}
);
width = 586;
},
{
layerId = "8BE779D0-3CB0-4E3D-A7BD-4D55C0B0047B";
shapes = (
{
closed = 1;
nodes = (
(157.098,609.784,l),
(425.928,609.784,l),
(426.928,693,l),
(157.098,693,l)
);
},
{
closed = 1;
nodes = (
(473.072,693,l),
(382.32,693,l),
(374.32,254,ls),
(372.137,134.144,o),
(318.405,74.216,o),
(209.366,74.216,cs),
(168.183,74.216,o),
(110.294,86.386,o),
(57.013,105.752,c),
(37.843,24.17,l),
(97.013,2.085,o),
(154.451,-10,o),
(206.366,-10,cs),
(378.451,-10,o),
(463.072,79,o),
(466.072,259,cs)
);
}
);
width = 586;
}
);
unicode = 74;
},
{
glyphname = K;
layers = (
{
layerId = "1B7E510F-672B-4CC4-A590-B1F79D1107BB";
shapes = (
{
closed = 1;
nodes = (
(134,221,l),
(392,221,o),
(546,446,o),
(550,693,c),
(419,693,l),
(416,519,o),
(330,350,o),
(145,350,c)
);
},
{
closed = 1;
nodes = (
(60,0,l),
(189,0,l),
(201,693,l),
(73,693,l)
);
},
{
closed = 1;
nodes = (
(412,0,l),
(571,0,l),
(399,357,l),
(278,307,l)
);
}
);
width = 586;
},
{
layerId = "F9DFE8EC-1309-4B06-A6CE-E9C97F6115FD";
shapes = (
{
closed = 1;
nodes = (
(134,221,l),
(387,221,o),
(538,446,o),
(542,693,c),
(441,693,l),
(438,502,o),
(345,317,o),
(145,317,c)
);
},
{
closed = 1;
nodes = (
(69,0,l),
(170,0,l),
(182,693,l),
(81,693,l)
);
},
{
closed = 1;
nodes = (
(445,0,l),
(563,0,l),
(364,388,l),
(275,338,l)
);
}
);
width = 586;
},
{
layerId = "C0AB487F-B285-4883-B6B5-039B935D5538";
shapes = (
{
closed = 1;
nodes = (
(117,240,l),
(376,240,o),
(525,405,o),
(530,693,c),
(483,693,l),
(478,433,o),
(349,284,o),
(126,284,c)
);
},
{
closed = 1;
nodes = (
(80,0,l),
(126,0,l),
(138,693,l),
(93,693,l)
);
},
{
closed = 1;
nodes = (
(496,0,l),
(551,0,l),
(383,347,l),
(343,317,l)
);
}
);
width = 586;
},
{
layerId = "8BE779D0-3CB0-4E3D-A7BD-4D55C0B0047B";
shapes = (
{
closed = 1;
nodes = (
(130.889,224.477,l),
(384.987,224.477,o),
(535.621,438.497,o),
(539.804,693,c),
(448.686,693,l),
(445.32,489.373,o),
(345.732,310.961,o),
(141.523,310.961,c)
);
},
{
closed = 1;
nodes = (
(71.013,0,l),
(161.948,0,l),
(173.948,693,l),
(83.196,693,l)
);
},
{
closed = 1;
nodes = (
(454.333,0,l),
(560.804,0,l),
(367.477,380.497,l),
(287.444,334.157,l)
);
}
);
width = 586;
}
);
unicode = 75;
},
{
glyphname = L;
layers = (
{
layerId = "1B7E510F-672B-4CC4-A590-B1F79D1107BB";
shapes = (
{
closed = 1;
nodes = (
(65,0,l),
(194,0,l),
(206,693,l),
(77,693,l)
);
},
{
closed = 1;
nodes = (
(85,0,l),
(542,0,l),
(542,119,l),
(87,119,l)
);
}
);
width = 586;
},
{
layerId = "F9DFE8EC-1309-4B06-A6CE-E9C97F6115FD";
shapes = (
{
closed = 1;
nodes = (
(74,0,l),
(175,0,l),
(187,693,l),
(86,693,l)
);
},
{
closed = 1;
nodes = (
(94,0,l),
(533,0,l),
(533,93,l),
(95,93,l)
);
}
);
width = 586;
},
{
layerId = "C0AB487F-B285-4883-B6B5-039B935D5538";
shapes = (
{
closed = 1;
nodes = (
(85,0,l),
(131,0,l),
(143,693,l),
(97,693,l)
);
},
{
closed = 1;
nodes = (
(105,0,l),
(521,0,l),
(521,44,l),
(106,44,l)
);
}
);
width = 586;
},
{
layerId = "8BE779D0-3CB0-4E3D-A7BD-4D55C0B0047B";
shapes = (
{
closed = 1;
nodes = (
(76.013,0,l),
(166.948,0,l),
(178.948,693,l),
(88.013,693,l)
);
},
{
closed = 1;
nodes = (
(96.013,0,l),
(530.804,0,l),
(530.804,84.033,l),
(97.013,84.033,l)
);
}
);
width = 586;
}
);
unicode = 76;
},
{
glyphname = Lslash;
layers = (
{
layerId = "1B7E510F-672B-4CC4-A590-B1F79D1107BB";
shapes = (
{
closed = 1;
nodes = (
(28,210,l),
(422,403,l),
(422,530,l),
(28,337,l)
);
},
{
closed = 1;
nodes = (
(121,0,l),
(537,0,l),
(537,119,l),
(121,119,l)
);
},
{
closed = 1;
nodes = (
(105,0,l),
(233,0,l),
(245,693,l),
(117,693,l)
);
}
);
width = 586;
},
{
layerId = "F9DFE8EC-1309-4B06-A6CE-E9C97F6115FD";
shapes = (
{
closed = 1;
nodes = (
(28,222,l),
(422,427,l),
(422,518,l),
(28,313,l)
);
},
{
closed = 1;
nodes = (
(137,0,l),
(537,0,l),
(537,93,l),
(137,93,l)
);
},
{
closed = 1;
nodes = (
(121,0,l),
(223,0,l),
(234,693,l),
(133,693,l)
);
}
);
width = 586;
},
{
layerId = "C0AB487F-B285-4883-B6B5-039B935D5538";
shapes = (
{
closed = 1;
nodes = (
(28,222,l),
(422,469,l),
(422,518,l),
(28,271,l)
);
},
{
closed = 1;
nodes = (
(184,0,l),
(525,0,l),
(525,44,l),
(184,44,l)
);
},
{
closed = 1;
nodes = (
(168,0,l),
(214,0,l),
(226,693,l),
(180,693,l)
);
}
);
width = 586;
},
{
layerId = "8BE779D0-3CB0-4E3D-A7BD-4D55C0B0047B";
shapes = (
{
closed = 1;
nodes = (
(28,222,l),
(422,434.686,l),
(422,518,l),
(28,305.314,l)
);
},
{
closed = 1;
nodes = (
(145.601,0,l),
(534.804,0,l),
(534.804,84.033,l),
(145.601,84.033,l)
);
},
{
closed = 1;
nodes = (
(129.601,0,l),
(221.353,0,l),
(232.536,693,l),
(141.601,693,l)
);
}
);
width = 586;
}
);
unicode = 321;
},
{
glyphname = M;
layers = (
{
layerId = "1B7E510F-672B-4CC4-A590-B1F79D1107BB";
shapes = (
{
closed = 1;
nodes = (
(276,243,l),
(338,243,l),
(402,570,l),
(433,570,l),
(427,693,l),
(355,693,l),
(299,383,l),
(293,383,l)
);
},
{
closed = 1;
nodes = (
(38,0,l),
(158,0,l),
(182,693,l),
(62,693,l)
);
},
{
closed = 1;
nodes = (
(248,243,l),
(306,243,l),
(295,383,l),
(291,383,l),
(246,693,l),
(174,693,l),
(164,570,l),
(195,570,l)
);
},
{
closed = 1;
nodes = (
(419,0,l),
(539,0,l),
(539,693,l),
(419,693,l)
);
}
);
width = 586;
},
{
layerId = "F9DFE8EC-1309-4B06-A6CE-E9C97F6115FD";
shapes = (
{
closed = 1;
nodes = (
(277,283,l),
(338,283,l),
(419,570,l),
(447,570,l),
(449,693,l),
(380,693,l),
(299,396,l),
(293,396,l)
);
},
{
closed = 1;
nodes = (
(46,0,l),
(144,0,l),
(168,693,l),
(70,693,l)
);
},
{
closed = 1;
nodes = (
(248,283,l),
(303,283,l),
(295,396,l),
(291,396,l),
(221,693,l),
(152,693,l),
(150,570,l),
(178,570,l)
);
},
{
closed = 1;
nodes = (
(433,0,l),
(531,0,l),
(531,693,l),
(433,693,l)
);
}
);
width = 586;
},
{
layerId = "C0AB487F-B285-4883-B6B5-039B935D5538";
shapes = (
{
closed = 1;
nodes = (
(288,322,l),
(323,322,l),
(468,650,l),
(488,650,l),
(489,693,l),
(440,693,l),
(296,365,l),
(295,365,l)
);
},
{
closed = 1;
nodes = (
(58,0,l),
(104,0,l),
(128,693,l),
(82,693,l)
);
},
{
closed = 1;
nodes = (
(265,322,l),
(301,322,l),
(295,365,l),
(294,365,l),
(161,693,l),
(121,693,l),
(120,650,l),
(132,650,l)
);
},
{
closed = 1;
nodes = (
(473,0,l),
(519,0,l),
(519,693,l),
(473,693,l)
);
}
);
width = 586;
},
{
layerId = "8BE779D0-3CB0-4E3D-A7BD-4D55C0B0047B";
shapes = (
{
closed = 1;
nodes = (
(279.013,290.137,l),
(335.255,290.137,l),
(427.967,584.641,l),
(454.503,584.641,l),
(456.32,693,l),
(390.98,693,l),
(298.451,390.327,l),
(293.366,390.327,l)
);
},
{
closed = 1;
nodes = (
(48.196,0,l),
(136.68,0,l),
(160.68,693,l),
(72.196,693,l)
);
},
{
closed = 1;
nodes = (
(251.111,290.137,l),
(302.634,290.137,l),
(295,390.327,l),
(291.549,390.327,l),
(210.02,693,l),
(146.327,693,l),
(144.51,584.641,l),
(169.582,584.641,l)
);
},
{
closed = 1;
nodes = (
(440.32,0,l),
(528.804,0,l),
(528.804,693,l),
(440.32,693,l)
);
}
);
width = 586;
}
);
unicode = 77;
},
{
glyphname = N;
layers = (
{
anchors = (
{
name = top;
pos = (301,693);
}
);
layerId = "1B7E510F-672B-4CC4-A590-B1F79D1107BB";
shapes = (
{
closed = 1;
nodes = (
(324,0,l),
(408,0,l),
(411,151,l),
(378,151,l),
(265,693,l),
(160,693,l),
(158,542,l),
(211,542,l)
);
},
{
closed = 1;
nodes = (
(59,0,l),
(183,0,l),
(196,693,l),
(72,693,l)
);
},
{
closed = 1;
nodes = (
(393,0,l),
(517,0,l),
(530,693,l),
(406,693,l)
);
}
);
width = 586;
},
{
anchors = (
{
name = top;
pos = (301,693);
}
);
layerId = "F9DFE8EC-1309-4B06-A6CE-E9C97F6115FD";
shapes = (
{
closed = 1;
nodes = (
(378,0,l),
(422,0,l),
(425,166,l),
(401,166,l),
(211,693,l),
(146,693,l),
(143,527,l),
(188,527,l)
);
},
{
closed = 1;
nodes = (
(68,0,l),
(169,0,l),
(181,693,l),
(80,693,l)
);
},
{
closed = 1;
nodes = (
(408,0,l),
(509,0,l),
(521,693,l),
(420,693,l)
);
}
);
width = 586;
},
{
anchors = (
{
name = top;
pos = (301,693);
}
);
layerId = "C0AB487F-B285-4883-B6B5-039B935D5538";
shapes = (
{
closed = 1;
nodes = (
(419,0,l),
(469,0,l),
(469,43,l),
(449,43,l),
(170,693,l),
(113,693,l),
(112,650,l),
(141,650,l)
);
},
{
closed = 1;
nodes = (
(79,0,l),
(125,0,l),
(138,693,l),
(92,693,l)
);
},
{
closed = 1;
nodes = (
(452,0,l),
(497,0,l),
(510,693,l),
(464,693,l)
);
}
);
width = 586;
},
{
anchors = (
{
name = top;
pos = (301,693);
}
);
layerId = "8BE779D0-3CB0-4E3D-A7BD-4D55C0B0047B";
shapes = (
{
closed = 1;
nodes = (
(385.503,0,l),
(430.601,0,l),
(433.052,143.49,l),
(409.784,143.49,l),
(203.497,693,l),
(139.961,693,l),
(137.327,549.51,l),
(179.399,549.51,l)
);
},
{
closed = 1;
nodes = (
(70.013,0,l),
(160.948,0,l),
(173.131,693,l),
(82.196,693,l)
);
},
{
closed = 1;
nodes = (
(416.052,0,l),
(506.804,0,l),
(518.987,693,l),
(428.052,693,l)
);
}
);
width = 586;
}
);
unicode = 78;
},
{
glyphname = Nhookleft;
layers = (
{
layerId = "1B7E510F-672B-4CC4-A590-B1F79D1107BB";
shapes = (
{
closed = 1;
nodes = (
(-44,-234,l),
(-1,-233,ls),
(124,-229,o),
(183,-173,o),
(183,-47,cs),
(184,90,l),
(61,90,l),
(58,-43,ls),
(57,-91,o),
(36,-115,o),
(-13,-116,c),
(-44,-117,l)
);
},
{
closed = 1;
nodes = (
(324,0,l),
(408,0,l),
(411,151,l),
(378,151,l),
(265,693,l),
(160,693,l),
(158,542,l),
(211,542,l)
);
},
{
closed = 1;
nodes = (
(59,0,l),
(183,0,l),
(196,693,l),
(72,693,l)
);
},
{
closed = 1;
nodes = (
(393,0,l),
(517,0,l),
(530,693,l),
(406,693,l)
);
}
);
width = 586;
},
{
layerId = "F9DFE8EC-1309-4B06-A6CE-E9C97F6115FD";
shapes = (
{
closed = 1;
nodes = (
(-42,-232,l),
(-3,-229,ls),
(104,-218,o),
(167,-155,o),
(169,-47,cs),
(171,90,l),
(70,90,l),
(66,-39,ls),
(65,-94,o),
(39,-122,o),
(-11,-129,cs),
(-45,-135,l)
);
},
{
closed = 1;
nodes = (
(378,0,l),
(422,0,l),
(425,166,l),
(401,166,l),
(211,693,l),
(146,693,l),
(143,527,l),
(188,527,l)
);
},
{
closed = 1;
nodes = (
(68,0,l),
(169,0,l),
(181,693,l),
(80,693,l)
);
},
{
closed = 1;
nodes = (
(408,0,l),
(509,0,l),
(521,693,l),
(420,693,l)
);
}
);
width = 586;
},
{
layerId = "C0AB487F-B285-4883-B6B5-039B935D5538";
shapes = (
{
closed = 1;
nodes = (
(-42,-229,l),
(-23,-226,ls),
(83,-212,o),
(125,-156,o),
(125,-27,cs),
(126,90,l),
(81,90,l),
(78,-23,ls),
(75,-125,o),
(48,-171,o),
(-28,-181,cs),
(-46,-184,l)
);
},
{
closed = 1;
nodes = (
(419,0,l),
(469,0,l),
(469,43,l),
(449,43,l),
(170,693,l),
(113,693,l),
(112,650,l),
(141,650,l)
);
},
{
closed = 1;
nodes = (
(79,0,l),
(125,0,l),
(138,693,l),
(92,693,l)
);
},
{
closed = 1;
nodes = (
(452,0,l),
(497,0,l),
(510,693,l),
(464,693,l)
);
}
);
width = 586;
},
{
layerId = "8BE779D0-3CB0-4E3D-A7BD-4D55C0B0047B";
shapes = (
{
closed = 1;
nodes = (
(-42,-231.451,l),
(-6.66,-228.451,ls),
(100.157,-216.902,o),
(159.314,-155.183,o),
(160.948,-43.34,cs),
(162.765,90,l),
(72.013,90,l),
(68.196,-36.072,ls),
(66.83,-99.673,o),
(40.647,-130.967,o),
(-14.111,-138.516,cs),
(-45.183,-143.967,l)
);
},
{
closed = 1;
nodes = (
(385.503,0,l),
(430.601,0,l),
(433.052,143.49,l),
(409.784,143.49,l),
(203.497,693,l),
(139.961,693,l),
(137.327,549.51,l),
(179.399,549.51,l)
);
},
{
closed = 1;
nodes = (
(70.013,0,l),
(160.948,0,l),
(173.131,693,l),
(82.196,693,l)
);
},
{
closed = 1;
nodes = (
(416.052,0,l),
(506.804,0,l),
(518.987,693,l),
(428.052,693,l)
);
}
);
width = 586;
}
);
unicode = 413;
},
{
glyphname = Eng;
layers = (
{
layerId = "1B7E510F-672B-4CC4-A590-B1F79D1107BB";
shapes = (
{
closed = 1;
nodes = (
(233,-234,l),
(333,-233,ls),
(458,-231,o),
(517,-173,o),
(517,-47,cs),
(518,90,l),
(396,90,l),
(393,-43,ls),
(392,-91,o),
(371,-113,o),
(322,-116,c),
(234,-117,l)
);
},
{
closed = 1;
nodes = (
(324,0,l),
(408,0,l),
(411,151,l),
(378,151,l),
(265,693,l),
(160,693,l),
(158,542,l),
(211,542,l)
);
},
{
closed = 1;
nodes = (
(59,0,l),
(183,0,l),
(196,693,l),
(72,693,l)
);
},
{
closed = 1;
nodes = (
(393,0,l),
(517,0,l),
(530,693,l),
(406,693,l)
);
}
);
width = 586;
},
{
layerId = "F9DFE8EC-1309-4B06-A6CE-E9C97F6115FD";
shapes = (
{
closed = 1;
nodes = (
(282,-234,l),
(345,-229,ls),
(447,-219,o),
(508,-153,o),
(509,-47,cs),
(510,90,l),
(410,90,l),
(407,-42,ls),
(406,-95,o),
(381,-121,o),
(332,-128,cs),
(273,-137,l)
);
},
{
closed = 1;
nodes = (
(378,0,l),
(422,0,l),
(425,166,l),
(401,166,l),
(211,693,l),
(146,693,l),
(143,527,l),
(188,527,l)
);
},
{
closed = 1;
nodes = (
(68,0,l),
(169,0,l),
(181,693,l),
(80,693,l)
);
},
{
closed = 1;
nodes = (
(408,0,l),
(509,0,l),
(521,693,l),
(420,693,l)
);
}
);
width = 586;
},
{
layerId = "C0AB487F-B285-4883-B6B5-039B935D5538";
shapes = (
{
closed = 1;
nodes = (
(308,-234,l),
(352,-226,ls),
(456,-207,o),
(496,-156,o),
(497,-27,cs),
(498,90,l),
(455,90,l),
(452,-23,ls),
(449,-125,o),
(421,-167,o),
(347,-181,cs),
(303,-189,l)
);
},
{
closed = 1;
nodes = (
(419,0,l),
(469,0,l),
(469,43,l),
(449,43,l),
(170,693,l),
(113,693,l),
(112,650,l),
(141,650,l)
);
},
{
closed = 1;
nodes = (
(79,0,l),
(125,0,l),
(138,693,l),
(92,693,l)
);
},
{
closed = 1;
nodes = (
(452,0,l),
(497,0,l),
(510,693,l),
(464,693,l)
);
}
);
width = 586;
},
{
layerId = "8BE779D0-3CB0-4E3D-A7BD-4D55C0B0047B";
shapes = (
{
closed = 1;
nodes = (
(286.758,-234,l),
(346.281,-228.451,ls),
(448.647,-216.804,o),
(505.804,-153.549,o),
(506.804,-43.34,cs),
(507.804,90,l),
(418.235,90,l),
(415.235,-38.523,ls),
(413.869,-100.49,o),
(388.32,-129.418,o),
(334.745,-137.699,cs),
(278.49,-146.516,l)
);
},
{
closed = 1;
nodes = (
(385.503,0,l),
(430.601,0,l),
(433.052,143.49,l),
(409.784,143.49,l),
(203.497,693,l),
(139.961,693,l),
(137.327,549.51,l),
(179.399,549.51,l)
);
},
{
closed = 1;
nodes = (
(70.013,0,l),
(160.948,0,l),
(173.131,693,l),
(82.196,693,l)
);
},
{
closed = 1;
nodes = (
(416.052,0,l),
(506.804,0,l),
(518.987,693,l),
(428.052,693,l)
);
}
);
width = 586;
}
);
unicode = 330;
},
{
glyphname = O;
layers = (
{
anchors = (
{
name = top;
pos = (303,693);
}
);
layerId = "1B7E510F-672B-4CC4-A590-B1F79D1107BB";
shapes = (
{
closed = 1;
nodes = (
(507,-10,o),
(559,173,o),
(559,358,cs),
(559,588,o),
(472,703,o),
(301,703,cs),
(80,703,o),
(30,511,o),
(30,326,cs),
(30,101,o),
(117,-10,o),
(288,-10,cs)
);
},
{
closed = 1;
nodes = (
(207,113,o),
(165,184,o),
(165,328,cs),
(165,417,o),
(177,580,o),
(299,580,cs),
(382,580,o),
(423,506,o),
(423,357,cs),
(423,267,o),
(411,113,o),
(290,113,cs)
);
}
);
width = 586;
},
{
anchors = (
{
name = top;
pos = (303,693);
}
);
layerId = "F9DFE8EC-1309-4B06-A6CE-E9C97F6115FD";
shapes = (
{
closed = 1;
nodes = (
(504,-10,o),
(550,179,o),
(550,359,cs),
(550,589,o),
(467,703,o),
(301,703,cs),
(83,703,o),
(38,504,o),
(38,325,cs),
(38,101,o),
(122,-10,o),
(288,-10,cs)
);
},
{
closed = 1;
nodes = (
(192,80,o),
(143,162,o),
(143,327,cs),
(143,432,o),
(157,613,o),
(299,613,cs),
(397,613,o),
(446,529,o),
(446,358,cs),
(446,252,o),
(431,80,o),
(290,80,cs)
);
}
);
width = 586;
},
{
anchors = (
{
name = top;
pos = (303,693);
}
);
layerId = "C0AB487F-B285-4883-B6B5-039B935D5538";
shapes = (
{
closed = 1;
nodes = (
(499,-10,o),
(539,188,o),
(539,360,cs),
(539,589,o),
(459,703,o),
(301,703,cs),
(89,703,o),
(50,496,o),
(50,325,cs),
(50,101,o),
(130,-10,o),
(288,-10,cs)
);
},
{
closed = 1;
nodes = (
(161,34,o),
(97,132,o),
(97,326,cs),
(97,464,o),
(122,659,o),
(300,659,cs),
(428,659,o),
(492,560,o),
(492,359,cs),
(492,221,o),
(465,34,o),
(289,34,cs)
);
}
);
width = 586;
},
{
anchors = (
{
name = top;
pos = (303,693);
}
);
layerId = "8BE779D0-3CB0-4E3D-A7BD-4D55C0B0047B";
shapes = (
{
closed = 1;
nodes = (
(503.085,-10,o),
(547.987,180.647,o),
(547.987,359.183,cs),
(547.987,589,o),
(465.536,703,o),
(301,703,cs),
(84.098,703,o),
(40.196,502.536,o),
(40.196,325,cs),
(40.196,101,o),
(123.464,-10,o),
(288,-10,cs)
);
},
{
closed = 1;
nodes = (
(186.327,71.582,o),
(134.582,156.51,o),
(134.582,326.817,cs),
(134.582,437.856,o),
(150.595,621.418,o),
(299.183,621.418,cs),
(402.673,621.418,o),
(454.418,534.673,o),
(454.418,358.183,cs),
(454.418,246.327,o),
(437.222,71.582,o),
(289.817,71.582,cs)
);
}
);
width = 586;
}
);
unicode = 79;
},
{
glyphname = Oslash;
layers = (
{
layerId = "1B7E510F-672B-4CC4-A590-B1F79D1107BB";
shapes = (
{
closed = 1;
nodes = (
(132,-45,l),
(554,728,l),
(444,728,l),
(22,-45,l)
);
},
{
ref = O;
}
);
width = 586;
},
{
layerId = "F9DFE8EC-1309-4B06-A6CE-E9C97F6115FD";
shapes = (
{
closed = 1;
nodes = (
(108,-45,l),
(554,728,l),
(468,728,l),
(22,-45,l)
);
},
{
ref = O;
}
);
width = 586;
},
{
layerId = "C0AB487F-B285-4883-B6B5-039B935D5538";
shapes = (
{
closed = 1;
nodes = (
(102,-45,l),
(522,728,l),
(474,728,l),
(54,-45,l)
);
},
{
ref = O;
}
);
width = 586;
},
{
layerId = "8BE779D0-3CB0-4E3D-A7BD-4D55C0B0047B";
shapes = (
{
closed = 1;
nodes = (
(106.902,-45,l),
(548.144,728,l),
(469.098,728,l),
(27.856,-45,l)
);
},
{
alignment = -1;
ref = O;
}
);
width = 586;
}
);
unicode = 216;
},
{
glyphname = OE;
layers = (
{
layerId = "1B7E510F-672B-4CC4-A590-B1F79D1107BB";
shapes = (
{
closed = 1;
nodes = (
(295,-10,o),
(338,0,o),
(373,0,cs),
(395,0,l),
(406,693,l),
(384,693,ls),
(338,693,o),
(305,703,o),
(252,703,cs),
(115,703,o),
(29,557,o),
(29,326,cs),
(29,112,o),
(105,-10,o),
(239,-10,cs)
);
},
{
closed = 1;
nodes = (
(295,0,l),
(545,0,l),
(545,118,l),
(297,118,l)
);
},
{
closed = 1;
nodes = (
(194,110,o),
(164,190,o),
(164,328,cs),
(164,476,o),
(200,583,o),
(250,583,cs),
(261,583,o),
(271,581,o),
(277,577,c),
(270,113,l),
(263,111,o),
(255,110,o),
(247,110,cs)
);
},
{
closed = 1;
nodes = (
(310,288,l),
(516,288,l),
(516,406,l),
(312,406,l)
);
},
{
closed = 1;
nodes = (
(300,575,l),
(545,575,l),
(545,693,l),
(302,693,l)
);
}
);
width = 586;
},
{
layerId = "F9DFE8EC-1309-4B06-A6CE-E9C97F6115FD";
shapes = (
{
closed = 1;
nodes = (
(284,-10,o),
(313,0,o),
(336,0,cs),
(380,0,l),
(392,693,l),
(343,693,ls),
(313,693,o),
(293,703,o),
(260,703,cs),
(124,703,o),
(37,557,o),
(37,326,cs),
(37,112,o),
(113,-10,o),
(248,-10,cs)
);
},
{
closed = 1;
nodes = (
(307,0,l),
(537,0,l),
(537,88,l),
(308,88,l)
);
},
{
closed = 1;
nodes = (
(181,80,o),
(140,169,o),
(140,326,cs),
(140,495,o),
(188,613,o),
(259,613,cs),
(270,613,o),
(279,609,o),
(287,603,c),
(278,83,l),
(272,81,o),
(263,80,o),
(254,80,cs)
);
},
{
closed = 1;
nodes = (
(326,303,l),
(508,303,l),
(508,391,l),
(328,391,l)
);
},
{
closed = 1;
nodes = (
(312,605,l),
(537,605,l),
(537,693,l),
(313,693,l)
);
}
);
width = 586;
},
{
layerId = "C0AB487F-B285-4883-B6B5-039B935D5538";
shapes = (
{
closed = 1;
nodes = (
(284,-10,o),
(313,0,o),
(336,0,cs),
(351,0,l),
(362,693,l),
(348,693,ls),
(317,693,o),
(295,703,o),
(260,703,cs),
(132,703,o),
(50,554,o),
(50,325,cs),
(50,112,o),
(122,-10,o),
(248,-10,cs)
);
},
{
closed = 1;
nodes = (
(312,0,l),
(524,0,l),
(524,44,l),
(312,44,l)
);
},
{
closed = 1;
nodes = (
(153,34,o),
(97,140,o),
(97,325,cs),
(97,525,o),
(162,659,o),
(259,659,cs),
(281,659,o),
(302,655,o),
(318,648,c),
(307,37,l),
(292,35,o),
(273,34,o),
(253,34,cs)
);
},
{
closed = 1;
nodes = (
(327,325,l),
(495,325,l),
(495,369,l),
(328,369,l)
);
},
{
closed = 1;
nodes = (
(318,649,l),
(524,649,l),
(524,693,l),
(318,693,l)
);
}
);
width = 586;
},
{
layerId = "8BE779D0-3CB0-4E3D-A7BD-4D55C0B0047B";
shapes = (
{
closed = 1;
nodes = (
(284,-10,o),
(313,0,o),
(336,0,cs),
(374.693,0,l),
(386.51,693,l),
(343.915,693,ls),
(313.732,693,o),
(293.366,703,o),
(260,703,cs),
(125.464,703,o),
(39.379,556.451,o),
(39.379,325.817,cs),
(39.379,112,o),
(114.647,-10,o),
(248,-10,cs)
);
},
{
closed = 1;
nodes = (
(307.915,0,l),
(534.621,0,l),
(534.621,79.948,l),
(308.732,79.948,l)
);
},
{
closed = 1;
nodes = (
(175.876,71.582,o),
(132.131,163.693,o),
(132.131,325.817,cs),
(132.131,500.49,o),
(183.242,621.418,o),
(259,621.418,cs),
(272.013,621.418,o),
(283.209,617.418,o),
(292.673,611.235,c),
(283.307,74.582,l),
(275.66,72.582,o),
(264.83,71.582,o),
(253.817,71.582,cs)
);
},
{
closed = 1;
nodes = (
(326.183,307.026,l),
(505.621,307.026,l),
(505.621,386.974,l),
(328,386.974,l)
);
},
{
closed = 1;
nodes = (
(313.098,613.052,l),
(534.621,613.052,l),
(534.621,693,l),
(313.915,693,l)
);
}
);
width = 586;
}
);
unicode = 338;
},
{
glyphname = P;
layers = (
{
layerId = "1B7E510F-672B-4CC4-A590-B1F79D1107BB";
shapes = (
{
closed = 1;
nodes = (
(202,199,l),
(297,199,ls),
(467,199,o),
(575,291,o),
(575,465,cs),
(575,610,o),
(478,693,o),
(306,693,cs),
(213,693,l),
(211,575,l),
(304,575,ls),
(388,575,o),
(435,531,o),
(435,454,cs),
(435,368,o),
(385,317,o),
(299,317,cs),
(204,317,l)
);
},
{
closed = 1;
nodes = (
(81,0,l),
(210,0,l),
(222,693,l),
(93,693,l)
);
}
);
width = 586;
},
{
layerId = "F9DFE8EC-1309-4B06-A6CE-E9C97F6115FD";
shapes = (
{
closed = 1;
nodes = (
(183,215,l),
(297,215,ls),
(466,215,o),
(567,296,o),
(567,470,cs),
(567,617,o),
(477,693,o),
(306,693,cs),
(194,693,l),
(192,601,l),
(304,601,ls),
(409,601,o),
(464,555,o),
(464,468,cs),
(464,361,o),
(404,308,o),
(299,308,cs),
(185,308,l)
);
},
{
closed = 1;
nodes = (
(90,0,l),
(191,0,l),
(203,693,l),
(102,693,l)
);
}
);
width = 586;
},
{
layerId = "C0AB487F-B285-4883-B6B5-039B935D5538";
shapes = (
{
closed = 1;
nodes = (
(140,239,l),
(308,239,ls),
(458,239,o),
(555,317,o),
(555,472,cs),
(555,613,o),
(469,693,o),
(316,693,cs),
(150,693,l),
(149,649,l),
(315,649,ls),
(438,649,o),
(508,585,o),
(508,471,cs),
(508,346,o),
(429,283,o),
(308,283,cs),
(140,283,l)
);
},
{
closed = 1;
nodes = (
(101,0,l),
(147,0,l),
(159,693,l),
(113,693,l)
);
}
);
width = 586;
},
{
layerId = "8BE779D0-3CB0-4E3D-A7BD-4D55C0B0047B";
shapes = (
{
closed = 1;
nodes = (
(175.131,219.392,l),
(299.013,219.392,ls),
(464.536,219.392,o),
(564.804,299.843,o),
(564.804,470.366,cs),
(564.804,616.268,o),
(475.536,693,o),
(307.83,693,cs),
(185.948,693,l),
(184.131,609.784,l),
(306.013,609.784,ls),
(414.307,609.784,o),
(472.052,560.49,o),
(472.052,468.549,cs),
(472.052,358.255,o),
(408.575,303.425,o),
(300.647,303.425,cs),
(176.765,303.425,l)
);
},
{
closed = 1;
nodes = (
(92.013,0,l),
(182.948,0,l),
(194.948,693,l),
(104.013,693,l)
);
}
);
width = 586;
}
);
unicode = 80;
},
{
glyphname = Thorn;
layers = (
{
anchors = (
{
name = bottom;
pos = (273,0);
},
{
name = top;
pos = (273,693);
}
);
layerId = "1B7E510F-672B-4CC4-A590-B1F79D1107BB";
shapes = (
{
closed = 1;
nodes = (
(200,102,l),
(295,102,ls),
(463,102,o),
(572,190,o),
(572,363,cs),
(572,511,o),
(476,596,o),
(304,596,cs),
(210,596,l),
(208,478,l),
(302,478,ls),
(386,478,o),
(433,432,o),
(433,352,cs),
(433,267,o),
(381,220,o),
(297,220,cs),
(202,220,l)
);
},
{
closed = 1;
nodes = (
(81,0,l),
(210,0,l),
(222,693,l),
(93,693,l)
);
}
);
width = 586;
},
{
anchors = (
{
name = bottom;
pos = (273,0);
},
{
name = top;
pos = (273,693);
}
);
layerId = "F9DFE8EC-1309-4B06-A6CE-E9C97F6115FD";
shapes = (
{
closed = 1;
nodes = (
(182,107,l),
(296,107,ls),
(455,107,o),
(565,187,o),
(565,354,cs),
(565,502,o),
(469,586,o),
(304,586,cs),
(192,586,l),
(190,493,l),
(303,493,ls),
(404,493,o),
(462,443,o),
(462,352,cs),
(462,250,o),
(396,200,o),
(298,200,cs),
(183,200,l)
);
},
{
closed = 1;
nodes = (
(90,0,l),
(192,0,l),
(204,693,l),
(102,693,l)
);
}
);
width = 586;
},
{
anchors = (
{
name = bottom;
pos = (273,0);
},
{
name = top;
pos = (273,693);
}
);
layerId = "C0AB487F-B285-4883-B6B5-039B935D5538";
shapes = (
{
closed = 1;
nodes = (
(137,119,l),
(305,119,ls),
(460,119,o),
(549,202,o),
(552,347,cs),
(555,492,o),
(468,575,o),
(313,575,cs),
(147,575,l),
(146,530,l),
(312,530,ls),
(438,530,o),
(509,464,o),
(507,347,cs),
(505,230,o),
(432,164,o),
(306,164,cs),
(138,164,l)
);
},
{
closed = 1;
nodes = (
(101,0,l),
(147,0,l),
(159,693,l),
(113,693,l)
);
}
);
width = 586;
},
{
anchors = (
{
name = bottom;
pos = (273,0);
},
{
name = top;
pos = (273,693);
}
);
layerId = "8BE779D0-3CB0-4E3D-A7BD-4D55C0B0047B";
shapes = (
{
closed = 1;
nodes = (
(173.765,109.196,l),
(297.647,109.196,ls),
(455.915,109.196,o),
(562.072,189.745,o),
(562.621,352.719,cs),
(563.17,500.17,o),
(468.817,583.987,o),
(305.647,583.987,cs),
(183.765,583.987,l),
(181.948,499.771,l),
(304.647,499.771,ls),
(410.222,499.771,o),
(470.601,446.843,o),
(470.235,351.085,cs),
(469.869,246.34,o),
(402.588,193.412,o),
(299.464,193.412,cs),
(174.765,193.412,l)
);
},
{
closed = 1;
nodes = (
(92.013,0,l),
(183.765,0,l),
(195.765,693,l),
(104.013,693,l)
);
}
);
width = 586;
}
);
unicode = 222;
},
{
glyphname = Q;
layers = (
{
layerId = "1B7E510F-672B-4CC4-A590-B1F79D1107BB";
shapes = (
{
closed = 1;
nodes = (
(499,-195,l),
(497,-72,l),
(454,-72,ls),
(382,-72,o),
(348,-42,o),
(349,19,c),
(219,20,l),
(216,-124,o),
(295,-195,o),
(452,-195,cs)
);
},
{
ref = O;
}
);
width = 586;
},
{
layerId = "F9DFE8EC-1309-4B06-A6CE-E9C97F6115FD";
shapes = (
{
closed = 1;
nodes = (
(489,-195,l),
(487,-107,l),
(446,-107,ls),
(369,-107,o),
(332,-65,o),
(333,19,c),
(236,20,l),
(233,-124,o),
(303,-195,o),
(444,-195,cs)
);
},
{
ref = O;
}
);
width = 586;
},
{
layerId = "C0AB487F-B285-4883-B6B5-039B935D5538";
shapes = (
{
closed = 1;
nodes = (
(488,-195,l),
(487,-152,l),
(469,-152,ls),
(364,-152,o),
(304,-89,o),
(306,19,c),
(262,20,l),
(260,-117,o),
(335,-195,o),
(468,-195,cs)
);
},
{
ref = O;
}
);
width = 586;
},
{
layerId = "8BE779D0-3CB0-4E3D-A7BD-4D55C0B0047B";
shapes = (
{
closed = 1;
nodes = (
(488.817,-195,l),
(487,-115.235,l),
(450.209,-115.235,ls),
(368.085,-115.235,o),
(326.876,-69.392,o),
(328.059,19,c),
(240.758,20,l),
(237.941,-122.719,o),
(308.856,-195,o),
(448.392,-195,cs)
);
},
{
alignment = -1;
ref = O;
}
);
width = 586;
}
);
unicode = 81;
},
{
glyphname = R;
layers = (
{
layerId = "1B7E510F-672B-4CC4-A590-B1F79D1107BB";
shapes = (
{
closed = 1;
nodes = (
(182,254,l),
(307,254,ls),
(456,254,o),
(545,339,o),
(545,489,cs),
(545,619,o),
(461,693,o),
(314,693,cs),
(180,693,l),
(190,575,l),
(312,575,ls),
(371,575,o),
(405,540,o),
(405,477,cs),
(405,416,o),
(373,373,o),
(309,373,cs),
(184,373,l)
);
},
{
closed = 1;
nodes = (
(66,0,l),
(194,0,l),
(207,693,l),
(78,693,l)
);
},
{
closed = 1;
nodes = (
(408,0,l),
(561,0,l),
(418,326,l),
(282,326,l)
);
}
);
width = 586;
},
{
layerId = "F9DFE8EC-1309-4B06-A6CE-E9C97F6115FD";
shapes = (
{
closed = 1;
nodes = (
(163,264,l),
(307,264,ls),
(450,264,o),
(536,344,o),
(536,489,cs),
(536,619,o),
(456,693,o),
(314,693,cs),
(161,693,l),
(171,601,l),
(313,601,ls),
(389,601,o),
(433,556,o),
(433,477,cs),
(433,399,o),
(385,356,o),
(308,356,cs),
(165,356,l)
);
},
{
closed = 1;
nodes = (
(74,0,l),
(175,0,l),
(188,693,l),
(86,693,l)
);
},
{
closed = 1;
nodes = (
(436,0,l),
(553,0,l),
(394,326,l),
(286,326,l)
);
}
);
width = 586;
},
{
layerId = "C0AB487F-B285-4883-B6B5-039B935D5538";
shapes = (
{
closed = 1;
nodes = (
(118,288,l),
(327,288,ls),
(459,288,o),
(525,372,o),
(525,499,cs),
(525,623,o),
(456,693,o),
(334,693,cs),
(115,693,l),
(126,649,l),
(333,649,ls),
(425,649,o),
(478,591,o),
(478,489,cs),
(478,393,o),
(426,333,o),
(327,333,cs),
(118,333,l)
);
},
{
closed = 1;
nodes = (
(86,0,l),
(131,0,l),
(144,693,l),
(98,693,l)
);
},
{
closed = 1;
nodes = (
(487,0,l),
(541,0,l),
(374,326,l),
(320,326,l)
);
}
);
width = 586;
},
{
layerId = "8BE779D0-3CB0-4E3D-A7BD-4D55C0B0047B";
shapes = (
{
closed = 1;
nodes = (
(154.765,268.392,l),
(310.66,268.392,ls),
(451.647,268.392,o),
(533.987,349.124,o),
(533.987,490.83,cs),
(533.987,619.732,o),
(456,693,o),
(317.66,693,cs),
(152.582,693,l),
(162.765,609.784,l),
(316.66,609.784,ls),
(395.588,609.784,o),
(441.235,562.405,o),
(441.235,479.196,cs),
(441.235,397.902,o),
(392.503,351.791,o),
(311.477,351.791,cs),
(156.399,351.791,l)
);
},
{
closed = 1;
nodes = (
(76.196,0,l),
(166.948,0,l),
(179.948,693,l),
(88.196,693,l)
);
},
{
closed = 1;
nodes = (
(445.333,0,l),
(550.804,0,l),
(390.34,326,l),
(292.222,326,l)
);
}
);
width = 586;
}
);
unicode = 82;
},
{
glyphname = S;
layers = (
{
anchors = (
{
name = top;
pos = (313,693);
}
);
layerId = "1B7E510F-672B-4CC4-A590-B1F79D1107BB";
shapes = (
{
closed = 1;
nodes = (
(391,-10,o),
(524,36,o),
(523,186,cs),
(523,262,o),
(465,334,o),
(369,382,cs),
(276,429,ls),
(234,450,o),
(211,478,o),
(212,513,cs),
(213,555,o),
(246,581,o),
(304,581,cs),
(346,581,o),
(398,557,o),
(442,514,c),
(533,616,l),
(474,673,o),
(396,703,o),
(311,703,cs),
(186,703,o),
(78,650,o),
(78,510,cs),
(78,425,o),
(128,354,o),
(224,306,cs),
(323,256,ls),
(359,238,o),
(379,213,o),
(379,182,cs),
(379,138,o),
(338,113,o),
(269,113,cs),
(209,113,o),
(142,130,o),
(71,160,c),
(51,28,l),
(109,4,o),
(185,-10,o),
(264,-10,cs)
);
}
);
width = 586;
},
{
anchors = (
{
name = top;
pos = (301,693);
}
);
layerId = "F9DFE8EC-1309-4B06-A6CE-E9C97F6115FD";
shapes = (
{
closed = 1;
nodes = (
(396,-10,o),
(515,31,o),
(515,183,cs),
(515,275,o),
(456,329,o),
(356,377,cs),
(255,425,ls),
(209,447,o),
(186,471,o),
(186,515,cs),
(186,583,o),
(229,613,o),
(293,613,cs),
(346,613,o),
(398,593,o),
(455,546,c),
(524,616,l),
(459,678,o),
(392,703,o),
(299,703,cs),
(174,703,o),
(86,640,o),
(86,508,cs),
(86,421,o),
(132,366,o),
(224,322,cs),
(343,266,ls),
(383,247,o),
(405,219,o),
(405,177,cs),
(405,96,o),
(336,80,o),
(269,80,cs),
(205,80,o),
(144,96,o),
(73,127,c),
(59,28,l),
(117,3,o),
(185,-10,o),
(264,-10,cs)
);
}
);
width = 586;
},
{
anchors = (
{
name = top;
pos = (306,693);
}
);
layerId = "C0AB487F-B285-4883-B6B5-039B935D5538";
shapes = (
{
closed = 1;
nodes = (
(383,-10,o),
(503,22,o),
(503,163,cs),
(503,234,o),
(466,292,o),
(392,331,cs),
(220,420,ls),
(171,446,o),
(145,480,o),
(145,530,cs),
(145,629,o),
(214,659,o),
(303,659,cs),
(363,659,o),
(422,636,o),
(482,590,c),
(514,622,l),
(458,677,o),
(389,703,o),
(304,703,cs),
(185,703,o),
(98,659,o),
(98,529,cs),
(98,462,o),
(132,416,o),
(196,381,cs),
(381,282,ls),
(432,255,o),
(456,215,o),
(456,163,cs),
(456,57,o),
(361,34,o),
(273,34,cs),
(210,34,o),
(144,47,o),
(78,71,c),
(71,23,l),
(128,1,o),
(192,-10,o),
(264,-10,cs)
);
}
);
width = 586;
},
{
anchors = (
{
name = top;
pos = (301.915,693);
}
);
layerId = "8BE779D0-3CB0-4E3D-A7BD-4D55C0B0047B";
shapes = (
{
closed = 1;
nodes = (
(393.621,-10,o),
(512.804,29.353,o),
(512.804,179.34,cs),
(512.804,267.497,o),
(457.83,322.229,o),
(362.588,368.582,cs),
(248.595,424.085,ls),
(202.046,446.817,o),
(178.497,472.647,o),
(178.497,517.745,cs),
(178.497,591.418,o),
(226.255,621.418,o),
(294.83,621.418,cs),
(349.111,621.418,o),
(402.392,600.869,o),
(459.941,554.052,c),
(522.17,617.098,l),
(458.817,677.817,o),
(391.451,703,o),
(299.915,703,cs),
(176.013,703,o),
(88.196,643.477,o),
(88.196,511.843,cs),
(88.196,428.503,o),
(132,375.15,o),
(218.876,332.797,cs),
(349.954,268.928,ls),
(391.967,248.464,o),
(414.333,218.268,o),
(414.333,174.438,cs),
(414.333,88.863,o),
(340.575,71.582,o),
(269.732,71.582,cs),
(205.915,71.582,o),
(144,87.033,o),
(73.915,116.752,c),
(61.196,27.085,l),
(119.013,2.634,o),
(186.281,-10,o),
(264,-10,cs)
);
}
);
width = 586;
}
);
unicode = 83;
},
{
glyphname = Germandbls;
layers = (
{
layerId = "1B7E510F-672B-4CC4-A590-B1F79D1107BB";
shapes = (
{
closed = 1;
nodes = (
(54,0,l),
(183,0,l),
(191,454,ls),
(192,542,o),
(232,581,o),
(324,580,cs),
(370,580,o),
(414,561,o),
(458,521,c),
(552,620,l),
(487,676,o),
(413,703,o),
(327,703,cs),
(144,703,o),
(65,629,o),
(62,454,cs)
);
},
{
closed = 1;
nodes = (
(466,-10,o),
(571,65,o),
(571,223,cs),
(571,333,o),
(503,408,o),
(384,428,c),
(430,393,l),
(553,620,l),
(405,590,l),
(267,335,l),
(352,311,ls),
(405,296,o),
(435,259,o),
(435,213,cs),
(435,146,o),
(391,114,o),
(327,114,cs),
(296,114,o),
(262,117,o),
(233,123,c),
(218,1,l),
(243,-5,o),
(278,-10,o),
(316,-10,cs)
);
}
);
width = 586;
},
{
layerId = "F9DFE8EC-1309-4B06-A6CE-E9C97F6115FD";
shapes = (
{
closed = 1;
nodes = (
(63,0,l),
(164,0,l),
(172,454,ls),
(174,563,o),
(219,611,o),
(325,610,cs),
(370,610,o),
(414,591,o),
(459,552,c),
(544,620,l),
(481,676,o),
(410,703,o),
(327,703,cs),
(150,703,o),
(73,629,o),
(70,454,cs)
);
},
{
closed = 1;
nodes = (
(465,-10,o),
(563,69,o),
(563,223,cs),
(563,333,o),
(498,408,o),
(384,428,c),
(402,409,l),
(544,620,l),
(434,620,l),
(267,368,l),
(352,344,ls),
(420,324,o),
(458,275,o),
(458,213,cs),
(458,131,o),
(408,84,o),
(326,84,cs),
(296,84,o),
(262,87,o),
(232,93,c),
(218,1,l),
(243,-5,o),
(278,-10,o),
(316,-10,cs)
);
}
);
width = 586;
},
{
layerId = "C0AB487F-B285-4883-B6B5-039B935D5538";
shapes = (
{
closed = 1;
nodes = (
(75,0,l),
(121,0,l),
(129,454,ls),
(131,598,o),
(190,660,o),
(326,659,cs),
(390,659,o),
(440,639,o),
(494,591,c),
(531,620,l),
(475,678,o),
(414,703,o),
(327,703,cs),
(159,703,o),
(86,629,o),
(83,454,cs)
);
},
{
closed = 1;
nodes = (
(464,-10,o),
(550,62,o),
(550,207,cs),
(550,304,o),
(490,380,o),
(384,418,c),
(382,399,l),
(532,620,l),
(488,635,l),
(322,388,l),
(367,373,ls),
(454,345,o),
(503,284,o),
(503,206,cs),
(503,95,o),
(434,34,o),
(325,34,cs),
(295,34,o),
(261,38,o),
(231,44,c),
(219,1,l),
(246,-5,o),
(286,-10,o),
(324,-10,cs)
);
}
);
width = 586;
},
{
layerId = "8BE779D0-3CB0-4E3D-A7BD-4D55C0B0047B";
shapes = (
{
closed = 1;
nodes = (
(65.196,0,l),
(156.131,0,l),
(164.131,454,ls),
(166.131,569.405,o),
(213.693,619.967,o),
(325.183,618.967,cs),
(373.66,618.967,o),
(418.758,599.784,o),
(465.405,559.137,c),
(541.621,620,l),
(479.902,676.366,o),
(410.732,703,o),
(327,703,cs),
(151.647,703,o),
(75.379,629,o),
(72.379,454,cs)
);
},
{
closed = 1;
nodes = (
(464.817,-10,o),
(560.621,67.719,o),
(560.621,220.072,cs),
(560.621,327.693,o),
(496.536,402.876,o),
(384,426.17,c),
(398.34,407.17,l),
(541.804,620,l),
(443.882,622.745,l),
(277.065,371.66,l),
(354.745,349.307,ls),
(426.222,327.843,o),
(466.235,276.647,o),
(466.235,211.719,cs),
(466.235,124.412,o),
(412.758,74.85,o),
(325.817,74.85,cs),
(295.817,74.85,o),
(261.817,78.033,o),
(231.817,84.033,c),
(218.183,1,l),
(243.549,-5,o),
(279.464,-10,o),
(317.464,-10,cs)
);
}
);
width = 586;
}
);
unicode = 7838;
},
{
glyphname = T;
layers = (
{
layerId = "1B7E510F-672B-4CC4-A590-B1F79D1107BB";
shapes = (
{
closed = 1;
nodes = (
(224,0,l),
(353,0,l),
(365,693,l),
(236,693,l)
);
},
{
closed = 1;
nodes = (
(37,575,l),
(562,575,l),
(562,693,l),
(37,693,l)
);
}
);
width = 586;
},
{
layerId = "F9DFE8EC-1309-4B06-A6CE-E9C97F6115FD";
shapes = (
{
closed = 1;
nodes = (
(238,0,l),
(339,0,l),
(351,693,l),
(250,693,l)
);
},
{
closed = 1;
nodes = (
(46,601,l),
(554,601,l),
(554,693,l),
(46,693,l)
);
}
);
width = 586;
},
{
layerId = "C0AB487F-B285-4883-B6B5-039B935D5538";
shapes = (
{
closed = 1;
nodes = (
(265,0,l),
(311,0,l),
(324,693,l),
(278,693,l)
);
},
{
closed = 1;
nodes = (
(58,649,l),
(542,649,l),
(542,693,l),
(58,693,l)
);
}
);
width = 586;
},
{
layerId = "8BE779D0-3CB0-4E3D-A7BD-4D55C0B0047B";
shapes = (
{
closed = 1;
nodes = (
(242.941,0,l),
(333.876,0,l),
(346.059,693,l),
(255.124,693,l)
);
},
{
closed = 1;
nodes = (
(48.196,609.784,l),
(551.804,609.784,l),
(551.804,693,l),
(48.196,693,l)
);
}
);
width = 586;
}
);
unicode = 84;
},
{
glyphname = U;
layers = (
{
anchors = (
{
name = top;
pos = (303,693);
}
);
layerId = "1B7E510F-672B-4CC4-A590-B1F79D1107BB";
shapes = (
{
closed = 1;
nodes = (
(440,-10,o),
(522,68,o),
(525,223,cs),
(534,693,l),
(405,693,l),
(396,223,ls),
(395,151,o),
(359,114,o),
(290,114,cs),
(218,114,o),
(187,151,o),
(188,223,cs),
(197,693,l),
(68,693,l),
(59,223,ls),
(56,68,o),
(132,-10,o),
(286,-10,cs)
);
}
);
width = 586;
},
{
anchors = (
{
name = top;
pos = (303,693);
}
);
layerId = "F9DFE8EC-1309-4B06-A6CE-E9C97F6115FD";
shapes = (
{
closed = 1;
nodes = (
(434,-10,o),
(514,68,o),
(517,223,cs),
(525,693,l),
(424,693,l),
(415,223,ls),
(413,130,o),
(372,83,o),
(290,83,cs),
(205,83,o),
(167,130,o),
(169,223,cs),
(178,693,l),
(76,693,l),
(68,223,ls),
(65,68,o),
(138,-10,o),
(286,-10,cs)
);
}
);
width = 586;
},
{
anchors = (
{
name = top;
pos = (303,693);
}
);
layerId = "C0AB487F-B285-4883-B6B5-039B935D5538";
shapes = (
{
closed = 1;
nodes = (
(427,-10,o),
(502,68,o),
(505,223,cs),
(513,693,l),
(468,693,l),
(459,223,ls),
(457,98,o),
(399,34,o),
(289,34,cs),
(173,34,o),
(123,98,o),
(125,223,cs),
(134,693,l),
(88,693,l),
(79,223,ls),
(76,68,o),
(145,-10,o),
(286,-10,cs)
);
}
);
width = 586;
},
{
anchors = (
{
name = top;
pos = (303,693);
}
);
layerId = "8BE779D0-3CB0-4E3D-A7BD-4D55C0B0047B";
shapes = (
{
closed = 1;
nodes = (
(432.719,-10,o),
(511.804,68,o),
(514.804,223,cs),
(522.804,693,l),
(432.052,693,l),
(423.052,223,ls),
(421.052,124.144,o),
(376.941,74.033,o),
(289.817,74.033,cs),
(199.144,74.033,o),
(158.948,124.144,o),
(160.948,223,cs),
(169.948,693,l),
(78.196,693,l),
(70.013,223,ls),
(67.013,68,o),
(139.281,-10,o),
(286,-10,cs)
);
}
);
width = 586;
}
);
unicode = 85;
},
{
glyphname = Upsilonafrican;
layers = (
{
layerId = "1B7E510F-672B-4CC4-A590-B1F79D1107BB";
shapes = (
{
closed = 1;
nodes = (
(159,604,l),
(159,559,l),
(55,494,o),
(28,402,o),
(28,284,cs),
(28,97,o),
(122,-10,o),
(287,-10,cs),
(479,-10,o),
(556,131,o),
(556,307,cs),
(556,448,o),
(512,514,o),
(447,557,c),
(447,600,l),
(327,575,l),
(380,551,o),
(422,471,o),
(422,331,cs),
(422,245,o),
(401,113,o),
(289,113,cs),
(209,113,o),
(164,184,o),
(164,310,cs),
(164,398,o),
(185,536,o),
(279,575,c)
);
},
{
closed = 1;
nodes = (
(47,693,l),
(47,575,l),
(279,575,l),
(279,693,l)
);
},
{
closed = 1;
nodes = (
(327,693,l),
(327,575,l),
(548,575,l),
(548,693,l)
);
}
);
width = 586;
},
{
layerId = "F9DFE8EC-1309-4B06-A6CE-E9C97F6115FD";
shapes = (
{
closed = 1;
nodes = (
(176,631,l),
(175,594,l),
(56,555,o),
(36,408,o),
(36,301,cs),
(36,103,o),
(127,-10,o),
(287,-10,cs),
(485,-10,o),
(548,157,o),
(548,329,cs),
(548,480,o),
(509,568,o),
(431,593,c),
(432,627,l),
(343,603,l),
(412,577,o),
(446,487,o),
(446,332,cs),
(446,228,o),
(422,80,o),
(288,80,cs),
(193,80,o),
(139,161,o),
(139,302,cs),
(139,401,o),
(154,562,o),
(263,603,c)
);
},
{
closed = 1;
nodes = (
(55,693,l),
(55,603,l),
(263,603,l),
(263,693,l)
);
},
{
closed = 1;
nodes = (
(343,693,l),
(343,603,l),
(540,603,l),
(540,693,l)
);
}
);
width = 586;
},
{
layerId = "C0AB487F-B285-4883-B6B5-039B935D5538";
shapes = (
{
closed = 1;
nodes = (
(177,668,l),
(176,645,l),
(67,575,o),
(48,426,o),
(48,308,cs),
(48,99,o),
(130,-10,o),
(287,-10,cs),
(491,-10,o),
(537,171,o),
(537,341,cs),
(537,516,o),
(493,603,o),
(432,645,c),
(432,665,l),
(344,649,l),
(441,611,o),
(490,507,o),
(490,338,cs),
(490,201,o),
(457,34,o),
(288,34,cs),
(161,34,o),
(95,128,o),
(95,309,cs),
(95,443,o),
(126,594,o),
(264,649,c)
);
},
{
closed = 1;
nodes = (
(68,693,l),
(68,649,l),
(264,649,l),
(264,693,l)
);
},
{
closed = 1;
nodes = (
(344,693,l),
(344,649,l),
(529,649,l),
(529,693,l)
);
}
);
width = 586;
},
{
layerId = "8BE779D0-3CB0-4E3D-A7BD-4D55C0B0047B";
shapes = (
{
closed = 1;
nodes = (
(176.183,637.771,l),
(175.183,603.333,l),
(58.013,558.66,o),
(38.196,411.294,o),
(38.196,302.281,cs),
(38.196,102.268,o),
(127.549,-10,o),
(287,-10,cs),
(486.098,-10,o),
(545.987,159.562,o),
(545.987,331.196,cs),
(545.987,486.588,o),
(506.072,574.405,o),
(431.183,602.516,c),
(432,633.954,l),
(343.183,611.418,l),
(417.307,583.222,o),
(454.052,490.66,o),
(454.052,333.098,cs),
(454.052,223.059,o),
(428.405,71.582,o),
(288,71.582,cs),
(187.144,71.582,o),
(130.948,154.961,o),
(130.948,303.281,cs),
(130.948,408.686,o),
(148.876,567.856,o),
(263.183,611.418,c)
);
},
{
closed = 1;
nodes = (
(57.379,693,l),
(57.379,611.418,l),
(263.183,611.418,l),
(263.183,693,l)
);
},
{
closed = 1;
nodes = (
(343.183,693,l),
(343.183,611.418,l),
(537.987,611.418,l),
(537.987,693,l)
);
}
);
width = 586;
}
);
unicode = 433;
},
{
glyphname = V;
layers = (
{
layerId = "1B7E510F-672B-4CC4-A590-B1F79D1107BB";
shapes = (
{
closed = 1;
nodes = (
(188,0,l),
(389,0,l),
(580,693,l),
(447,693,l),
(295,116,l),
(286,116,l),
(155,693,l),
(21,693,l)
);
}
);
width = 586;
},
{
layerId = "F9DFE8EC-1309-4B06-A6CE-E9C97F6115FD";
shapes = (
{
closed = 1;
nodes = (
(213,0,l),
(364,0,l),
(572,693,l),
(467,693,l),
(294,83,l),
(285,83,l),
(134,693,l),
(30,693,l)
);
}
);
width = 586;
},
{
layerId = "C0AB487F-B285-4883-B6B5-039B935D5538";
shapes = (
{
closed = 1;
nodes = (
(251,0,l),
(326,0,l),
(560,693,l),
(511,693,l),
(292,38,l),
(287,38,l),
(91,693,l),
(41,693,l)
);
}
);
width = 586;
},
{
layerId = "8BE779D0-3CB0-4E3D-A7BD-4D55C0B0047B";
shapes = (
{
closed = 1;
nodes = (
(219.954,0,l),
(357.046,0,l),
(569.804,693,l),
(475.052,693,l),
(293.634,74.765,l),
(285.366,74.765,l),
(126.131,693,l),
(32.013,693,l)
);
}
);
width = 586;
}
);
unicode = 86;
},
{
glyphname = Vturned;
layers = (
{
layerId = "1B7E510F-672B-4CC4-A590-B1F79D1107BB";
shapes = (
{
closed = 1;
nodes = (
(14,0,l),
(154,0,l),
(289,524,l),
(297,524,l),
(432,0,l),
(572,0,l),
(372,693,l),
(214,693,l)
);
}
);
width = 586;
},
{
layerId = "F9DFE8EC-1309-4B06-A6CE-E9C97F6115FD";
shapes = (
{
closed = 1;
nodes = (
(22,0,l),
(129,0,l),
(289,609,l),
(297,609,l),
(457,0,l),
(564,0,l),
(364,693,l),
(222,693,l)
);
}
);
width = 586;
},
{
layerId = "C0AB487F-B285-4883-B6B5-039B935D5538";
shapes = (
{
closed = 1;
nodes = (
(34,0,l),
(83,0,l),
(291,651,l),
(295,651,l),
(503,0,l),
(552,0,l),
(327,693,l),
(259,693,l)
);
}
);
width = 586;
},
{
layerId = "8BE779D0-3CB0-4E3D-A7BD-4D55C0B0047B";
shapes = (
{
closed = 1;
nodes = (
(24.196,0,l),
(120.582,0,l),
(289.366,616.686,l),
(296.634,616.686,l),
(465.418,0,l),
(561.804,0,l),
(357.229,693,l),
(228.771,693,l)
);
}
);
width = 586;
}
);
unicode = 581;
},
{
glyphname = W;
layers = (
{
layerId = "1B7E510F-672B-4CC4-A590-B1F79D1107BB";
shapes = (
{
closed = 1;
nodes = (
(71,0,l),
(246,0,l),
(292,384,l),
(312,384,l),
(355,518,l),
(241,518,l),
(182,115,l),
(168,115,l),
(136,693,l),
(9,693,l)
);
},
{
closed = 1;
nodes = (
(330,0,l),
(506,0,l),
(592,693,l),
(465,693,l),
(413,115,l),
(399,115,l),
(355,518,l),
(241,518,l),
(279,384,l),
(298,384,l)
);
}
);
width = 586;
},
{
layerId = "F9DFE8EC-1309-4B06-A6CE-E9C97F6115FD";
shapes = (
{
closed = 1;
nodes = (
(83,0,l),
(234,0,l),
(293,421,l),
(312,421,l),
(347,518,l),
(249,518,l),
(177,78,l),
(168,78,l),
(120,693,l),
(17,693,l)
);
},
{
closed = 1;
nodes = (
(343,0,l),
(494,0,l),
(584,693,l),
(481,693,l),
(412,78,l),
(402,78,l),
(347,518,l),
(249,518,l),
(279,421,l),
(299,421,l)
);
}
);
width = 586;
},
{
layerId = "C0AB487F-B285-4883-B6B5-039B935D5538";
shapes = (
{
closed = 1;
nodes = (
(119,0,l),
(205,0,l),
(294,483,l),
(314,483,l),
(339,518,l),
(256,518,l),
(167,39,l),
(157,39,l),
(76,693,l),
(29,693,l)
);
},
{
closed = 1;
nodes = (
(372,0,l),
(457,0,l),
(572,693,l),
(525,693,l),
(421,39,l),
(411,39,l),
(339,518,l),
(256,518,l),
(280,483,l),
(300,483,l)
);
}
);
width = 586;
},
{
layerId = "8BE779D0-3CB0-4E3D-A7BD-4D55C0B0047B";
shapes = (
{
closed = 1;
nodes = (
(89.588,0,l),
(228.693,0,l),
(293.183,432.346,l),
(312.366,432.346,l),
(345.536,518,l),
(250.281,518,l),
(175.17,70.863,l),
(165.987,70.863,l),
(111.948,693,l),
(19.196,693,l)
);
},
{
closed = 1;
nodes = (
(348.307,0,l),
(487.229,0,l),
(581.804,693,l),
(489.052,693,l),
(413.647,70.863,l),
(403.647,70.863,l),
(345.536,518,l),
(250.281,518,l),
(279.183,432.346,l),
(299.183,432.346,l)
);
}
);
width = 586;
}
);
unicode = 87;
},
{
glyphname = X;
layers = (
{
layerId = "1B7E510F-672B-4CC4-A590-B1F79D1107BB";
shapes = (
{
closed = 1;
nodes = (
(405,0,l),
(566,0,l),
(339,373,l),
(184,693,l),
(23,693,l),
(257,302,l)
);
},
{
closed = 1;
nodes = (
(11,0,l),
(172,0,l),
(331,302,l),
(578,693,l),
(417,693,l),
(251,373,l)
);
}
);
width = 586;
},
{
layerId = "F9DFE8EC-1309-4B06-A6CE-E9C97F6115FD";
shapes = (
{
closed = 1;
nodes = (
(437,0,l),
(550,0,l),
(330,364,l),
(152,693,l),
(39,693,l),
(265,311,l)
);
},
{
closed = 1;
nodes = (
(27,0,l),
(139,0,l),
(323,311,l),
(562,693,l),
(450,693,l),
(259,364,l)
);
}
);
width = 586;
},
{
layerId = "C0AB487F-B285-4883-B6B5-039B935D5538";
shapes = (
{
closed = 1;
nodes = (
(484,0,l),
(538,0,l),
(315,349,l),
(105,693,l),
(51,693,l),
(280,326,l)
);
},
{
closed = 1;
nodes = (
(39,0,l),
(93,0,l),
(308,326,l),
(550,693,l),
(496,693,l),
(274,349,l)
);
}
);
width = 586;
},
{
layerId = "8BE779D0-3CB0-4E3D-A7BD-4D55C0B0047B";
shapes = (
{
closed = 1;
nodes = (
(445.601,0,l),
(547.804,0,l),
(327.255,361.255,l),
(143.399,693,l),
(41.196,693,l),
(267.745,313.745,l)
);
},
{
closed = 1;
nodes = (
(29.196,0,l),
(130.582,0,l),
(320.255,313.745,l),
(559.804,693,l),
(458.418,693,l),
(261.745,361.255,l)
);
}
);
width = 586;
}
);
unicode = 88;
},
{
glyphname = Y;
layers = (
{
anchors = (
{
name = top;
pos = (301,693);
}
);
layerId = "1B7E510F-672B-4CC4-A590-B1F79D1107BB";
shapes = (
{
closed = 1;
nodes = (
(235,207,l),
(349,207,l),
(590,693,l),
(449,693,l),
(302,371,l),
(294,371,l),
(159,693,l),
(12,693,l)
);
},
{
closed = 1;
nodes = (
(224,0,l),
(353,0,l),
(359,342,l),
(230,342,l)
);
}
);
width = 586;
},
{
anchors = (
{
name = top;
pos = (301,693);
}
);
layerId = "F9DFE8EC-1309-4B06-A6CE-E9C97F6115FD";
shapes = (
{
closed = 1;
nodes = (
(251,231,l),
(334,231,l),
(581,693,l),
(477,693,l),
(302,347,l),
(293,347,l),
(130,693,l),
(20,693,l)
);
},
{
closed = 1;
nodes = (
(238,0,l),
(339,0,l),
(345,342,l),
(244,342,l)
);
}
);
width = 586;
},
{
anchors = (
{
name = top;
pos = (301,693);
}
);
layerId = "C0AB487F-B285-4883-B6B5-039B935D5538";
shapes = (
{
closed = 1;
nodes = (
(282,227,l),
(307,227,l),
(572,693,l),
(518,693,l),
(298,295,l),
(294,295,l),
(87,693,l),
(34,693,l)
);
},
{
closed = 1;
nodes = (
(265,0,l),
(311,0,l),
(316,288,l),
(271,288,l)
);
}
);
width = 586;
},
{
anchors = (
{
name = top;
pos = (301,693);
}
);
layerId = "8BE779D0-3CB0-4E3D-A7BD-4D55C0B0047B";
shapes = (
{
closed = 1;
nodes = (
(256.673,230.268,l),
(329.059,230.268,l),
(579.353,693,l),
(484.503,693,l),
(301.268,337.484,l),
(293.183,337.484,l),
(122.131,693,l),
(22.562,693,l)
);
},
{
closed = 1;
nodes = (
(242.941,0,l),
(333.876,0,l),
(339.693,332.118,l),
(248.941,332.118,l)
);
}
);
width = 586;
}
);
unicode = 89;
},
{
glyphname = Z;
layers = (
{
anchors = (
{
name = top;
pos = (301,693);
}
);
layerId = "1B7E510F-672B-4CC4-A590-B1F79D1107BB";
shapes = (
{
closed = 1;
nodes = (
(145,33,l),
(524,575,l),
(439,665,l),
(60,119,l)
);
},
{
closed = 1;
nodes = (
(60,0,l),
(525,0,l),
(525,119,l),
(60,119,l)
);
},
{
closed = 1;
nodes = (
(69,575,l),
(524,575,l),
(524,693,l),
(69,693,l)
);
}
);
width = 586;
},
{
anchors = (
{
name = top;
pos = (301,693);
}
);
layerId = "F9DFE8EC-1309-4B06-A6CE-E9C97F6115FD";
shapes = (
{
closed = 1;
nodes = (
(143,33,l),
(519,601,l),
(446,665,l),
(70,93,l)
);
},
{
closed = 1;
nodes = (
(70,0,l),
(519,0,l),
(519,93,l),
(70,93,l)
);
},
{
closed = 1;
nodes = (
(80,601,l),
(519,601,l),
(519,693,l),
(80,693,l)
);
}
);
width = 586;
},
{
anchors = (
{
name = top;
pos = (301,693);
}
);
layerId = "C0AB487F-B285-4883-B6B5-039B935D5538";
shapes = (
{
closed = 1;
nodes = (
(116,19,l),
(508,649,l),
(473,675,l),
(81,44,l)
);
},
{
closed = 1;
nodes = (
(81,0,l),
(507,0,l),
(507,44,l),
(81,44,l)
);
},
{
closed = 1;
nodes = (
(92,649,l),
(508,649,l),
(508,693,l),
(92,693,l)
);
}
);
width = 586;
},
{
anchors = (
{
name = top;
pos = (301,693);
}
);
layerId = "8BE779D0-3CB0-4E3D-A7BD-4D55C0B0047B";
shapes = (
{
closed = 1;
nodes = (
(138.059,30.438,l),
(516.987,609.784,l),
(450.941,666.83,l),
(72.013,84.033,l)
);
},
{
closed = 1;
nodes = (
(72.013,0,l),
(516.804,0,l),
(516.804,84.033,l),
(72.013,84.033,l)
);
},
{
closed = 1;
nodes = (
(82.196,609.784,l),
(516.987,609.784,l),
(516.987,693,l),
(82.196,693,l)
);
}
);
width = 586;
}
);
unicode = 90;
},
{
export = 0;
glyphname = A.half;
layers = (
{
layerId = "1B7E510F-672B-4CC4-A590-B1F79D1107BB";
shapes = (
{
closed = 1;
nodes = (
(14,0,l),
(92,0,l),
(202,239,l),
(208,239,l),
(318,0,l),
(396,0,l),
(243,312,l),
(167,312,l)
);
},
{
closed = 1;
nodes = (
(81,52,l),
(327,52,l),
(327,116,l),
(81,116,l)
);
}
);
width = 410;
},
{
layerId = "F9DFE8EC-1309-4B06-A6CE-E9C97F6115FD";
shapes = (
{
closed = 1;
nodes = (
(18,0,l),
(81,0,l),
(203,258,l),
(207,258,l),
(330,0,l),
(393,0,l),
(235,312,l),
(175,312,l)
);
},
{
closed = 1;
nodes = (
(81,55,l),
(327,55,l),
(327,108,l),
(81,108,l)
);
}
);
width = 410;
},
{
layerId = "C0AB487F-B285-4883-B6B5-039B935D5538";
shapes = (
{
closed = 1;
nodes = (
(21,0,l),
(70,0,l),
(203,275,l),
(208,275,l),
(340,0,l),
(390,0,l),
(237,312,l),
(173,312,l)
);
},
{
closed = 1;
nodes = (
(81,63,l),
(327,63,l),
(327,106,l),
(81,106,l)
);
}
);
width = 411;
},
{
layerId = "8BE779D0-3CB0-4E3D-A7BD-4D55C0B0047B";
shapes = (
{
closed = 1;
nodes = (
(18.549,0,l),
(78.987,0,l),
(203,261.111,l),
(207.183,261.111,l),
(331.83,0,l),
(392.451,0,l),
(235.366,312,l),
(174.634,312,l)
);
},
{
closed = 1;
nodes = (
(81,56.464,l),
(327,56.464,l),
(327,107.634,l),
(81,107.634,l)
);
}
);
width = 410.18301;
}
);
},
{
export = 0;
glyphname = B.half;
layers = (
{
layerId = "1B7E510F-672B-4CC4-A590-B1F79D1107BB";
shapes = (
{
closed = 1;
nodes = (
(123,0,l),
(261,0,ls),
(342,0,o),
(389,28,o),
(389,77,cs),
(389,124,o),
(340,150,o),
(255,150,cs),
(116,150,l),
(124,125,l),
(259,125,ls),
(292,125,o),
(311,115,o),
(311,97,cs),
(311,77,o),
(294,66,o),
(264,66,cs),
(123,66,l)
);
},
{
closed = 1;
nodes = (
(53,0,l),
(127,0,l),
(127,312,l),
(53,312,l)
);
},
{
closed = 1;
nodes = (
(97,139,l),
(252,139,l),
(252,172,l),
(97,172,l)
);
},
{
closed = 1;
nodes = (
(123,163,l),
(246,163,ls),
(318,163,o),
(360,188,o),
(360,233,cs),
(360,284,o),
(319,312,o),
(248,312,cs),
(116,312,l),
(124,246,l),
(244,246,ls),
(265,246,o),
(277,237,o),
(277,219,cs),
(277,199,o),
(267,189,o),
(249,189,cs),
(123,189,l)
);
}
);
width = 410;
},
{
layerId = "F9DFE8EC-1309-4B06-A6CE-E9C97F6115FD";
shapes = (
{
closed = 1;
nodes = (
(106,0,l),
(248,0,ls),
(340,0,o),
(385,26,o),
(385,79,cs),
(385,130,o),
(350,155,o),
(280,155,cs),
(99,155,l),
(107,133,l),
(247,133,ls),
(298,133,o),
(324,120,o),
(324,94,cs),
(324,66,o),
(298,53,o),
(246,53,cs),
(106,53,l)
);
},
{
closed = 1;
nodes = (
(57,0,l),
(116,0,l),
(116,312,l),
(57,312,l)
);
},
{
closed = 1;
nodes = (
(101,145,l),
(267,145,l),
(267,178,l),
(101,178,l)
);
},
{
closed = 1;
nodes = (
(106,166,l),
(271,166,ls),
(331,166,o),
(361,188,o),
(361,232,cs),
(361,286,o),
(320,312,o),
(238,312,cs),
(99,312,l),
(107,259,l),
(240,259,ls),
(280,259,o),
(300,248,o),
(300,224,cs),
(300,199,o),
(283,187,o),
(249,187,cs),
(106,187,l)
);
}
);
width = 410;
},
{
layerId = "C0AB487F-B285-4883-B6B5-039B935D5538";
shapes = (
{
closed = 1;
nodes = (
(101,0,l),
(262,0,ls),
(339,0,o),
(383,30,o),
(383,83,cs),
(383,131,o),
(343,159,o),
(274,159,cs),
(94,159,l),
(102,138,l),
(263,138,ls),
(309,138,o),
(335,120,o),
(335,88,cs),
(335,60,o),
(306,43,o),
(254,43,cs),
(101,43,l)
);
},
{
closed = 1;
nodes = (
(60,0,l),
(105,0,l),
(105,312,l),
(60,312,l)
);
},
{
closed = 1;
nodes = (
(90,150,l),
(278,150,l),
(278,169,l),
(90,169,l)
);
},
{
closed = 1;
nodes = (
(101,161,l),
(260,161,ls),
(322,161,o),
(358,187,o),
(358,231,cs),
(358,283,o),
(318,312,o),
(248,312,cs),
(94,312,l),
(102,269,l),
(249,269,ls),
(288,269,o),
(311,254,o),
(311,227,cs),
(311,198,o),
(292,182,o),
(259,182,cs),
(101,182,l)
);
}
);
width = 410;
},
{
layerId = "8BE779D0-3CB0-4E3D-A7BD-4D55C0B0047B";
shapes = (
{
closed = 1;
nodes = (
(105.085,0,l),
(250.562,0,ls),
(339.817,0,o),
(384.634,26.732,o),
(384.634,79.732,cs),
(384.634,130.183,o),
(348.719,155.732,o),
(278.902,155.732,cs),
(98.085,155.732,l),
(106.085,133.915,l),
(249.928,133.915,ls),
(300.013,133.915,o),
(326.013,120,o),
(326.013,92.902,cs),
(326.013,64.902,o),
(299.464,51.17,o),
(247.464,51.17,cs),
(105.085,51.17,l)
);
},
{
closed = 1;
nodes = (
(57.549,0,l),
(113.987,0,l),
(113.987,312,l),
(57.549,312,l)
);
},
{
closed = 1;
nodes = (
(98.987,145.915,l),
(269.013,145.915,l),
(269.013,176.353,l),
(98.987,176.353,l)
);
},
{
closed = 1;
nodes = (
(105.085,165.085,l),
(268.987,165.085,ls),
(329.353,165.085,o),
(360.451,187.817,o),
(360.451,231.817,cs),
(360.451,285.451,o),
(319.634,312,o),
(239.83,312,cs),
(98.085,312,l),
(106.085,260.83,l),
(241.647,260.83,ls),
(281.464,260.83,o),
(302.013,249.098,o),
(302.013,224.549,cs),
(302.013,198.817,o),
(284.647,186.085,o),
(250.83,186.085,cs),
(105.085,186.085,l)
);
}
);
width = 410;
}
);
},
{
export = 0;
glyphname = C.half;
layers = (
{
layerId = "1B7E510F-672B-4CC4-A590-B1F79D1107BB";
shapes = (
{
closed = 1;
nodes = (
(303,-4,o),
(345,0,o),
(385,11,c),
(369,73,l),
(337,65,o),
(303,62,o),
(271,62,cs),
(166,62,o),
(111,94,o),
(111,159,cs),
(111,217,o),
(167,250,o),
(252,250,cs),
(294,250,o),
(332,242,o),
(355,228,c),
(394,287,l),
(366,306,o),
(317,316,o),
(251,316,cs),
(111,316,o),
(32,258,o),
(32,156,cs),
(32,49,o),
(108,-4,o),
(259,-4,cs)
);
}
);
width = 410;
},
{
layerId = "F9DFE8EC-1309-4B06-A6CE-E9C97F6115FD";
shapes = (
{
closed = 1;
nodes = (
(297,-4,o),
(336,0,o),
(374,11,c),
(365,66,l),
(331,56,o),
(297,51,o),
(262,51,cs),
(150,51,o),
(93,87,o),
(93,159,cs),
(93,224,o),
(154,261,o),
(249,261,cs),
(294,261,o),
(336,254,o),
(362,241,c),
(388,288,l),
(358,306,o),
(312,316,o),
(248,316,cs),
(111,316,o),
(32,258,o),
(32,156,cs),
(32,49,o),
(107,-4,o),
(256,-4,cs)
);
}
);
width = 410;
},
{
layerId = "C0AB487F-B285-4883-B6B5-039B935D5538";
shapes = (
{
closed = 1;
nodes = (
(299,-4,o),
(338,0,o),
(377,11,c),
(366,53,l),
(333,44,o),
(297,40,o),
(265,40,cs),
(145,40,o),
(84,79,o),
(84,159,cs),
(84,231,o),
(149,272,o),
(250,272,cs),
(295,272,o),
(337,263,o),
(362,246,c),
(386,287,l),
(359,306,o),
(313,316,o),
(249,316,cs),
(113,316,o),
(36,258,o),
(36,156,cs),
(36,49,o),
(110,-4,o),
(257,-4,cs)
);
}
);
width = 410;
},
{
layerId = "8BE779D0-3CB0-4E3D-A7BD-4D55C0B0047B";
shapes = (
{
closed = 1;
nodes = (
(297.366,-4,o),
(336.366,0,o),
(374.549,11,c),
(365.183,63.621,l),
(331.366,53.804,o),
(297,48.987,o),
(262.549,48.987,cs),
(149.085,48.987,o),
(91.353,85.536,o),
(91.353,159,cs),
(91.353,225.281,o),
(153.085,263.013,o),
(249.183,263.013,cs),
(294.183,263.013,o),
(336.183,255.647,o),
(362,241.915,c),
(387.634,287.817,l),
(358.183,306,o),
(312.183,316,o),
(248.183,316,cs),
(111.366,316,o),
(32.732,258,o),
(32.732,156,cs),
(32.732,49,o),
(107.549,-4,o),
(256.183,-4,cs)
);
}
);
width = 410;
}
);
},
{
export = 0;
glyphname = D.half;
layers = (
{
layerId = "1B7E510F-672B-4CC4-A590-B1F79D1107BB";
shapes = (
{
closed = 1;
nodes = (
(123,0,l),
(221,0,ls),
(337,0,o),
(396,50,o),
(396,152,cs),
(396,259,o),
(337,312,o),
(221,312,cs),
(116,312,l),
(124,246,l),
(221,246,ls),
(285,246,o),
(318,215,o),
(318,152,cs),
(318,95,o),
(285,66,o),
(221,66,cs),
(123,66,l)
);
},
{
closed = 1;
nodes = (
(53,0,l),
(127,0,l),
(127,312,l),
(53,312,l)
);
}
);
width = 410;
},
{
layerId = "F9DFE8EC-1309-4B06-A6CE-E9C97F6115FD";
shapes = (
{
closed = 1;
nodes = (
(111,0,l),
(201,0,ls),
(329,0,o),
(392,50,o),
(392,152,cs),
(392,259,o),
(329,312,o),
(201,312,cs),
(104,312,l),
(112,256,l),
(201,256,ls),
(288,256,o),
(331,221,o),
(331,152,cs),
(331,88,o),
(288,56,o),
(201,56,cs),
(111,56,l)
);
},
{
closed = 1;
nodes = (
(57,0,l),
(116,0,l),
(116,312,l),
(57,312,l)
);
}
);
width = 410;
},
{
layerId = "C0AB487F-B285-4883-B6B5-039B935D5538";
shapes = (
{
closed = 1;
nodes = (
(101,0,l),
(197,0,ls),
(319,0,o),
(390,55,o),
(390,152,cs),
(390,254,o),
(319,312,o),
(197,312,cs),
(94,312,l),
(102,269,l),
(197,269,ls),
(289,269,o),
(342,227,o),
(342,152,cs),
(342,83,o),
(289,43,o),
(197,43,cs),
(101,43,l)
);
},
{
closed = 1;
nodes = (
(60,0,l),
(105,0,l),
(105,312,l),
(60,312,l)
);
}
);
width = 410;
},
{
layerId = "8BE779D0-3CB0-4E3D-A7BD-4D55C0B0047B";
shapes = (
{
closed = 1;
nodes = (
(109.17,0,l),
(200.268,0,ls),
(327.17,0,o),
(391.634,50.915,o),
(391.634,152,cs),
(391.634,258.085,o),
(327.17,312,o),
(200.268,312,cs),
(102.17,312,l),
(110.17,258.379,l),
(200.268,258.379,ls),
(288.183,258.379,o),
(333.013,222.098,o),
(333.013,152,cs),
(333.013,87.085,o),
(288.183,53.621,o),
(200.268,53.621,cs),
(109.17,53.621,l)
);
},
{
closed = 1;
nodes = (
(57.549,0,l),
(113.987,0,l),
(113.987,312,l),
(57.549,312,l)
);
}
);
width = 410;
}
);
},
{
export = 0;
glyphname = E.half;
layers = (
{
layerId = "1B7E510F-672B-4CC4-A590-B1F79D1107BB";
shapes = (
{
closed = 1;
nodes = (
(53,0,l),
(127,0,l),
(127,312,l),
(53,312,l)
);
},
{
closed = 1;
nodes = (
(53,0,l),
(377,0,l),
(377,66,l),
(53,66,l)
);
},
{
closed = 1;
nodes = (
(53,124,l),
(315,124,l),
(315,188,l),
(53,188,l)
);
},
{
closed = 1;
nodes = (
(53,246,l),
(377,246,l),
(377,312,l),
(53,312,l)
);
}
);
width = 410;
},
{
layerId = "F9DFE8EC-1309-4B06-A6CE-E9C97F6115FD";
shapes = (
{
closed = 1;
nodes = (
(57,0,l),
(116,0,l),
(116,312,l),
(57,312,l)
);
},
{
closed = 1;
nodes = (
(57,0,l),
(374,0,l),
(374,53,l),
(57,53,l)
);
},
{
closed = 1;
nodes = (
(57,129,l),
(312,129,l),
(312,183,l),
(57,183,l)
);
},
{
closed = 1;
nodes = (
(57,259,l),
(374,259,l),
(374,312,l),
(57,312,l)
);
}
);
width = 410;
},
{
layerId = "C0AB487F-B285-4883-B6B5-039B935D5538";
shapes = (
{
closed = 1;
nodes = (
(60,0,l),
(105,0,l),
(105,312,l),
(60,312,l)
);
},
{
closed = 1;
nodes = (
(60,0,l),
(371,0,l),
(371,43,l),
(60,43,l)
);
},
{
closed = 1;
nodes = (
(60,135,l),
(310,135,l),
(310,178,l),
(60,178,l)
);
},
{
closed = 1;
nodes = (
(60,269,l),
(371,269,l),
(371,312,l),
(60,312,l)
);
}
);
width = 410;
},
{
layerId = "8BE779D0-3CB0-4E3D-A7BD-4D55C0B0047B";
shapes = (
{
closed = 1;
nodes = (
(57.549,0,l),
(113.987,0,l),
(113.987,312,l),
(57.549,312,l)
);
},
{
closed = 1;
nodes = (
(57.549,0,l),
(373.451,0,l),
(373.451,51.17,l),
(57.549,51.17,l)
);
},
{
closed = 1;
nodes = (
(57.549,130.098,l),
(311.634,130.098,l),
(311.634,182.085,l),
(57.549,182.085,l)
);
},
{
closed = 1;
nodes = (
(57.549,260.83,l),
(373.451,260.83,l),
(373.451,312,l),
(57.549,312,l)
);
}
);
width = 410;
}
);
},
{
export = 0;
glyphname = F.half;
layers = (
{
layerId = "1B7E510F-672B-4CC4-A590-B1F79D1107BB";
shapes = (
{
closed = 1;
nodes = (
(53,0,l),
(127,0,l),
(127,312,l),
(53,312,l)
);
},
{
closed = 1;
nodes = (
(53,109,l),
(314,109,l),
(314,175,l),
(53,175,l)
);
},
{
closed = 1;
nodes = (
(53,246,l),
(377,246,l),
(377,312,l),
(53,312,l)
);
}
);
width = 410;
},
{
layerId = "F9DFE8EC-1309-4B06-A6CE-E9C97F6115FD";
shapes = (
{
closed = 1;
nodes = (
(57,0,l),
(116,0,l),
(116,312,l),
(57,312,l)
);
},
{
closed = 1;
nodes = (
(57,114,l),
(319,114,l),
(319,167,l),
(57,167,l)
);
},
{
closed = 1;
nodes = (
(57,259,l),
(374,259,l),
(374,312,l),
(57,312,l)
);
}
);
width = 410;
},
{
layerId = "C0AB487F-B285-4883-B6B5-039B935D5538";
shapes = (
{
closed = 1;
nodes = (
(60,0,l),
(105,0,l),
(105,312,l),
(60,312,l)
);
},
{
closed = 1;
nodes = (
(60,119,l),
(318,119,l),
(318,162,l),
(60,162,l)
);
},
{
closed = 1;
nodes = (
(60,269,l),
(371,269,l),
(371,312,l),
(60,312,l)
);
}
);
width = 410;
},
{
layerId = "8BE779D0-3CB0-4E3D-A7BD-4D55C0B0047B";
shapes = (
{
closed = 1;
nodes = (
(57.549,0,l),
(113.987,0,l),
(113.987,312,l),
(57.549,312,l)
);
},
{
closed = 1;
nodes = (
(57.549,114.915,l),
(318.817,114.915,l),
(318.817,166.085,l),
(57.549,166.085,l)
);
},
{
closed = 1;
nodes = (
(57.549,260.83,l),
(373.451,260.83,l),
(373.451,312,l),
(57.549,312,l)
);
}
);
width = 410;
}
);
},
{
export = 0;
glyphname = G.half;
layers = (
{
layerId = "1B7E510F-672B-4CC4-A590-B1F79D1107BB";
shapes = (
{
closed = 1;
nodes = (
(313,-4,o),
(365,5,o),
(384,9,c),
(356,70,l),
(334,66,o),
(301,59,o),
(259,59,cs),
(160,58,o),
(111,87,o),
(111,159,cs),
(111,217,o),
(163,250,o),
(252,250,cs),
(295,250,o),
(335,244,o),
(360,233,c),
(395,287,l),
(372,305,o),
(320,316,o),
(248,316,cs),
(111,316,o),
(32,258,o),
(32,156,cs),
(32,45,o),
(104,-4,o),
(250,-4,cs)
);
},
{
closed = 1;
nodes = (
(314,9,l),
(384,9,l),
(384,170,l),
(314,170,l)
);
},
{
closed = 1;
nodes = (
(219,104,l),
(382,104,l),
(382,170,l),
(219,170,l)
);
}
);
width = 410;
},
{
layerId = "F9DFE8EC-1309-4B06-A6CE-E9C97F6115FD";
shapes = (
{
closed = 1;
nodes = (
(308,-4,o),
(358,5,o),
(378,9,c),
(352,60,l),
(330,56,o),
(297,49,o),
(256,49,cs),
(152,49,o),
(93,88,o),
(93,159,cs),
(93,224,o),
(149,261,o),
(249,261,cs),
(295,261,o),
(336,253,o),
(361,240,c),
(389,288,l),
(363,306,o),
(310,316,o),
(245,316,cs),
(110,316,o),
(32,258,o),
(32,156,cs),
(32,53,o),
(110,-4,o),
(248,-4,cs)
);
},
{
closed = 1;
nodes = (
(317,9,l),
(378,9,l),
(378,161,l),
(317,161,l)
);
},
{
closed = 1;
nodes = (
(216,108,l),
(376,108,l),
(376,161,l),
(216,161,l)
);
}
);
width = 411;
},
{
layerId = "C0AB487F-B285-4883-B6B5-039B935D5538";
shapes = (
{
closed = 1;
nodes = (
(308,-4,o),
(357,5,o),
(376,9,c),
(354,49,l),
(333,45,o),
(299,38,o),
(256,38,cs),
(145,38,o),
(84,79,o),
(84,159,cs),
(84,231,o),
(145,272,o),
(250,272,cs),
(295,272,o),
(335,262,o),
(362,246,c),
(385,286,l),
(355,305,o),
(310,316,o),
(246,316,cs),
(112,316,o),
(36,258,o),
(36,156,cs),
(36,50,o),
(110,-4,o),
(248,-4,cs)
);
},
{
closed = 1;
nodes = (
(331,9,l),
(376,9,l),
(376,157,l),
(331,157,l)
);
},
{
closed = 1;
nodes = (
(217,114,l),
(374,114,l),
(374,157,l),
(217,157,l)
);
}
);
width = 410;
},
{
layerId = "8BE779D0-3CB0-4E3D-A7BD-4D55C0B0047B";
shapes = (
{
closed = 1;
nodes = (
(308,-4,o),
(357.817,5,o),
(377.634,9,c),
(352.366,57.987,l),
(330.549,53.987,o),
(297.366,46.987,o),
(256,46.987,cs),
(150.719,46.987,o),
(91.353,86.353,o),
(91.353,159,cs),
(91.353,225.281,o),
(148.268,263.013,o),
(249.183,263.013,cs),
(295,263.013,o),
(335.817,254.647,o),
(361.183,241.098,c),
(388.268,287.634,l),
(361.536,305.817,o),
(310,316,o),
(245.183,316,cs),
(110.366,316,o),
(32.732,258,o),
(32.732,156,cs),
(32.732,52.451,o),
(110,-4,o),
(248,-4,cs)
);
},
{
closed = 1;
nodes = (
(319.562,9,l),
(377.634,9,l),
(377.634,160.268,l),
(319.562,160.268,l)
);
},
{
closed = 1;
nodes = (
(216.183,109.098,l),
(375.634,109.098,l),
(375.634,160.268,l),
(216.183,160.268,l)
);
}
);
width = 410.81699;
}
);
},
{
export = 0;
glyphname = H.half;
layers = (
{
layerId = "1B7E510F-672B-4CC4-A590-B1F79D1107BB";
shapes = (
{
closed = 1;
nodes = (
(290,0,l),
(363,0,l),
(363,312,l),
(290,312,l)
);
},
{
closed = 1;
nodes = (
(46,0,l),
(120,0,l),
(120,312,l),
(46,312,l)
);
},
{
closed = 1;
nodes = (
(61,123,l),
(351,123,l),
(351,188,l),
(61,188,l)
);
}
);
width = 410;
},
{
layerId = "F9DFE8EC-1309-4B06-A6CE-E9C97F6115FD";
shapes = (
{
closed = 1;
nodes = (
(301,0,l),
(360,0,l),
(360,312,l),
(301,312,l)
);
},
{
closed = 1;
nodes = (
(50,0,l),
(109,0,l),
(109,312,l),
(50,312,l)
);
},
{
closed = 1;
nodes = (
(64,129,l),
(347,129,l),
(347,182,l),
(64,182,l)
);
}
);
width = 410;
},
{
layerId = "C0AB487F-B285-4883-B6B5-039B935D5538";
shapes = (
{
closed = 1;
nodes = (
(312,0,l),
(357,0,l),
(357,312,l),
(312,312,l)
);
},
{
closed = 1;
nodes = (
(53,0,l),
(99,0,l),
(99,312,l),
(53,312,l)
);
},
{
closed = 1;
nodes = (
(67,134,l),
(345,134,l),
(345,177,l),
(67,177,l)
);
}
);
width = 410;
},
{
layerId = "8BE779D0-3CB0-4E3D-A7BD-4D55C0B0047B";
shapes = (
{
closed = 1;
nodes = (
(303.013,0,l),
(359.451,0,l),
(359.451,312,l),
(303.013,312,l)
);
},
{
closed = 1;
nodes = (
(50.549,0,l),
(107.17,0,l),
(107.17,312,l),
(50.549,312,l)
);
},
{
closed = 1;
nodes = (
(64.549,129.915,l),
(346.634,129.915,l),
(346.634,181.085,l),
(64.549,181.085,l)
);
}
);
width = 410;
}
);
},
{
export = 0;
glyphname = I.half;
layers = (
{
layerId = "1B7E510F-672B-4CC4-A590-B1F79D1107BB";
shapes = (
{
closed = 1;
nodes = (
(168,0,l),
(242,0,l),
(242,312,l),
(168,312,l)
);
},
{
closed = 1;
nodes = (
(56,0,l),
(354,0,l),
(354,66,l),
(56,66,l)
);
},
{
closed = 1;
nodes = (
(56,247,l),
(354,247,l),
(354,312,l),
(56,312,l)
);
}
);
width = 410;
},
{
layerId = "F9DFE8EC-1309-4B06-A6CE-E9C97F6115FD";
shapes = (
{
closed = 1;
nodes = (
(175,0,l),
(234,0,l),
(234,312,l),
(175,312,l)
);
},
{
closed = 1;
nodes = (
(60,0,l),
(351,0,l),
(351,51,l),
(60,51,l)
);
},
{
closed = 1;
nodes = (
(60,261,l),
(351,261,l),
(351,312,l),
(60,312,l)
);
}
);
width = 410;
},
{
layerId = "C0AB487F-B285-4883-B6B5-039B935D5538";
shapes = (
{
closed = 1;
nodes = (
(182,0,l),
(228,0,l),
(228,312,l),
(182,312,l)
);
},
{
closed = 1;
nodes = (
(63,0,l),
(348,0,l),
(348,43,l),
(63,43,l)
);
},
{
closed = 1;
nodes = (
(63,269,l),
(348,269,l),
(348,312,l),
(63,312,l)
);
}
);
width = 411;
},
{
layerId = "8BE779D0-3CB0-4E3D-A7BD-4D55C0B0047B";
shapes = (
{
closed = 1;
nodes = (
(176.281,0,l),
(232.902,0,l),
(232.902,312,l),
(176.281,312,l)
);
},
{
closed = 1;
nodes = (
(60.549,0,l),
(350.451,0,l),
(350.451,49.536,l),
(60.549,49.536,l)
);
},
{
closed = 1;
nodes = (
(60.549,262.464,l),
(350.451,262.464,l),
(350.451,312,l),
(60.549,312,l)
);
}
);
width = 410.18301;
}
);
},
{
export = 0;
glyphname = K.half;
layers = (
{
layerId = "1B7E510F-672B-4CC4-A590-B1F79D1107BB";
shapes = (
{
closed = 1;
nodes = (
(99,82,l),
(276,82,o),
(378,213,o),
(378,312,c),
(302,312,l),
(302,252,o),
(243,149,o),
(105,149,c)
);
},
{
closed = 1;
nodes = (
(53,0,l),
(127,0,l),
(127,312,l),
(53,312,l)
);
},
{
closed = 1;
nodes = (
(312,0,l),
(402,0,l),
(277,189,l),
(210,158,l)
);
}
);
width = 410;
},
{
layerId = "F9DFE8EC-1309-4B06-A6CE-E9C97F6115FD";
shapes = (
{
closed = 1;
nodes = (
(85,92,l),
(270,92,o),
(375,178,o),
(375,312,c),
(315,312,l),
(315,208,o),
(235,146,o),
(92,146,c)
);
},
{
closed = 1;
nodes = (
(57,0,l),
(116,0,l),
(116,312,l),
(57,312,l)
);
},
{
closed = 1;
nodes = (
(329,0,l),
(398,0,l),
(292,168,l),
(236,153,l)
);
}
);
width = 410;
},
{
layerId = "C0AB487F-B285-4883-B6B5-039B935D5538";
shapes = (
{
closed = 1;
nodes = (
(90,101,l),
(270,101,o),
(373,178,o),
(373,312,c),
(325,312,l),
(325,205,o),
(242,143,o),
(96,143,c)
);
},
{
closed = 1;
nodes = (
(60,0,l),
(105,0,l),
(105,312,l),
(60,312,l)
);
},
{
closed = 1;
nodes = (
(340,0,l),
(396,0,l),
(265,171,l),
(224,150,l)
);
}
);
width = 410;
},
{
layerId = "8BE779D0-3CB0-4E3D-A7BD-4D55C0B0047B";
shapes = (
{
closed = 1;
nodes = (
(85.915,93.647,l),
(270,93.647,o),
(374.634,178,o),
(374.634,312,c),
(316.83,312,l),
(316.83,207.451,o),
(236.281,145.451,o),
(92.732,145.451,c)
);
},
{
closed = 1;
nodes = (
(57.549,0,l),
(113.987,0,l),
(113.987,312,l),
(57.549,312,l)
);
},
{
closed = 1;
nodes = (
(331.013,0,l),
(397.634,0,l),
(287.059,168.549,l),
(233.804,152.451,l)
);
}
);
width = 410;
}
);
},
{
export = 0;
glyphname = L.half;
layers = (
{
layerId = "1B7E510F-672B-4CC4-A590-B1F79D1107BB";
shapes = (
{
closed = 1;
nodes = (
(53,0,l),
(127,0,l),
(127,312,l),
(53,312,l)
);
},
{
closed = 1;
nodes = (
(53,0,l),
(377,0,l),
(377,66,l),
(53,66,l)
);
}
);
width = 410;
},
{
layerId = "F9DFE8EC-1309-4B06-A6CE-E9C97F6115FD";
shapes = (
{
closed = 1;
nodes = (
(57,0,l),
(116,0,l),
(116,312,l),
(57,312,l)
);
},
{
closed = 1;
nodes = (
(57,0,l),
(374,0,l),
(374,53,l),
(57,53,l)
);
}
);
width = 410;
},
{
layerId = "C0AB487F-B285-4883-B6B5-039B935D5538";
shapes = (
{
closed = 1;
nodes = (
(60,0,l),
(105,0,l),
(105,312,l),
(60,312,l)
);
},
{
closed = 1;
nodes = (
(60,0,l),
(371,0,l),
(371,44,l),
(60,44,l)
);
}
);
width = 410;
},
{
layerId = "8BE779D0-3CB0-4E3D-A7BD-4D55C0B0047B";
shapes = (
{
closed = 1;
nodes = (
(57.549,0,l),
(113.987,0,l),
(113.987,312,l),
(57.549,312,l)
);
},
{
closed = 1;
nodes = (
(57.549,0,l),
(373.451,0,l),
(373.451,51.353,l),
(57.549,51.353,l)
);
}
);
width = 410;
}
);
},
{
export = 0;
glyphname = M.half;
layers = (
{
layerId = "1B7E510F-672B-4CC4-A590-B1F79D1107BB";
shapes = (
{
closed = 1;
nodes = (
(193,79,l),
(238,79,l),
(288,244,l),
(308,244,l),
(308,312,l),
(257,312,l),
(208,141,l),
(204,141,l)
);
},
{
closed = 1;
nodes = (
(42,0,l),
(113,0,l),
(113,312,l),
(42,312,l)
);
},
{
closed = 1;
nodes = (
(172,79,l),
(212,79,l),
(205,141,l),
(202,141,l),
(153,312,l),
(102,312,l),
(102,244,l),
(123,244,l)
);
},
{
closed = 1;
nodes = (
(297,0,l),
(368,0,l),
(368,312,l),
(297,312,l)
);
}
);
width = 410;
},
{
layerId = "F9DFE8EC-1309-4B06-A6CE-E9C97F6115FD";
shapes = (
{
closed = 1;
nodes = (
(200,83,l),
(235,83,l),
(303,250,l),
(319,250,l),
(314,312,l),
(273,312,l),
(206,139,l),
(205,139,l)
);
},
{
closed = 1;
nodes = (
(46,0,l),
(102,0,l),
(102,312,l),
(46,312,l)
);
},
{
closed = 1;
nodes = (
(175,83,l),
(212,83,l),
(206,139,l),
(204,139,l),
(137,312,l),
(101,312,l),
(96,250,l),
(107,250,l)
);
},
{
closed = 1;
nodes = (
(308,0,l),
(364,0,l),
(364,312,l),
(308,312,l)
);
}
);
width = 410;
},
{
layerId = "C0AB487F-B285-4883-B6B5-039B935D5538";
shapes = (
{
closed = 1;
nodes = (
(198,101,l),
(229,101,l),
(311,257,l),
(328,257,l),
(328,312,l),
(289,312,l),
(207,151,l),
(205,151,l)
);
},
{
closed = 1;
nodes = (
(49,0,l),
(94,0,l),
(94,312,l),
(49,312,l)
);
},
{
closed = 1;
nodes = (
(181,101,l),
(211,101,l),
(206,151,l),
(204,151,l),
(122,312,l),
(86,312,l),
(86,257,l),
(99,257,l)
);
},
{
closed = 1;
nodes = (
(317,0,l),
(362,0,l),
(362,312,l),
(317,312,l)
);
}
);
width = 411;
},
{
layerId = "8BE779D0-3CB0-4E3D-A7BD-4D55C0B0047B";
shapes = (
{
closed = 1;
nodes = (
(199.634,86.294,l),
(233.902,86.294,l),
(304.464,251.281,l),
(320.647,251.281,l),
(316.562,312,l),
(275.928,312,l),
(206.183,141.196,l),
(205,141.196,l)
);
},
{
closed = 1;
nodes = (
(46.549,0,l),
(100.536,0,l),
(100.536,312,l),
(46.549,312,l)
);
},
{
closed = 1;
nodes = (
(176.098,86.294,l),
(211.817,86.294,l),
(206,141.196,l),
(204,141.196,l),
(134.255,312,l),
(98.255,312,l),
(94.17,251.281,l),
(105.536,251.281,l)
);
},
{
closed = 1;
nodes = (
(309.647,0,l),
(363.634,0,l),
(363.634,312,l),
(309.647,312,l)
);
}
);
width = 410.18301;
}
);
},
{
export = 0;
glyphname = N.half;
layers = (
{
layerId = "1B7E510F-672B-4CC4-A590-B1F79D1107BB";
shapes = (
{
closed = 1;
nodes = (
(267,0,l),
(300,0,l),
(300,94,l),
(272,94,l),
(144,312,l),
(95,312,l),
(95,218,l),
(138,218,l)
);
},
{
closed = 1;
nodes = (
(49,0,l),
(120,0,l),
(120,312,l),
(49,312,l)
);
},
{
closed = 1;
nodes = (
(290,0,l),
(361,0,l),
(361,312,l),
(290,312,l)
);
}
);
width = 410;
},
{
layerId = "F9DFE8EC-1309-4B06-A6CE-E9C97F6115FD";
shapes = (
{
closed = 1;
nodes = (
(265,0,l),
(311,0,l),
(311,61,l),
(291,61,l),
(146,312,l),
(94,312,l),
(94,251,l),
(119,251,l)
);
},
{
closed = 1;
nodes = (
(53,0,l),
(111,0,l),
(111,312,l),
(53,312,l)
);
},
{
closed = 1;
nodes = (
(299,0,l),
(357,0,l),
(357,312,l),
(299,312,l)
);
}
);
width = 410;
},
{
layerId = "C0AB487F-B285-4883-B6B5-039B935D5538";
shapes = (
{
closed = 1;
nodes = (
(290,0,l),
(321,0,l),
(321,54,l),
(306,54,l),
(121,312,l),
(81,312,l),
(81,258,l),
(105,258,l)
);
},
{
closed = 1;
nodes = (
(56,0,l),
(101,0,l),
(101,312,l),
(56,312,l)
);
},
{
closed = 1;
nodes = (
(310,0,l),
(355,0,l),
(355,312,l),
(310,312,l)
);
}
);
width = 411;
},
{
layerId = "8BE779D0-3CB0-4E3D-A7BD-4D55C0B0047B";
shapes = (
{
closed = 1;
nodes = (
(269.575,0,l),
(312.83,0,l),
(312.83,59.719,l),
(293.745,59.719,l),
(141.425,312,l),
(91.621,312,l),
(91.621,252.281,l),
(116.438,252.281,l)
);
},
{
closed = 1;
nodes = (
(53.549,0,l),
(109.17,0,l),
(109.17,312,l),
(53.549,312,l)
);
},
{
closed = 1;
nodes = (
(301.013,0,l),
(356.634,0,l),
(356.634,312,l),
(301.013,312,l)
);
}
);
width = 410.18301;
}
);
},
{
export = 0;
glyphname = O.half;
layers = (
{
layerId = "1B7E510F-672B-4CC4-A590-B1F79D1107BB";
shapes = (
{
closed = 1;
nodes = (
(325,-4,o),
(386,48,o),
(386,154,cs),
(386,262,o),
(325,316,o),
(205,316,cs),
(85,316,o),
(25,262,o),
(25,154,cs),
(25,48,o),
(86,-4,o),
(205,-4,cs)
);
},
{
closed = 1;
nodes = (
(137,63,o),
(103,93,o),
(103,154,cs),
(103,218,o),
(137,250,o),
(205,250,cs),
(273,250,o),
(308,218,o),
(308,154,cs),
(308,93,o),
(273,63,o),
(205,63,cs)
);
}
);
width = 411;
},
{
layerId = "F9DFE8EC-1309-4B06-A6CE-E9C97F6115FD";
shapes = (
{
closed = 1;
nodes = (
(322,-4,o),
(382,48,o),
(382,154,cs),
(382,262,o),
(323,316,o),
(205,316,cs),
(88,316,o),
(28,262,o),
(28,154,cs),
(28,48,o),
(88,-4,o),
(205,-4,cs)
);
},
{
closed = 1;
nodes = (
(128,47,o),
(89,83,o),
(89,154,cs),
(89,227,o),
(128,264,o),
(205,264,cs),
(282,264,o),
(321,227,o),
(321,154,cs),
(321,83,o),
(282,47,o),
(205,47,cs)
);
}
);
width = 411;
},
{
layerId = "C0AB487F-B285-4883-B6B5-039B935D5538";
shapes = (
{
closed = 1;
nodes = (
(320,-4,o),
(379,48,o),
(379,154,cs),
(379,262,o),
(321,316,o),
(205,316,cs),
(89,316,o),
(31,262,o),
(31,154,cs),
(31,48,o),
(89,-4,o),
(205,-4,cs)
);
},
{
closed = 1;
nodes = (
(121,38,o),
(79,76,o),
(79,154,cs),
(79,234,o),
(121,274,o),
(205,274,cs),
(289,274,o),
(332,234,o),
(332,154,cs),
(332,76,o),
(289,38,o),
(205,38,cs)
);
}
);
width = 410;
},
{
layerId = "8BE779D0-3CB0-4E3D-A7BD-4D55C0B0047B";
shapes = (
{
closed = 1;
nodes = (
(321.634,-4,o),
(381.451,48,o),
(381.451,154,cs),
(381.451,262,o),
(322.634,316,o),
(205,316,cs),
(88.183,316,o),
(28.549,262,o),
(28.549,154,cs),
(28.549,48,o),
(88.183,-4,o),
(205,-4,cs)
);
},
{
closed = 1;
nodes = (
(126.719,45.353,o),
(87.17,81.719,o),
(87.17,154,cs),
(87.17,228.281,o),
(126.719,265.83,o),
(205,265.83,cs),
(283.281,265.83,o),
(323.013,228.281,o),
(323.013,154,cs),
(323.013,81.719,o),
(283.281,45.353,o),
(205,45.353,cs)
);
}
);
width = 410.81699;
}
);
},
{
export = 0;
glyphname = P.half;
layers = (
{
layerId = "1B7E510F-672B-4CC4-A590-B1F79D1107BB";
shapes = (
{
closed = 1;
nodes = (
(119,85,l),
(246,85,ls),
(338,85,o),
(384,123,o),
(384,199,cs),
(384,274,o),
(338,312,o),
(246,312,cs),
(120,312,l),
(120,246,l),
(246,246,ls),
(286,246,o),
(306,230,o),
(306,199,cs),
(306,167,o),
(286,151,o),
(246,151,cs),
(119,151,l)
);
},
{
closed = 1;
nodes = (
(53,0,l),
(127,0,l),
(127,312,l),
(53,312,l)
);
}
);
width = 410;
},
{
layerId = "F9DFE8EC-1309-4B06-A6CE-E9C97F6115FD";
shapes = (
{
closed = 1;
nodes = (
(107,91,l),
(237,91,ls),
(333,91,o),
(380,130,o),
(380,208,cs),
(380,278,o),
(333,312,o),
(237,312,cs),
(109,312,l),
(109,259,l),
(237,259,ls),
(291,259,o),
(317,240,o),
(317,203,cs),
(317,164,o),
(291,144,o),
(237,144,cs),
(107,144,l)
);
},
{
closed = 1;
nodes = (
(57,0,l),
(116,0,l),
(116,312,l),
(57,312,l)
);
}
);
width = 410;
},
{
layerId = "C0AB487F-B285-4883-B6B5-039B935D5538";
shapes = (
{
closed = 1;
nodes = (
(97,98,l),
(236,98,ls),
(331,98,o),
(378,134,o),
(378,205,cs),
(378,276,o),
(331,312,o),
(236,312,cs),
(99,312,l),
(99,269,l),
(236,269,ls),
(299,269,o),
(330,248,o),
(330,205,cs),
(330,163,o),
(299,142,o),
(236,142,cs),
(97,142,l)
);
},
{
closed = 1;
nodes = (
(60,0,l),
(105,0,l),
(105,312,l),
(60,312,l)
);
}
);
width = 410;
},
{
layerId = "8BE779D0-3CB0-4E3D-A7BD-4D55C0B0047B";
shapes = (
{
closed = 1;
nodes = (
(105.17,92.281,l),
(236.817,92.281,ls),
(332.634,92.281,o),
(379.634,130.732,o),
(379.634,207.451,cs),
(379.634,277.634,o),
(332.634,312,o),
(236.817,312,cs),
(107.17,312,l),
(107.17,260.83,l),
(236.817,260.83,ls),
(292.464,260.83,o),
(319.379,241.464,o),
(319.379,203.366,cs),
(319.379,163.817,o),
(292.464,143.634,o),
(236.817,143.634,cs),
(105.17,143.634,l)
);
},
{
closed = 1;
nodes = (
(57.549,0,l),
(113.987,0,l),
(113.987,312,l),
(57.549,312,l)
);
}
);
width = 410;
}
);
},
{
export = 0;
glyphname = Q.half;
layers = (
{
layerId = "1B7E510F-672B-4CC4-A590-B1F79D1107BB";
shapes = (
{
closed = 1;
nodes = (
(347,-85,l),
(244,18,l),
(160,18,l),
(243,-85,l)
);
},
{
ref = O.half;
}
);
width = 411;
},
{
layerId = "F9DFE8EC-1309-4B06-A6CE-E9C97F6115FD";
shapes = (
{
closed = 1;
nodes = (
(339,-85,l),
(236,18,l),
(168,18,l),
(251,-85,l)
);
},
{
ref = O.half;
}
);
width = 411;
},
{
layerId = "C0AB487F-B285-4883-B6B5-039B935D5538";
shapes = (
{
closed = 1;
nodes = (
(328,-85,l),
(229,18,l),
(176,18,l),
(263,-85,l)
);
},
{
ref = O.half;
}
);
width = 410;
},
{
layerId = "8BE779D0-3CB0-4E3D-A7BD-4D55C0B0047B";
shapes = (
{
closed = 1;
nodes = (
(336.987,-85,l),
(234.719,18,l),
(169.464,18,l),
(253.196,-85,l)
);
},
{
alignment = -1;
ref = O.half;
}
);
width = 410.81699;
}
);
},
{
export = 0;
glyphname = R.half;
layers = (
{
layerId = "1B7E510F-672B-4CC4-A590-B1F79D1107BB";
shapes = (
{
closed = 1;
nodes = (
(116,98,l),
(252,98,ls),
(330,98,o),
(374,139,o),
(374,208,cs),
(374,274,o),
(330,312,o),
(252,312,cs),
(109,312,l),
(117,246,l),
(252,246,ls),
(280,246,o),
(296,231,o),
(296,204,cs),
(296,179,o),
(280,164,o),
(252,164,cs),
(116,164,l)
);
},
{
closed = 1;
nodes = (
(46,0,l),
(120,0,l),
(120,312,l),
(46,312,l)
);
},
{
closed = 1;
nodes = (
(303,0,l),
(392,0,l),
(277,147,l),
(197,147,l)
);
}
);
width = 410;
},
{
layerId = "F9DFE8EC-1309-4B06-A6CE-E9C97F6115FD";
shapes = (
{
closed = 1;
nodes = (
(104,118,l),
(256,118,ls),
(325,118,o),
(370,159,o),
(370,221,cs),
(370,276,o),
(325,312,o),
(256,312,cs),
(97,312,l),
(105,259,l),
(256,259,ls),
(287,259,o),
(307,242,o),
(307,216,cs),
(307,189,o),
(287,171,o),
(256,171,cs),
(104,171,l)
);
},
{
closed = 1;
nodes = (
(50,0,l),
(109,0,l),
(109,312,l),
(50,312,l)
);
},
{
closed = 1;
nodes = (
(318,0,l),
(388,0,l),
(280,147,l),
(218,147,l)
);
}
);
width = 410;
},
{
layerId = "C0AB487F-B285-4883-B6B5-039B935D5538";
shapes = (
{
closed = 1;
nodes = (
(94,121,l),
(252,121,ls),
(326,121,o),
(368,156,o),
(368,218,cs),
(368,278,o),
(326,312,o),
(252,312,cs),
(87,312,l),
(95,269,l),
(252,269,ls),
(295,269,o),
(320,249,o),
(320,214,cs),
(320,182,o),
(295,164,o),
(252,164,cs),
(94,164,l)
);
},
{
closed = 1;
nodes = (
(53,0,l),
(99,0,l),
(99,312,l),
(53,312,l)
);
},
{
closed = 1;
nodes = (
(330,0,l),
(385,0,l),
(267,147,l),
(216,147,l)
);
}
);
width = 410;
},
{
layerId = "8BE779D0-3CB0-4E3D-A7BD-4D55C0B0047B";
shapes = (
{
closed = 1;
nodes = (
(102.17,118.549,l),
(255.268,118.549,ls),
(325.183,118.549,o),
(369.634,158.451,o),
(369.634,220.451,cs),
(369.634,276.366,o),
(325.183,312,o),
(255.268,312,cs),
(95.17,312,l),
(103.17,260.83,l),
(255.268,260.83,ls),
(288.464,260.83,o),
(309.379,243.281,o),
(309.379,215.634,cs),
(309.379,187.719,o),
(288.464,169.719,o),
(255.268,169.719,cs),
(102.17,169.719,l)
);
},
{
closed = 1;
nodes = (
(50.549,0,l),
(107.17,0,l),
(107.17,312,l),
(50.549,312,l)
);
},
{
closed = 1;
nodes = (
(320.196,0,l),
(387.451,0,l),
(277.621,147,l),
(217.634,147,l)
);
}
);
width = 410;
}
);
},
{
export = 0;
glyphname = S.half;
layers = (
{
layerId = "1B7E510F-672B-4CC4-A590-B1F79D1107BB";
shapes = (
{
closed = 1;
nodes = (
(305,-4,o),
(363,29,o),
(363,98,cs),
(363,153,o),
(327,182,o),
(254,185,cs),
(175,188,ls),
(147,188,o),
(134,199,o),
(134,219,cs),
(134,240,o),
(161,250,o),
(214,250,cs),
(255,250,o),
(296,242,o),
(337,226,c),
(364,290,l),
(323,308,o),
(273,316,o),
(214,316,cs),
(108,316,o),
(56,282,o),
(56,212,cs),
(56,156,o),
(88,126,o),
(154,124,cs),
(245,121,ls),
(271,120,o),
(285,110,o),
(285,92,cs),
(285,72,o),
(254,62,o),
(194,62,cs),
(150,62,o),
(104,70,o),
(53,87,c),
(43,15,l),
(84,2,o),
(132,-4,o),
(188,-4,cs)
);
}
);
width = 411;
},
{
layerId = "F9DFE8EC-1309-4B06-A6CE-E9C97F6115FD";
shapes = (
{
closed = 1;
nodes = (
(303,-4,o),
(359,26,o),
(359,87,cs),
(359,125,o),
(336,160,o),
(283,169,cs),
(157,192,ls),
(134,197,o),
(123,210,o),
(123,226,cs),
(123,250,o),
(155,261,o),
(220,261,cs),
(255,261,o),
(293,253,o),
(336,237,c),
(361,287,l),
(321,307,o),
(274,316,o),
(220,316,cs),
(113,316,o),
(60,286,o),
(60,224,cs),
(60,184,o),
(81,151,o),
(128,143,cs),
(256,121,ls),
(284,116,o),
(295,102,o),
(295,87,cs),
(295,63,o),
(262,51,o),
(194,51,cs),
(151,51,o),
(104,57,o),
(55,69,c),
(46,11,l),
(90,1,o),
(138,-4,o),
(188,-4,cs)
);
}
);
width = 410;
},
{
layerId = "C0AB487F-B285-4883-B6B5-039B935D5538";
shapes = (
{
closed = 1;
nodes = (
(301,-4,o),
(356,25,o),
(356,84,cs),
(356,123,o),
(329,149,o),
(273,164,c),
(149,191,l),
(123,198,o),
(109,210,o),
(109,229,cs),
(109,258,o),
(145,272,o),
(216,272,cs),
(254,272,o),
(291,265,o),
(328,250,c),
(353,292,l),
(307,308,o),
(262,316,o),
(215,316,cs),
(113,316,o),
(62,287,o),
(62,227,cs),
(62,189,o),
(85,164,o),
(132,151,c),
(267,121,l),
(294,114,o),
(309,101,o),
(309,83,cs),
(309,54,o),
(271,40,o),
(194,40,cs),
(151,40,o),
(105,46,o),
(55,60,c),
(49,12,l),
(89,1,o),
(135,-4,o),
(188,-4,cs)
);
}
);
width = 410;
},
{
layerId = "8BE779D0-3CB0-4E3D-A7BD-4D55C0B0047B";
shapes = (
{
closed = 1;
nodes = (
(302.634,-4,o),
(358.451,25.817,o),
(358.451,86.451,cs),
(358.451,124.634,o),
(334.719,157.987,o),
(281.17,168.085,c),
(155.536,191.817,l),
(131.987,197.183,o),
(120.438,210,o),
(120.438,226.549,cs),
(120.438,251.464,o),
(153.17,263.013,o),
(219.268,263.013,cs),
(254.817,263.013,o),
(292.634,255.196,o),
(334.536,239.379,c),
(359.536,287.915,l),
(318.438,307.183,o),
(271.804,316,o),
(219.085,316,cs),
(113,316,o),
(60.366,286.183,o),
(60.366,224.549,cs),
(60.366,184.915,o),
(81.732,153.379,o),
(128.732,144.464,c),
(258.013,121,l),
(285.83,115.634,o),
(297.562,101.817,o),
(297.562,86.268,cs),
(297.562,61.353,o),
(263.647,48.987,o),
(194,48.987,cs),
(151,48.987,o),
(104.183,54.987,o),
(55,67.353,c),
(46.549,11.183,l),
(89.817,1,o),
(137.451,-4,o),
(188,-4,cs)
);
}
);
width = 410;
}
);
},
{
export = 0;
glyphname = T.half;
layers = (
{
layerId = "1B7E510F-672B-4CC4-A590-B1F79D1107BB";
shapes = (
{
closed = 1;
nodes = (
(168,0,l),
(242,0,l),
(242,312,l),
(168,312,l)
);
},
{
closed = 1;
nodes = (
(26,246,l),
(384,246,l),
(384,312,l),
(26,312,l)
);
}
);
width = 410;
},
{
layerId = "F9DFE8EC-1309-4B06-A6CE-E9C97F6115FD";
shapes = (
{
closed = 1;
nodes = (
(175,0,l),
(234,0,l),
(234,312,l),
(175,312,l)
);
},
{
closed = 1;
nodes = (
(29,259,l),
(380,259,l),
(380,312,l),
(29,312,l)
);
}
);
width = 410;
},
{
layerId = "C0AB487F-B285-4883-B6B5-039B935D5538";
shapes = (
{
closed = 1;
nodes = (
(182,0,l),
(228,0,l),
(228,312,l),
(182,312,l)
);
},
{
closed = 1;
nodes = (
(32,269,l),
(378,269,l),
(378,312,l),
(32,312,l)
);
}
);
width = 410;
},
{
layerId = "8BE779D0-3CB0-4E3D-A7BD-4D55C0B0047B";
shapes = (
{
closed = 1;
nodes = (
(176.281,0,l),
(232.902,0,l),
(232.902,312,l),
(176.281,312,l)
);
},
{
closed = 1;
nodes = (
(29.549,260.83,l),
(379.634,260.83,l),
(379.634,312,l),
(29.549,312,l)
);
}
);
width = 410;
}
);
},
{
export = 0;
glyphname = U.half;
layers = (
{
layerId = "1B7E510F-672B-4CC4-A590-B1F79D1107BB";
shapes = (
{
closed = 1;
nodes = (
(311,-4,o),
(363,40,o),
(363,129,cs),
(363,312,l),
(290,312,l),
(290,129,ls),
(290,84,o),
(262,62,o),
(205,62,cs),
(148,62,o),
(120,84,o),
(120,129,cs),
(120,312,l),
(46,312,l),
(46,129,ls),
(46,40,o),
(99,-4,o),
(204,-4,cs)
);
}
);
width = 410;
},
{
layerId = "F9DFE8EC-1309-4B06-A6CE-E9C97F6115FD";
shapes = (
{
closed = 1;
nodes = (
(308,-4,o),
(360,38,o),
(360,125,cs),
(360,312,l),
(301,312,l),
(301,125,ls),
(301,74,o),
(269,49,o),
(205,49,cs),
(141,49,o),
(109,74,o),
(109,125,cs),
(109,312,l),
(50,312,l),
(50,125,ls),
(50,38,o),
(101,-4,o),
(204,-4,cs)
);
}
);
width = 410;
},
{
layerId = "C0AB487F-B285-4883-B6B5-039B935D5538";
shapes = (
{
closed = 1;
nodes = (
(312,-4,o),
(357,34,o),
(357,125,cs),
(357,312,l),
(312,312,l),
(312,125,ls),
(312,63,o),
(280,38,o),
(205,38,cs),
(130,38,o),
(99,63,o),
(99,125,cs),
(99,312,l),
(53,312,l),
(53,125,ls),
(53,34,o),
(98,-4,o),
(204,-4,cs)
);
}
);
width = 410;
},
{
layerId = "8BE779D0-3CB0-4E3D-A7BD-4D55C0B0047B";
shapes = (
{
closed = 1;
nodes = (
(308.732,-4,o),
(359.451,37.268,o),
(359.451,125,cs),
(359.451,312,l),
(303.013,312,l),
(303.013,125,ls),
(303.013,71.987,o),
(271.013,46.987,o),
(205,46.987,cs),
(138.987,46.987,o),
(107.17,71.987,o),
(107.17,125,cs),
(107.17,312,l),
(50.549,312,l),
(50.549,125,ls),
(50.549,37.268,o),
(100.451,-4,o),
(204,-4,cs)
);
}
);
width = 410;
}
);
},
{
export = 0;
glyphname = V.half;
layers = (
{
layerId = "1B7E510F-672B-4CC4-A590-B1F79D1107BB";
shapes = (
{
closed = 1;
nodes = (
(152,0,l),
(258,0,l),
(396,312,l),
(315,312,l),
(208,63,l),
(202,63,l),
(96,312,l),
(14,312,l)
);
}
);
width = 410;
},
{
layerId = "F9DFE8EC-1309-4B06-A6CE-E9C97F6115FD";
shapes = (
{
closed = 1;
nodes = (
(165,0,l),
(246,0,l),
(393,312,l),
(329,312,l),
(207,50,l),
(203,50,l),
(81,312,l),
(18,312,l)
);
}
);
width = 410;
},
{
layerId = "C0AB487F-B285-4883-B6B5-039B935D5538";
shapes = (
{
closed = 1;
nodes = (
(173,0,l),
(237,0,l),
(390,312,l),
(342,312,l),
(208,39,l),
(203,39,l),
(69,312,l),
(21,312,l)
);
}
);
width = 411;
},
{
layerId = "8BE779D0-3CB0-4E3D-A7BD-4D55C0B0047B";
shapes = (
{
closed = 1;
nodes = (
(166.464,0,l),
(244.353,0,l),
(392.451,312,l),
(331.379,312,l),
(207.183,47.987,l),
(203,47.987,l),
(78.804,312,l),
(18.549,312,l)
);
}
);
width = 410.18301;
}
);
},
{
export = 0;
glyphname = X.half;
layers = (
{
layerId = "1B7E510F-672B-4CC4-A590-B1F79D1107BB";
shapes = (
{
closed = 1;
nodes = (
(294,0,l),
(390,0,l),
(232,171,l),
(116,312,l),
(21,312,l),
(184,133,l)
);
},
{
closed = 1;
nodes = (
(21,0,l),
(116,0,l),
(227,133,l),
(390,312,l),
(294,312,l),
(179,171,l)
);
}
);
width = 410;
},
{
layerId = "F9DFE8EC-1309-4B06-A6CE-E9C97F6115FD";
shapes = (
{
closed = 1;
nodes = (
(312,0,l),
(391,0,l),
(231,165,l),
(99,312,l),
(20,312,l),
(184,139,l)
);
},
{
closed = 1;
nodes = (
(20,0,l),
(99,0,l),
(227,139,l),
(391,312,l),
(312,312,l),
(179,165,l)
);
}
);
width = 410;
},
{
layerId = "C0AB487F-B285-4883-B6B5-039B935D5538";
shapes = (
{
closed = 1;
nodes = (
(324,0,l),
(383,0,l),
(225,164,l),
(87,312,l),
(27,312,l),
(190,140,l)
);
},
{
closed = 1;
nodes = (
(27,0,l),
(87,0,l),
(221,140,l),
(383,312,l),
(324,312,l),
(185,164,l)
);
}
);
width = 410;
},
{
layerId = "8BE779D0-3CB0-4E3D-A7BD-4D55C0B0047B";
shapes = (
{
closed = 1;
nodes = (
(314.196,0,l),
(389.536,0,l),
(229.902,164.817,l),
(96.804,312,l),
(21.281,312,l),
(185.098,139.183,l)
);
},
{
closed = 1;
nodes = (
(21.281,0,l),
(96.804,0,l),
(225.902,139.183,l),
(389.536,312,l),
(314.196,312,l),
(180.098,164.817,l)
);
}
);
width = 410;
}
);
},
{
export = 0;
glyphname = Y.half;
layers = (
{
layerId = "1B7E510F-672B-4CC4-A590-B1F79D1107BB";
shapes = (
{
closed = 1;
nodes = (
(173,78,l),
(237,78,l),
(403,312,l),
(322,312,l),
(208,152,l),
(202,152,l),
(89,312,l),
(7,312,l)
);
},
{
closed = 1;
nodes = (
(168,0,l),
(242,0,l),
(242,127,l),
(168,127,l)
);
}
);
width = 410;
},
{
layerId = "F9DFE8EC-1309-4B06-A6CE-E9C97F6115FD";
shapes = (
{
closed = 1;
nodes = (
(185,79,l),
(226,79,l),
(399,312,l),
(333,312,l),
(207,141,l),
(204,141,l),
(77,312,l),
(11,312,l)
);
},
{
closed = 1;
nodes = (
(175,0,l),
(235,0,l),
(235,125,l),
(175,125,l)
);
}
);
width = 410;
},
{
layerId = "C0AB487F-B285-4883-B6B5-039B935D5538";
shapes = (
{
closed = 1;
nodes = (
(188,82,l),
(222,82,l),
(397,312,l),
(346,312,l),
(208,130,l),
(203,130,l),
(64,312,l),
(14,312,l)
);
},
{
closed = 1;
nodes = (
(182,0,l),
(229,0,l),
(229,125,l),
(182,125,l)
);
}
);
width = 411;
},
{
layerId = "8BE779D0-3CB0-4E3D-A7BD-4D55C0B0047B";
shapes = (
{
closed = 1;
nodes = (
(185.549,79.549,l),
(225.268,79.549,l),
(398.634,312,l),
(335.379,312,l),
(207.183,138.987,l),
(203.817,138.987,l),
(74.621,312,l),
(11.549,312,l)
);
},
{
closed = 1;
nodes = (
(176.281,0,l),
(233.902,0,l),
(233.902,125,l),
(176.281,125,l)
);
}
);
width = 410.18301;
}
);
},
{
glyphname = Ismall;
layers = (
{
layerId = "1B7E510F-672B-4CC4-A590-B1F79D1107BB";
shapes = (
{
closed = 1;
nodes = (
(218,0,l),
(350,0,l),
(368,518,l),
(236,518,l)
);
},
{
closed = 1;
nodes = (
(73,0,l),
(495,0,l),
(495,122,l),
(73,122,l)
);
},
{
closed = 1;
nodes = (
(91,396,l),
(513,396,l),
(513,518,l),
(91,518,l)
);
}
);
width = 586;
},
{
layerId = "F9DFE8EC-1309-4B06-A6CE-E9C97F6115FD";
shapes = (
{
closed = 1;
nodes = (
(232,0,l),
(336,0,l),
(354,518,l),
(250,518,l)
);
},
{
closed = 1;
nodes = (
(73,0,l),
(495,0,l),
(495,85,l),
(73,85,l)
);
},
{
closed = 1;
nodes = (
(91,433,l),
(513,433,l),
(513,518,l),
(91,518,l)
);
}
);
width = 586;
},
{
layerId = "C0AB487F-B285-4883-B6B5-039B935D5538";
shapes = (
{
closed = 1;
nodes = (
(261,0,l),
(307,0,l),
(325,518,l),
(279,518,l)
);
},
{
closed = 1;
nodes = (
(85,0,l),
(483,0,l),
(483,44,l),
(85,44,l)
);
},
{
closed = 1;
nodes = (
(103,474,l),
(501,474,l),
(501,518,l),
(103,518,l)
);
}
);
width = 586;
},
{
layerId = "8BE779D0-3CB0-4E3D-A7BD-4D55C0B0047B";
shapes = (
{
closed = 1;
nodes = (
(237.307,0,l),
(330.693,0,l),
(348.693,518,l),
(255.307,518,l)
);
},
{
closed = 1;
nodes = (
(75.196,0,l),
(492.804,0,l),
(492.804,77.497,l),
(75.196,77.497,l)
);
},
{
closed = 1;
nodes = (
(93.196,440.503,l),
(510.804,440.503,l),
(510.804,518,l),
(93.196,518,l)
);
}
);
width = 586;
}
);
unicode = 618;
},
{
glyphname = a;
layers = (
{
anchors = (
{
name = top;
pos = (281,518);
}
);
layerId = "1B7E510F-672B-4CC4-A590-B1F79D1107BB";
shapes = (
{
closed = 1;
nodes = (
(228,527,o),
(155,518,o),
(89,492,c),
(126,385,l),
(176,405,o),
(227,415,o),
(267,415,cs),
(341,415,o),
(377,380,o),
(375,333,cs),
(366,130,l),
(390,130,l),
(391,49,o),
(419,-5,o),
(505,-5,cs),
(559,-5,l),
(563,107,l),
(541,107,ls),
(497,107,o),
(494,131,o),
(495,166,cs),
(501,349,ls),
(505,457,o),
(427,527,o),
(283,527,cs)
);
},
{
closed = 1;
nodes = (
(370,218,l),
(366,141,o),
(312,108,o),
(243,108,cs),
(198,108,o),
(174,125,o),
(174,156,cs),
(174,215,o),
(250,249,o),
(416,220,c),
(412,317,l),
(193,358,o),
(41,285,o),
(41,142,cs),
(41,46,o),
(104,-10,o),
(214,-10,cs),
(319,-10,o),
(376,39,o),
(382,104,c),
(350,82,l),
(461,82,l)
);
}
);
width = 586;
},
{
anchors = (
{
name = top;
pos = (279,518);
}
);
layerId = "F9DFE8EC-1309-4B06-A6CE-E9C97F6115FD";
shapes = (
{
closed = 1;
nodes = (
(225,527,o),
(158,518,o),
(98,492,c),
(126,404,l),
(176,424,o),
(232,435,o),
(275,435,cs),
(363,435,o),
(388,393,o),
(386,322,cs),
(380,130,l),
(400,130,l),
(400,31,o),
(442,-5,o),
(541,-5,cs),
(569,-5,l),
(572,81,l),
(554,81,ls),
(490,81,o),
(479,112,o),
(481,166,cs),
(488,328,ls),
(493,453,o),
(432,527,o),
(279,527,cs)
);
},
{
closed = 1;
nodes = (
(382,212,l),
(378,124,o),
(317,79,o),
(239,79,cs),
(186,79,o),
(158,101,o),
(158,142,cs),
(158,225,o),
(275,260,o),
(409,226,c),
(406,309,l),
(192,338,o),
(54,274,o),
(54,137,cs),
(54,43,o),
(114,-10,o),
(221,-10,cs),
(319,-10,o),
(382,33,o),
(390,110,c),
(359,96,l),
(429,96,l)
);
}
);
width = 586;
},
{
anchors = (
{
name = top;
pos = (281,518);
}
);
layerId = "C0AB487F-B285-4883-B6B5-039B935D5538";
shapes = (
{
closed = 1;
nodes = (
(228,527,o),
(163,515,o),
(116,496,c),
(131,453,l),
(178,471,o),
(235,482,o),
(281,482,cs),
(386,482,o),
(428,425,o),
(424,339,cs),
(416,149,l),
(422,149,l),
(410,60,o),
(431,-5,o),
(540,-5,cs),
(545,-5,l),
(547,41,l),
(539,41,l),
(492,42,o),
(459,56,o),
(461,107,cs),
(470,340,ls),
(474,453,o),
(416,527,o),
(281,527,cs)
);
},
{
closed = 1;
nodes = (
(419,221,l),
(415,65,o),
(308,33,o),
(231,33,cs),
(154,33,o),
(108,69,o),
(108,130,cs),
(108,234,o),
(247,295,o),
(438,247,c),
(436,290,l),
(232,341,o),
(62,269,o),
(63,130,cs),
(63,43,o),
(127,-10,o),
(231,-10,cs),
(329,-10,o),
(397,34,o),
(416,117,c),
(391,100,l),
(438,100,l)
);
}
);
width = 586;
},
{
anchors = (
{
name = top;
pos = (279.366,518);
}
);
layerId = "8BE779D0-3CB0-4E3D-A7BD-4D55C0B0047B";
shapes = (
{
closed = 1;
nodes = (
(225.549,527,o),
(158.915,517.451,o),
(101.294,492.732,c),
(126.915,412.967,l),
(176.366,432.601,o),
(232.549,443.601,o),
(276.098,443.601,cs),
(367.209,443.601,o),
(395.32,398.856,o),
(392.954,325.111,cs),
(386.588,133.477,l),
(404.026,133.477,l),
(401.83,36.307,o),
(439.987,-5,o),
(540.817,-5,cs),
(564.608,-5,l),
(567.425,73.68,l),
(551.255,73.68,l),
(490.366,73.863,o),
(475.34,101.752,o),
(477.34,155.203,cs),
(484.706,330.196,ls),
(489.523,453,o),
(429.072,527,o),
(279.366,527,cs)
);
},
{
closed = 1;
nodes = (
(388.771,213.647,l),
(384.771,113.203,o),
(315.353,70.582,o),
(237.536,70.582,cs),
(180.144,70.582,o),
(148.85,95.144,o),
(148.85,139.804,cs),
(148.85,226.647,o),
(269.876,266.405,o),
(414.307,229.843,c),
(411.49,305.523,l),
(199.32,338.549,o),
(55.464,273.085,o),
(55.647,135.719,cs),
(55.647,43,o),
(116.379,-10,o),
(222.83,-10,cs),
(320.83,-10,o),
(384.745,33.183,o),
(394.758,111.281,c),
(364.856,96.732,l),
(430.647,96.732,l)
);
}
);
width = 586;
}
);
unicode = 97;
},
{
glyphname = ae;
layers = (
{
layerId = "1B7E510F-672B-4CC4-A590-B1F79D1107BB";
shapes = (
{
closed = 1;
nodes = (
(374,113,o),
(357,196,o),
(357,266,cs),
(357,349,o),
(384,402,o),
(430,402,cs),
(456,402,o),
(466,385,o),
(466,362,cs),
(466,311,o),
(413,281,o),
(319,279,c),
(341,171,l),
(497,175,o),
(587,246,o),
(587,361,cs),
(587,446,o),
(546,527,o),
(450,527,cs),
(341,527,o),
(275,423,o),
(275,261,cs),
(275,134,o),
(307,-10,o),
(470,-10,cs),
(500,-10,o),
(535,-3,o),
(563,7,c),
(531,123,l),
(509,117,o),
(483,113,o),
(461,113,cs)
);
},
{
closed = 1;
nodes = (
(215,-10,o),
(265,35,o),
(280,139,c),
(244,124,l),
(326,124,l),
(237,270,l),
(231,186,ls),
(228,132,o),
(200,102,o),
(162,102,cs),
(133,102,o),
(121,122,o),
(121,148,cs),
(121,188,o),
(154,214,o),
(207,214,cs),
(234,214,o),
(258,214,o),
(270,200,c),
(296,292,l),
(278,303,o),
(245,310,o),
(214,310,cs),
(81,310,o),
(-4,239,o),
(-4,132,cs),
(-4,45,o),
(42,-10,o),
(133,-10,cs)
);
},
{
closed = 1;
nodes = (
(229,151,l),
(311,151,l),
(317,295,ls),
(323,425,o),
(259,518,o),
(118,521,cs),
(59,522,l),
(52,398,l),
(101,396,ls),
(158,395,o),
(245,375,o),
(240,301,cs)
);
}
);
width = 586;
},
{
layerId = "F9DFE8EC-1309-4B06-A6CE-E9C97F6115FD";
shapes = (
{
closed = 1;
nodes = (
(362,77,o),
(349,179,o),
(349,262,cs),
(349,372,o),
(381,441,o),
(435,441,cs),
(472,441,o),
(483,405,o),
(483,375,cs),
(483,305,o),
(426,264,o),
(326,261,c),
(342,188,l),
(489,191,o),
(573,261,o),
(573,375,cs),
(573,451,o),
(539,527,o),
(452,527,cs),
(346,527,o),
(281,424,o),
(281,262,cs),
(281,135,o),
(298,-10,o),
(475,-10,cs),
(503,-10,o),
(536,-3,o),
(562,7,c),
(535,87,l),
(515,80,o),
(490,77,o),
(470,77,cs)
);
},
{
closed = 1;
nodes = (
(227,-10,o),
(286,40,o),
(294,131,c),
(256,116,l),
(333,116,l),
(259,270,l),
(253,186,l),
(250,116,o),
(214,77,o),
(168,77,cs),
(127,77,o),
(107,101,o),
(107,139,cs),
(107,191,o),
(147,226,o),
(212,226,cs),
(242,226,o),
(266,225,o),
(279,211,c),
(304,290,l),
(285,301,o),
(251,308,o),
(220,308,cs),
(93,308,o),
(13,239,o),
(13,136,cs),
(13,48,o),
(63,-10,o),
(148,-10,cs)
);
},
{
closed = 1;
nodes = (
(251,151,l),
(307,151,l),
(320,285,ls),
(332,409,o),
(275,518,o),
(137,521,cs),
(79,522,l),
(74,436,l),
(122,435,ls),
(203,433,o),
(267,386,o),
(261,301,cs)
);
}
);
width = 586;
},
{
layerId = "C0AB487F-B285-4883-B6B5-039B935D5538";
shapes = (
{
closed = 1;
nodes = (
(338,34,o),
(316,167,o),
(316,263,cs),
(316,397,o),
(365,483,o),
(444,483,cs),
(501,483,o),
(524,434,o),
(524,383,cs),
(524,296,o),
(446,245,o),
(311,242,c),
(316,198,l),
(478,202,o),
(571,269,o),
(571,378,cs),
(571,455,o),
(533,527,o),
(447,527,cs),
(345,527,o),
(283,425,o),
(283,264,cs),
(283,146,o),
(308,-10,o),
(463,-10,cs),
(496,-10,o),
(519,-3,o),
(543,7,c),
(528,48,l),
(507,39,o),
(483,34,o),
(462,34,cs)
);
},
{
closed = 1;
nodes = (
(232,-10,o),
(290,45,o),
(298,174,c),
(284,129,l),
(323,129,l),
(275,271,l),
(270,186,l),
(263,89,o),
(212,34,o),
(146,34,cs),
(88,34,o),
(63,75,o),
(63,128,cs),
(63,202,o),
(119,250,o),
(210,250,cs),
(249,250,o),
(281,245,o),
(297,235,c),
(305,276,l),
(284,287,o),
(246,293,o),
(210,293,cs),
(93,293,o),
(18,229,o),
(18,130,cs),
(18,50,o),
(58,-10,o),
(144,-10,cs)
);
},
{
closed = 1;
nodes = (
(266,151,l),
(299,151,l),
(308,285,ls),
(317,408,o),
(261,522,o),
(120,522,cs),
(100,522,l),
(98,479,l),
(106,479,ls),
(213,479,o),
(284,405,o),
(276,301,cs)
);
}
);
width = 586;
},
{
layerId = "8BE779D0-3CB0-4E3D-A7BD-4D55C0B0047B";
shapes = (
{
closed = 1;
nodes = (
(357.608,69.131,o),
(342.961,176.804,o),
(342.961,262.183,cs),
(342.961,376.575,o),
(378.072,448.686,o),
(436.647,448.686,cs),
(477.307,448.686,o),
(490.503,410.307,o),
(490.503,376.464,cs),
(490.503,303.353,o),
(429.66,260.523,o),
(323.255,257.523,c),
(337.242,189.83,l),
(486.987,193.013,o),
(572.634,262.464,o),
(572.634,375.549,cs),
(572.634,451.732,o),
(537.902,527,o),
(451.085,527,cs),
(345.817,527,o),
(281.366,424.183,o),
(281.366,262.366,cs),
(281.366,137.013,o),
(299.83,-10,o),
(472.804,-10,cs),
(501.719,-10,o),
(532.889,-3,o),
(558.523,7,c),
(533.719,79.863,l),
(513.536,72.497,o),
(488.719,69.131,o),
(468.536,69.131,cs)
);
},
{
closed = 1;
nodes = (
(227.915,-10,o),
(286.732,40.915,o),
(294.732,138.869,c),
(261.124,118.379,l),
(331.17,118.379,l),
(261.928,270.183,l),
(256.111,186,l),
(252.379,111.059,o),
(213.634,69.131,o),
(163.974,69.131,cs),
(119.863,69.131,o),
(98.948,96.242,o),
(98.948,136.987,cs),
(98.948,193.013,o),
(141.876,230.392,o),
(211.634,230.392,cs),
(243.281,230.392,o),
(268.745,228.66,o),
(282.294,215.392,c),
(304.183,287.438,l),
(284.817,298.438,o),
(250.085,305.255,o),
(218.17,305.255,cs),
(93,305.255,o),
(13.915,237.17,o),
(13.915,134.902,cs),
(13.915,48.366,o),
(62.085,-10,o),
(147.268,-10,cs)
);
},
{
closed = 1;
nodes = (
(253.745,151,l),
(305.536,151,l),
(317.804,285,ls),
(329.255,408.817,o),
(272.438,518.732,o),
(133.889,521.183,cs),
(82.843,522,l),
(78.392,443.869,l),
(119.072,443.052,ls),
(204.83,441.418,o),
(270.111,389.477,o),
(263.745,301,cs)
);
}
);
width = 586;
}
);
unicode = 230;
},
{
glyphname = b;
layers = (
{
layerId = "1B7E510F-672B-4CC4-A590-B1F79D1107BB";
shapes = (
{
closed = 1;
nodes = (
(441,-10,o),
(555,107,o),
(555,304,cs),
(555,416,o),
(512,527,o),
(381,527,cs),
(293,527,o),
(240,480,o),
(233,397,c),
(243,424,l),
(201,424,l),
(213,189,l),
(220,338,o),
(283,402,o),
(349,402,cs),
(412,402,o),
(422,345,o),
(422,295,cs),
(422,172,o),
(367,114,o),
(251,114,cs),
(217,114,o),
(157,121,o),
(114,128,c),
(74,0,l),
(141,-6,o),
(207,-10,o),
(246,-10,cs)
);
},
{
closed = 1;
nodes = (
(74,0,l),
(206,0,l),
(233,732,l),
(101,732,l)
);
}
);
width = 586;
},
{
layerId = "F9DFE8EC-1309-4B06-A6CE-E9C97F6115FD";
shapes = (
{
closed = 1;
nodes = (
(432,-10,o),
(548,111,o),
(548,300,cs),
(548,414,o),
(509,527,o),
(376,527,cs),
(279,527,o),
(212,467,o),
(204,363,c),
(223,400,l),
(182,400,l),
(190,189,l),
(197,361,o),
(280,435,o),
(357,435,cs),
(434,435,o),
(446,361,o),
(446,300,cs),
(446,176,o),
(384,79,o),
(242,79,cs),
(202,79,o),
(151,87,o),
(116,95,c),
(80,0,l),
(132,-7,o),
(196,-10,o),
(233,-10,cs)
);
},
{
closed = 1;
nodes = (
(80,0,l),
(184,0,l),
(211,732,l),
(107,732,l)
);
}
);
width = 586;
},
{
layerId = "C0AB487F-B285-4883-B6B5-039B935D5538";
shapes = (
{
closed = 1;
nodes = (
(421,-10,o),
(536,108,o),
(536,302,cs),
(536,417,o),
(491,527,o),
(359,527,cs),
(255,527,o),
(168,455,o),
(155,329,c),
(174,366,l),
(135,366,l),
(145,155,l),
(151,384,o),
(248,482,o),
(354,482,cs),
(457,482,o),
(490,396,o),
(490,307,cs),
(490,138,o),
(393,35,o),
(234,35,cs),
(199,35,o),
(150,40,o),
(125,47,c),
(94,0,l),
(144,-6,o),
(195,-10,o),
(229,-10,cs)
);
},
{
closed = 1;
nodes = (
(94,0,l),
(139,0,l),
(166,732,l),
(121,732,l)
);
}
);
width = 586;
},
{
layerId = "8BE779D0-3CB0-4E3D-A7BD-4D55C0B0047B";
shapes = (
{
closed = 1;
nodes = (
(429.987,-10,o),
(545.804,110.451,o),
(545.804,300.366,cs),
(545.804,414.549,o),
(505.706,527,o),
(372.889,527,cs),
(274.608,527,o),
(203.948,464.804,o),
(195.033,356.778,c),
(214.033,393.778,l),
(173.399,393.778,l),
(181.765,182.778,l),
(188.582,365.209,o),
(274.144,443.601,o),
(356.451,443.601,cs),
(438.209,443.601,o),
(454.052,367.405,o),
(454.052,301.281,cs),
(454.052,169.046,o),
(385.647,70.948,o),
(240.536,70.948,cs),
(201.451,70.948,o),
(150.817,78.399,o),
(117.647,86.216,c),
(82.562,0,l),
(134.196,-6.817,o),
(195.817,-10,o),
(232.268,-10,cs)
);
},
{
closed = 1;
nodes = (
(82.562,0,l),
(175.765,0,l),
(202.765,732,l),
(109.562,732,l)
);
}
);
width = 586;
}
);
unicode = 98;
},
{
glyphname = c;
layers = (
{
anchors = (
{
name = bottom;
pos = (323.119,0);
}
);
layerId = "1B7E510F-672B-4CC4-A590-B1F79D1107BB";
shapes = (
{
closed = 1;
nodes = (
(418,-10,o),
(477,-4,o),
(531,17,c),
(507,138,l),
(465,124,o),
(421,116,o),
(377,116,cs),
(274,116,o),
(216,160,o),
(216,254,cs),
(216,345,o),
(271,402,o),
(348,402,cs),
(397,402,o),
(433,377,o),
(456,332,c),
(551,408,l),
(523,484,o),
(454,527,o),
(351,527,cs),
(184,527,o),
(81,412,o),
(81,240,cs),
(81,69,o),
(183,-10,o),
(364,-10,cs)
);
}
);
width = 586;
},
{
anchors = (
{
name = bottom;
pos = (315.645,0);
}
);
layerId = "F9DFE8EC-1309-4B06-A6CE-E9C97F6115FD";
shapes = (
{
closed = 1;
nodes = (
(407,-10,o),
(465,-5,o),
(519,15,c),
(498,106,l),
(455,92,o),
(411,83,o),
(366,83,cs),
(257,83,o),
(196,139,o),
(196,252,cs),
(196,366,o),
(258,435,o),
(347,435,cs),
(397,435,o),
(434,407,o),
(457,360,c),
(536,420,l),
(510,488,o),
(445,527,o),
(350,527,cs),
(190,527,o),
(91,417,o),
(91,244,cs),
(91,75,o),
(185,-10,o),
(352,-10,cs)
);
}
);
width = 586;
},
{
anchors = (
{
name = bottom;
pos = (318.358,0);
}
);
layerId = "C0AB487F-B285-4883-B6B5-039B935D5538";
shapes = (
{
closed = 1;
nodes = (
(405,-10,o),
(460,-5,o),
(512,17,c),
(502,62,l),
(455,46,o),
(405,35,o),
(355,35,cs),
(220,35,o),
(150,107,o),
(150,248,cs),
(150,397,o),
(228,482,o),
(346,482,cs),
(407,482,o),
(455,460,o),
(484,394,c),
(525,420,l),
(501,488,o),
(440,527,o),
(350,527,cs),
(198,527,o),
(103,421,o),
(103,244,cs),
(103,76,o),
(189,-10,o),
(353,-10,cs)
);
}
);
width = 586;
},
{
anchors = (
{
name = bottom;
pos = (316.141,0);
}
);
layerId = "8BE779D0-3CB0-4E3D-A7BD-4D55C0B0047B";
shapes = (
{
closed = 1;
nodes = (
(406.634,-10,o),
(464.085,-5,o),
(517.719,15.366,c),
(498.732,97.948,l),
(455,83.582,o),
(409.902,74.216,o),
(363.987,74.216,cs),
(250.229,74.216,o),
(187.582,133.144,o),
(187.582,251.268,cs),
(187.582,371.673,o),
(252.51,443.601,o),
(346.817,443.601,cs),
(398.83,443.601,o),
(437.843,416.699,o),
(461.941,366.222,c),
(533.987,420,l),
(508.353,488,o),
(444.085,527,o),
(350,527,cs),
(191.464,527,o),
(93.196,417.732,o),
(93.196,244,cs),
(93.196,75.183,o),
(185.732,-10,o),
(352.183,-10,cs)
);
}
);
width = 586;
}
);
unicode = 99;
},
{
glyphname = d;
layers = (
{
layerId = "1B7E510F-672B-4CC4-A590-B1F79D1107BB";
shapes = (
{
closed = 1;
nodes = (
(583,-5,l),
(587,107,l),
(567,107,ls),
(517,107,o),
(501,118,o),
(497,145,cs),
(496,155,o),
(495,167,o),
(496,181,cs),
(516,732,l),
(384,732,l),
(363,186,l),
(384,122,l),
(383,109,o),
(384,97,o),
(385,86,cs),
(397,3,o),
(470,-5,o),
(536,-5,cs)
);
},
{
closed = 1;
nodes = (
(183,527,o),
(39,393,o),
(39,208,cs),
(39,98,o),
(85,-10,o),
(212,-10,cs),
(300,-10,o),
(354,38,o),
(375,121,c),
(338,103,l),
(480,103,l),
(370,328,l),
(362,179,o),
(310,116,o),
(244,116,cs),
(184,116,o),
(172,157,o),
(172,206,cs),
(172,320,o),
(258,402,o),
(387,402,cs),
(427,402,o),
(451,397,o),
(468,390,c),
(508,518,l),
(466,524,o),
(437,527,o),
(396,527,cs)
);
}
);
width = 586;
},
{
layerId = "F9DFE8EC-1309-4B06-A6CE-E9C97F6115FD";
shapes = (
{
closed = 1;
nodes = (
(576,-5,l),
(579,81,l),
(550,81,ls),
(512,81,o),
(492,98,o),
(487,132,cs),
(486,139,o),
(486,146,o),
(486,155,cs),
(507,732,l),
(403,732,l),
(384,231,l),
(403,141,l),
(403,127,o),
(404,113,o),
(406,101,cs),
(416,28,o),
(457,-5,o),
(539,-5,cs)
);
},
{
closed = 1;
nodes = (
(172,528,o),
(46,394,o),
(46,208,cs),
(46,104,o),
(81,-9,o),
(206,-9,cs),
(314,-9,o),
(381,52,o),
(399,156,c),
(370,130,l),
(411,130,l),
(388,329,l),
(381,157,o),
(313,84,o),
(232,84,cs),
(161,84,o),
(148,155,o),
(148,211,cs),
(148,342,o),
(235,436,o),
(368,436,cs),
(409,436,o),
(442,431,o),
(462,424,c),
(498,518,l),
(450,524,o),
(407,528,o),
(365,528,cs)
);
}
);
width = 586;
},
{
layerId = "C0AB487F-B285-4883-B6B5-039B935D5538";
shapes = (
{
closed = 1;
nodes = (
(576,-5,l),
(577,40,l),
(547,40,ls),
(503,40,o),
(480,60,o),
(474,101,cs),
(473,110,o),
(473,120,o),
(473,131,cs),
(495,732,l),
(449,732,l),
(431,223,l),
(433,161,l),
(431,132,o),
(433,106,o),
(435,88,cs),
(443,31,o),
(474,-5,o),
(551,-5,cs)
);
},
{
closed = 1;
nodes = (
(192,528,o),
(58,396,o),
(58,213,cs),
(58,98,o),
(105,-9,o),
(238,-9,cs),
(350,-9,o),
(412,64,o),
(430,190,c),
(418,163,l),
(445,163,l),
(435,363,l),
(429,134,o),
(345,36,o),
(246,36,cs),
(138,36,o),
(104,119,o),
(104,211,cs),
(104,369,o),
(217,483,o),
(386,483,cs),
(418,483,o),
(438,478,o),
(455,471,c),
(487,518,l),
(456,524,o),
(426,528,o),
(391,528,cs)
);
}
);
width = 586;
},
{
layerId = "8BE779D0-3CB0-4E3D-A7BD-4D55C0B0047B";
shapes = (
{
closed = 1;
nodes = (
(576,-5,l),
(578.634,73.497,l),
(549.451,73.497,ls),
(510.353,73.497,o),
(489.804,91.046,o),
(484.621,126.327,cs),
(483.621,133.693,o),
(483.621,141.242,o),
(483.621,150.608,cs),
(504.804,732,l),
(411.418,732,l),
(392.601,229.536,l),
(408.49,144.66,l),
(408.124,127.915,o),
(409.307,111.719,o),
(411.307,98.621,cs),
(420.941,28.549,o),
(460.111,-5,o),
(541.196,-5,cs)
);
},
{
closed = 1;
nodes = (
(175.66,528,o),
(48.196,394.366,o),
(48.196,208.915,cs),
(48.196,102.902,o),
(85.392,-9,o),
(211.856,-9,cs),
(320.588,-9,o),
(386.673,54.196,o),
(404.673,162.222,c),
(378.784,136.039,l),
(417.222,136.039,l),
(396.601,335.222,l),
(389.784,152.791,o),
(318.856,75.216,o),
(234.562,75.216,cs),
(156.791,75.216,o),
(139.948,148.412,o),
(139.948,211,cs),
(139.948,346.941,o),
(231.706,444.601,o),
(371.294,444.601,cs),
(410.647,444.601,o),
(441.268,439.601,o),
(460.719,432.601,c),
(495.987,518,l),
(451.098,524,o),
(410.477,528,o),
(369.758,528,cs)
);
}
);
width = 586;
}
);
unicode = 100;
},
{
glyphname = eth;
layers = (
{
anchors = (
{
name = bottom;
pos = (293,0);
},
{
name = top;
pos = (293,713);
}
);
layerId = "1B7E510F-672B-4CC4-A590-B1F79D1107BB";
shapes = (
{
closed = 1;
nodes = (
(399,133,l),
(535,273,l),
(535,296,ls),
(535,538,o),
(431,670,o),
(187,740,c),
(159,663,l),
(328,603,o),
(401,501,o),
(400,325,cs)
);
},
{
closed = 1;
nodes = (
(223,115,o),
(182,152,o),
(182,215,cs),
(182,284,o),
(223,324,o),
(292,324,cs),
(360,324,o),
(400,284,o),
(400,216,cs),
(400,153,o),
(360,115,o),
(292,115,cs)
);
},
{
closed = 1;
nodes = (
(445,-10,o),
(535,93,o),
(535,273,c),
(421,199,l),
(422,346,l),
(383,346,l),
(367,412,o),
(315,449,o),
(245,449,cs),
(118,449,o),
(47,364,o),
(47,215,cs),
(47,73,o),
(134,-10,o),
(287,-10,cs)
);
},
{
closed = 1;
nodes = (
(137,475,l),
(541,588,l),
(515,698,l),
(112,584,l)
);
}
);
width = 586;
},
{
anchors = (
{
name = bottom;
pos = (293,0);
},
{
name = top;
pos = (293,713);
}
);
layerId = "F9DFE8EC-1309-4B06-A6CE-E9C97F6115FD";
shapes = (
{
closed = 1;
nodes = (
(418,133,l),
(527,257,l),
(527,280,ls),
(527,531,o),
(425,668,o),
(187,740,c),
(163,691,l),
(342,625,o),
(418,516,o),
(418,325,cs)
);
},
{
closed = 1;
nodes = (
(208,80,o),
(160,132,o),
(160,220,cs),
(160,308,o),
(208,359,o),
(289,359,cs),
(370,359,o),
(418,308,o),
(418,220,cs),
(418,132,o),
(370,80,o),
(289,80,cs)
);
},
{
closed = 1;
nodes = (
(439,-10,o),
(527,87,o),
(527,257,c),
(446,199,l),
(446,346,l),
(410,346,l),
(392,412,o),
(336,449,o),
(259,449,cs),
(129,449,o),
(55,366,o),
(55,220,cs),
(55,74,o),
(137,-10,o),
(283,-10,cs)
);
},
{
closed = 1;
nodes = (
(133,487,l),
(537,604,l),
(517,689,l),
(114,572,l)
);
}
);
width = 586;
},
{
anchors = (
{
name = bottom;
pos = (293,0);
},
{
name = top;
pos = (293,713);
}
);
layerId = "C0AB487F-B285-4883-B6B5-039B935D5538";
shapes = (
{
closed = 1;
nodes = (
(468,133,l),
(515,223,l),
(515,280,ls),
(515,531,o),
(417,663,o),
(187,740,c),
(167,702,l),
(378,634,o),
(468,521,o),
(468,325,cs)
);
},
{
closed = 1;
nodes = (
(176,35,o),
(114,102,o),
(114,215,cs),
(114,336,o),
(176,404,o),
(289,404,cs),
(403,404,o),
(468,336,o),
(468,215,cs),
(468,102,o),
(399,35,o),
(282,35,cs)
);
},
{
closed = 1;
nodes = (
(429,-10,o),
(515,77,o),
(515,223,c),
(485,199,l),
(485,346,l),
(463,346,l),
(441,412,o),
(373,449,o),
(279,449,cs),
(144,449,o),
(67,364,o),
(67,215,cs),
(67,74,o),
(147,-10,o),
(283,-10,cs)
);
},
{
closed = 1;
nodes = (
(129,506,l),
(527,648,l),
(517,689,l),
(119,548,l)
);
}
);
width = 586;
},
{
anchors = (
{
name = bottom;
pos = (293,0);
},
{
name = top;
pos = (293,713);
}
);
layerId = "8BE779D0-3CB0-4E3D-A7BD-4D55C0B0047B";
shapes = (
{
closed = 1;
nodes = (
(427.15,133,l),
(524.804,250.778,l),
(524.804,280,ls),
(524.804,531,o),
(423.536,667.085,o),
(187,740,c),
(163.732,693.013,l),
(348.588,626.647,o),
(427.15,516.915,o),
(427.15,325,cs)
);
},
{
closed = 1;
nodes = (
(202.144,71.765,o),
(151.582,126.51,o),
(151.582,219.085,cs),
(151.582,313.124,o),
(202.144,367.235,o),
(289,367.235,cs),
(376.039,367.235,o),
(427.15,313.124,o),
(427.15,219.085,cs),
(427.15,126.51,o),
(375.307,71.765,o),
(287.719,71.765,cs)
);
},
{
closed = 1;
nodes = (
(437.17,-10,o),
(524.804,85.17,o),
(524.804,250.778,c),
(453.137,199,l),
(453.137,346,l),
(419.699,346,l),
(400.967,412,o),
(342.771,449,o),
(262.66,449,cs),
(131.745,449,o),
(57.196,365.634,o),
(57.196,219.085,cs),
(57.196,74,o),
(138.83,-10,o),
(283,-10,cs)
);
},
{
closed = 1;
nodes = (
(132.268,490.477,l),
(535.17,612.052,l),
(517,689,l),
(114.915,567.608,l)
);
}
);
width = 586;
}
);
unicode = 240;
},
{
glyphname = e;
layers = (
{
anchors = (
{
name = top;
pos = (325,518);
}
);
layerId = "1B7E510F-672B-4CC4-A590-B1F79D1107BB";
shapes = (
{
closed = 1;
nodes = (
(241,108,o),
(193,153,o),
(193,237,cs),
(193,337,o),
(251,411,o),
(344,411,cs),
(372,411,o),
(413,403,o),
(413,369,cs),
(413,323,o),
(316,295,o),
(152,294,c),
(182,191,l),
(417,195,o),
(542,250,o),
(542,361,cs),
(542,469,o),
(460,527,o),
(355,527,cs),
(181,527,o),
(71,406,o),
(71,235,cs),
(71,78,o),
(159,-10,o),
(333,-10,cs),
(404,-10,o),
(469,1,o),
(532,29,c),
(504,143,l),
(452,120,o),
(400,108,o),
(344,108,cs)
);
}
);
width = 586;
},
{
anchors = (
{
name = top;
pos = (324,518);
}
);
layerId = "F9DFE8EC-1309-4B06-A6CE-E9C97F6115FD";
shapes = (
{
closed = 1;
nodes = (
(226,82,o),
(176,146,o),
(176,235,cs),
(176,356,o),
(244,438,o),
(341,438,cs),
(389,438,o),
(418,417,o),
(418,379,cs),
(418,312,o),
(321,274,o),
(154,272,c),
(172,190,l),
(393,194,o),
(521,264,o),
(521,377,cs),
(521,474,o),
(449,527,o),
(344,527,cs),
(185,527,o),
(81,404,o),
(81,229,cs),
(81,80,o),
(166,-10,o),
(327,-10,cs),
(393,-10,o),
(462,5,o),
(518,33,c),
(494,118,l),
(439,94,o),
(387,82,o),
(334,82,cs)
);
}
);
width = 586;
},
{
anchors = (
{
name = top;
pos = (322,518);
}
);
layerId = "C0AB487F-B285-4883-B6B5-039B935D5538";
shapes = (
{
closed = 1;
nodes = (
(192,35,o),
(138,118,o),
(138,244,cs),
(138,388,o),
(212,482,o),
(353,482,cs),
(408,482,o),
(472,456,o),
(472,390,cs),
(472,310,o),
(348,271,o),
(124,260,c),
(139,216,l),
(378,228,o),
(518,280,o),
(518,387,cs),
(518,482,o),
(436,527,o),
(352,527,cs),
(181,527,o),
(92,410,o),
(92,241,cs),
(92,93,o),
(166,-10,o),
(333,-10,cs),
(396,-10,o),
(461,4,o),
(514,28,c),
(500,71,l),
(448,48,o),
(389,35,o),
(333,35,cs)
);
}
);
width = 586;
},
{
anchors = (
{
name = top;
pos = (323.634,518);
}
);
layerId = "8BE779D0-3CB0-4E3D-A7BD-4D55C0B0047B";
shapes = (
{
closed = 1;
nodes = (
(219.778,73.399,o),
(169.046,140.876,o),
(169.046,236.647,cs),
(169.046,361.856,o),
(238.144,446.052,o),
(343.196,446.052,cs),
(392.477,446.052,o),
(427.882,424.137,o),
(427.882,381.013,cs),
(427.882,311.634,o),
(325.941,273.451,o),
(148.51,269.804,c),
(165.961,194.758,l),
(390.255,200.222,o),
(520.451,266.928,o),
(520.451,378.83,cs),
(520.451,475.464,o),
(446.621,527,o),
(345.464,527,cs),
(184.268,527,o),
(83.013,405.098,o),
(83.013,231.196,cs),
(83.013,82.379,o),
(166,-10,o),
(328.098,-10,cs),
(393.549,-10,o),
(461.817,4.817,o),
(517.268,32.085,c),
(495.098,109.399,l),
(440.647,85.582,o),
(387.366,73.399,o),
(333.817,73.399,cs)
);
}
);
width = 586;
}
);
unicode = 101;
},
{
glyphname = esh;
layers = (
{
layerId = "1B7E510F-672B-4CC4-A590-B1F79D1107BB";
shapes = (
{
closed = 1;
nodes = (
(38,-193,l),
(84,-188,ls),
(250,-173,o),
(325,-99,o),
(331,86,cs),
(344,464,ls),
(348,567,o),
(391,619,o),
(475,619,cs),
(507,619,o),
(538,617,o),
(583,612,c),
(598,732,l),
(559,739,o),
(524,742,o),
(482,742,cs),
(310,742,o),
(221,653,o),
(214,474,cs),
(201,83,ls),
(197,-13,o),
(167,-57,o),
(99,-65,cs),
(37,-72,l)
);
}
);
width = 586;
},
{
layerId = "F9DFE8EC-1309-4B06-A6CE-E9C97F6115FD";
shapes = (
{
closed = 1;
nodes = (
(42,-193,l),
(109,-186,ls),
(245,-172,o),
(307,-97,o),
(313,86,cs),
(327,479,ls),
(331,593,o),
(378,649,o),
(471,649,cs),
(500,649,o),
(529,647,o),
(570,643,c),
(584,732,l),
(548,739,o),
(516,742,o),
(477,742,cs),
(313,742,o),
(229,653,o),
(223,474,cs),
(208,70,ls),
(205,-36,o),
(170,-83,o),
(93,-94,cs),
(40,-101,l)
);
}
);
width = 586;
},
{
layerId = "C0AB487F-B285-4883-B6B5-039B935D5538";
shapes = (
{
closed = 1;
nodes = (
(46,-192,l),
(72,-188,ls),
(214,-167,o),
(277,-111,o),
(283,47,cs),
(299,508,ls),
(303,635,o),
(361,697,o),
(473,697,cs),
(499,697,o),
(524,695,o),
(561,690,c),
(573,732,l),
(541,739,o),
(512,742,o),
(477,742,cs),
(332,742,o),
(258,663,o),
(252,503,cs),
(236,31,ls),
(232,-84,o),
(186,-128,o),
(83,-145,cs),
(46,-150,l)
);
}
);
width = 586;
},
{
layerId = "8BE779D0-3CB0-4E3D-A7BD-4D55C0B0047B";
shapes = (
{
closed = 1;
nodes = (
(42.732,-192.817,l),
(102.229,-186.366,ls),
(239.327,-171.085,o),
(301.51,-99.562,o),
(307.51,78.863,cs),
(321.876,484.307,ls),
(325.876,600.686,o),
(374.889,657.784,o),
(471.366,657.784,cs),
(499.817,657.784,o),
(528.085,655.784,o),
(568.353,651.601,c),
(581.987,732,l),
(546.719,739,o),
(515.268,742,o),
(477,742,cs),
(316.477,742,o),
(234.307,654.83,o),
(228.307,479.307,cs),
(213.124,62.863,ls),
(209.941,-44.784,o),
(172.928,-91.235,o),
(91.17,-103.333,cs),
(41.098,-109.967,l)
);
}
);
width = 586;
}
);
unicode = 643;
},
{
glyphname = ezh;
layers = (
{
layerId = "1B7E510F-672B-4CC4-A590-B1F79D1107BB";
shapes = (
{
closed = 1;
nodes = (
(432,-225,o),
(526,-132,o),
(526,-1,cs),
(526,140,o),
(437,221,o),
(279,225,c),
(191,225,l),
(195,113,l),
(237,113,ls),
(335,113,o),
(391,76,o),
(391,9,cs),
(391,-57,o),
(347,-99,o),
(270,-99,cs),
(198,-99,o),
(153,-79,o),
(99,-32,c),
(30,-137,l),
(89,-195,o),
(167,-225,o),
(264,-225,cs)
);
},
{
closed = 1;
nodes = (
(216,113,l),
(310,200,l),
(495,378,l),
(495,513,l),
(76,513,l),
(76,392,l),
(410,392,l),
(366,416,l),
(156,207,l),
(166,113,l)
);
}
);
width = 586;
},
{
layerId = "F9DFE8EC-1309-4B06-A6CE-E9C97F6115FD";
shapes = (
{
closed = 1;
nodes = (
(426,-225,o),
(518,-132,o),
(518,-1,cs),
(518,129,o),
(431,205,o),
(279,208,c),
(191,208,l),
(195,133,l),
(250,133,ls),
(353,133,o),
(412,83,o),
(412,-4,cs),
(412,-83,o),
(359,-132,o),
(270,-132,cs),
(201,-132,o),
(159,-112,o),
(107,-65,c),
(39,-137,l),
(95,-195,o),
(171,-225,o),
(264,-225,cs)
);
},
{
closed = 1;
nodes = (
(228,133,l),
(273,188,l),
(486,415,l),
(486,513,l),
(84,513,l),
(84,428,l),
(410,428,l),
(398,452,l),
(156,194,l),
(166,133,l)
);
}
);
width = 586;
},
{
layerId = "C0AB487F-B285-4883-B6B5-039B935D5538";
shapes = (
{
closed = 1;
nodes = (
(419,-225,o),
(506,-136,o),
(506,-11,cs),
(506,118,o),
(413,197,o),
(250,197,cs),
(197,197,l),
(195,153,l),
(250,153,ls),
(383,153,o),
(459,93,o),
(459,-11,cs),
(459,-114,o),
(390,-180,o),
(270,-180,cs),
(189,-180,o),
(141,-158,o),
(80,-106,c),
(50,-137,l),
(104,-195,o),
(176,-225,o),
(264,-225,cs)
);
},
{
closed = 1;
nodes = (
(198,153,l),
(207,168,l),
(475,471,l),
(475,513,l),
(96,513,l),
(96,469,l),
(464,469,l),
(440,493,l),
(156,174,l),
(166,153,l)
);
}
);
width = 586;
},
{
layerId = "8BE779D0-3CB0-4E3D-A7BD-4D55C0B0047B";
shapes = (
{
closed = 1;
nodes = (
(424.719,-225,o),
(515.804,-132.732,o),
(515.804,-2.83,cs),
(515.804,126.987,o),
(427.706,203.536,o),
(273.693,205.987,cs),
(192.098,205.987,l),
(195,136.66,l),
(250,136.66,ls),
(358.49,136.66,o),
(420.601,84.83,o),
(420.601,-5.281,cs),
(420.601,-88.673,o),
(364.673,-140.784,o),
(270,-140.784,cs),
(198.804,-140.784,o),
(155.706,-120.418,o),
(102.059,-72.503,c),
(41.013,-137,l),
(96.647,-195,o),
(171.915,-225,o),
(264,-225,cs)
);
},
{
closed = 1;
nodes = (
(222.51,136.66,l),
(260.922,184.34,l),
(483.987,425.248,l),
(483.987,513,l),
(86.196,513,l),
(86.196,435.503,l),
(419.882,435.503,l),
(405.686,459.503,l),
(156,190.34,l),
(166,136.66,l)
);
}
);
width = 586;
}
);
unicode = 658;
},
{
glyphname = f;
layers = (
{
layerId = "1B7E510F-672B-4CC4-A590-B1F79D1107BB";
shapes = (
{
closed = 1;
nodes = (
(276,-185,l),
(296,401,ls),
(300,524,o),
(330,622,o),
(396,622,cs),
(434,622,o),
(445,589,o),
(445,557,cs),
(445,413,o),
(246,312,o),
(13,236,c),
(51,128,l),
(344,223,o),
(569,362,o),
(569,563,cs),
(569,667,o),
(513,742,o),
(403,742,cs),
(251,742,o),
(178,601,o),
(171,406,cs),
(150,-185,l)
);
},
{
closed = 1;
nodes = (
(220,60,l),
(541,60,l),
(541,178,l),
(220,178,l)
);
}
);
width = 586;
},
{
layerId = "F9DFE8EC-1309-4B06-A6CE-E9C97F6115FD";
shapes = (
{
closed = 1;
nodes = (
(267,-185,l),
(286,414,ls),
(292,588,o),
(338,651,o),
(401,651,cs),
(451,651,o),
(460,615,o),
(460,573,cs),
(460,417,o),
(297,314,o),
(22,229,c),
(49,141,l),
(360,237,o),
(560,387,o),
(560,572,cs),
(560,670,o),
(511,742,o),
(406,742,cs),
(282,742,o),
(192,649,o),
(184,406,cs),
(165,-185,l)
);
},
{
closed = 1;
nodes = (
(223,76,l),
(541,76,l),
(541,167,l),
(223,167,l)
);
}
);
width = 586;
},
{
layerId = "C0AB487F-B285-4883-B6B5-039B935D5538";
shapes = (
{
closed = 1;
nodes = (
(231,-185,l),
(252,430,ls),
(258,593,o),
(308,697,o),
(405,697,cs),
(475,697,o),
(497,643,o),
(497,582,cs),
(497,421,o),
(294,281,o),
(39,195,c),
(53,151,l),
(331,246,o),
(543,402,o),
(543,582,cs),
(543,669,o),
(501,742,o),
(406,742,cs),
(280,742,o),
(214,622,o),
(207,435,cs),
(185,-185,l)
);
},
{
closed = 1;
nodes = (
(226,102,l),
(541,102,l),
(541,146,l),
(226,146,l)
);
}
);
width = 586;
},
{
layerId = "8BE779D0-3CB0-4E3D-A7BD-4D55C0B0047B";
shapes = (
{
closed = 1;
nodes = (
(260.412,-185,l),
(279.778,416.928,ls),
(285.778,588.915,o),
(332.51,659.418,o),
(401.732,659.418,cs),
(455.392,659.418,o),
(466.771,620.124,o),
(466.771,574.647,cs),
(466.771,417.732,o),
(296.451,307.961,o),
(25.111,222.778,c),
(49.732,142.83,l),
(354.693,238.647,o),
(556.889,389.745,o),
(556.889,573.83,cs),
(556.889,669.817,o),
(509.17,742,o),
(406,742,cs),
(281.634,742,o),
(196.026,644.059,o),
(188.209,411.307,cs),
(168.66,-185,l)
);
},
{
closed = 1;
nodes = (
(223.549,80.758,l),
(541,80.758,l),
(541,163.157,l),
(223.549,163.157,l)
);
}
);
width = 586;
}
);
unicode = 102;
},
{
glyphname = g;
layers = (
{
layerId = "1B7E510F-672B-4CC4-A590-B1F79D1107BB";
shapes = (
{
closed = 1;
nodes = (
(426,-194,o),
(520,-121,o),
(520,-8,cs),
(520,73,o),
(472,122,o),
(317,155,cs),
(224,175,o),
(188,216,o),
(188,280,cs),
(188,345,o),
(226,407,o),
(286,407,cs),
(335,407,o),
(375,361,o),
(375,301,cs),
(375,270,o),
(364,164,o),
(258,149,c),
(259,98,l),
(404,98,l),
(404,155,l),
(373,136,l),
(465,141,o),
(504,219,o),
(504,300,cs),
(504,429,o),
(414,527,o),
(290,527,cs),
(159,527,o),
(52,418,o),
(52,270,cs),
(52,153,o),
(119,85,o),
(281,41,cs),
(359,20,o),
(385,5,o),
(385,-19,cs),
(385,-52,o),
(338,-73,o),
(282,-73,cs),
(215,-73,o),
(158,-44,o),
(103,15,c),
(9,-76,l),
(70,-150,o),
(172,-194,o),
(283,-194,cs)
);
},
{
closed = 1;
nodes = (
(477,382,l),
(501,402,l),
(480,402,l),
(506,378,o),
(581,376,q),
(581,498,l),
(342,498,l)
);
}
);
width = 586;
},
{
layerId = "F9DFE8EC-1309-4B06-A6CE-E9C97F6115FD";
shapes = (
{
closed = 1;
nodes = (
(414,-194,o),
(508,-115,o),
(508,-7,cs),
(508,76,o),
(464,105,o),
(330,140,cs),
(205,173,o),
(166,203,o),
(166,275,cs),
(166,365,o),
(215,436,o),
(290,436,cs),
(356,436,o),
(401,382,o),
(401,306,cs),
(401,236,o),
(354,140,o),
(264,129,c),
(264,94,l),
(394,94,l),
(394,144,l),
(373,126,l),
(449,140,o),
(498,218,o),
(498,308,cs),
(498,441,o),
(413,527,o),
(294,527,cs),
(158,527,o),
(63,416,o),
(63,272,cs),
(63,154,o),
(129,96,o),
(287,52,cs),
(380,26,o),
(410,18,o),
(410,-19,cs),
(410,-62,o),
(357,-103,o),
(281,-103,cs),
(195,-103,o),
(130,-56,o),
(102,-8,c),
(19,-70,l),
(81,-158,o),
(168,-194,o),
(275,-194,cs)
);
},
{
closed = 1;
nodes = (
(457,403,l),
(487,439,l),
(471,435,l),
(499,405,o),
(576,405,q),
(576,498,l),
(358,498,l)
);
}
);
width = 586;
},
{
layerId = "C0AB487F-B285-4883-B6B5-039B935D5538";
shapes = (
{
closed = 1;
nodes = (
(406,-194,o),
(495,-130,o),
(495,-32,cs),
(495,41,o),
(447,88,o),
(297,120,cs),
(174,146,o),
(129,197,o),
(129,285,cs),
(129,390,o),
(195,482,o),
(291,482,cs),
(373,482,o),
(435,415,o),
(435,313,cs),
(435,172,o),
(326,115,o),
(266,112,c),
(266,88,l),
(352,88,l),
(352,123,l),
(326,102,l),
(408,110,o),
(480,203,o),
(480,316,cs),
(480,437,o),
(399,527,o),
(292,527,cs),
(172,527,o),
(83,413,o),
(83,281,cs),
(83,176,o),
(139,110,o),
(289,75,cs),
(405,48,o),
(450,15,o),
(450,-35,cs),
(450,-102,o),
(384,-149,o),
(275,-149,cs),
(189,-149,o),
(119,-111,o),
(71,-43,c),
(34,-71,l),
(90,-152,o),
(174,-194,o),
(275,-194,cs)
);
},
{
closed = 1;
nodes = (
(428,448,l),
(449,478,l),
(427,473,l),
(452,454,o),
(569,454,q),
(569,498,l),
(378,498,l)
);
}
);
width = 586;
},
{
layerId = "8BE779D0-3CB0-4E3D-A7BD-4D55C0B0047B";
shapes = (
{
closed = 1;
nodes = (
(412.536,-194,o),
(505.621,-117.745,o),
(505.621,-11.575,cs),
(505.621,69.595,o),
(460.889,101.889,o),
(323.961,136.34,cs),
(199.327,168.059,o),
(159.229,201.902,o),
(159.229,276.83,cs),
(159.229,369.575,o),
(211.34,444.418,o),
(290.183,444.418,cs),
(359.111,444.418,o),
(407.222,388.039,o),
(407.222,307.281,cs),
(407.222,224.288,o),
(348.876,135.425,o),
(264.366,125.889,c),
(264.366,92.902,l),
(386.314,92.902,l),
(386.314,140.157,l),
(364.399,121.608,l),
(441.497,134.51,o),
(494.706,215.255,o),
(494.706,309.464,cs),
(494.706,440.268,o),
(410.438,527,o),
(293.634,527,cs),
(160.562,527,o),
(66.66,415.451,o),
(66.66,273.647,cs),
(66.66,158.026,o),
(130.83,98.562,o),
(287.366,56.209,cs),
(384.575,30.026,o),
(417.32,17.451,o),
(417.32,-21.928,cs),
(417.32,-69.32,o),
(361.941,-111.418,o),
(279.902,-111.418,cs),
(193.902,-111.418,o),
(127.987,-66.065,o),
(96.327,-14.405,c),
(21.745,-70.183,l),
(82.647,-156.902,o),
(169.098,-194,o),
(275,-194,cs)
);
},
{
closed = 1;
nodes = (
(451.693,411.235,l),
(480.046,446.137,l),
(462.948,441.954,l),
(490.399,413.967,o),
(574.719,413.967,q),
(574.719,498,l),
(361.66,498,l)
);
}
);
width = 586;
}
);
unicode = 103;
},
{
glyphname = glottalstop;
layers = (
{
layerId = "1B7E510F-672B-4CC4-A590-B1F79D1107BB";
shapes = (
{
closed = 1;
nodes = (
(190,0,l),
(319,0,l),
(325,167,ls),
(327,225,o),
(344,275,o),
(389,325,cs),
(460,402,o),
(507,458,o),
(511,548,cs),
(515,671,o),
(436,742,o),
(294,742,cs),
(197,742,o),
(105,696,o),
(58,627,c),
(126,535,l),
(168,584,o),
(228,617,o),
(286,617,cs),
(347,617,o),
(377,591,o),
(375,541,cs),
(373,492,o),
(348,458,o),
(313,423,cs),
(236,347,o),
(200,282,o),
(196,177,cs)
);
}
);
width = 586;
},
{
layerId = "F9DFE8EC-1309-4B06-A6CE-E9C97F6115FD";
shapes = (
{
closed = 1;
nodes = (
(204,0,l),
(305,0,l),
(312,180,ls),
(313,236,o),
(336,293,o),
(401,360,cs),
(464,425,o),
(500,472,o),
(502,548,cs),
(507,671,o),
(429,742,o),
(290,742,cs),
(200,742,o),
(115,700,o),
(71,635,c),
(136,565,l),
(174,616,o),
(231,649,o),
(285,649,cs),
(357,649,o),
(397,610,o),
(395,543,cs),
(393,494,o),
(373,464,o),
(327,417,cs),
(253,340,o),
(213,275,o),
(210,187,cs)
);
}
);
width = 586;
},
{
layerId = "C0AB487F-B285-4883-B6B5-039B935D5538";
shapes = (
{
closed = 1;
nodes = (
(231,0,l),
(277,0,l),
(283,165,ls),
(285.619,237.015,o),
(310,283,o),
(364,327,cs),
(449,397,o),
(488,460,o),
(491,549,cs),
(495,667,o),
(419,742,o),
(290,742,cs),
(213,742,o),
(151,716,o),
(83,655,c),
(111,624,l),
(173,676,o),
(225,698,o),
(287,698,cs),
(391,698,o),
(449,643,o),
(446,548,cs),
(443,477,o),
(415,424,o),
(345,369,cs),
(273,313,o),
(240,253,o),
(237,172,cs)
);
}
);
width = 586;
},
{
layerId = "8BE779D0-3CB0-4E3D-A7BD-4D55C0B0047B";
shapes = (
{
closed = 1;
nodes = (
(208.941,0,l),
(299.876,0,l),
(306.693,177.255,ls),
(307.989,236.186,o),
(331.242,291.17,o),
(394.229,353.961,cs),
(461.255,419.876,o),
(497.804,469.804,o),
(499.987,548.183,cs),
(504.804,670.268,o),
(427.17,742,o),
(290,742,cs),
(202.379,742,o),
(121.588,702.928,o),
(73.196,638.66,c),
(131.425,575.797,l),
(173.817,626.98,o),
(229.902,657.967,o),
(285.366,657.967,cs),
(363.222,657.967,o),
(406.516,616.039,o),
(404.333,543.915,cs),
(402.15,490.889,o),
(380.686,456.68,o),
(330.294,408.216,cs),
(256.66,335.059,o),
(217.941,270.974,o),
(214.941,184.255,cs)
);
}
);
width = 586;
}
);
unicode = 660;
},
{
glyphname = h;
layers = (
{
layerId = "1B7E510F-672B-4CC4-A590-B1F79D1107BB";
shapes = (
{
closed = 1;
nodes = (
(369,179,ls),
(358,48,o),
(422,-5,o),
(536,-5,cs),
(555,-5,l),
(559,118,l),
(550,118,ls),
(501,118,o),
(499,147,o),
(502,186,cs),
(515,347,ls),
(524,464,o),
(477,527,o),
(375,527,cs),
(296,527,o),
(224,490,o),
(218,407,c),
(230,434,l),
(191,434,l),
(204,189,l),
(210,338,o),
(264,402,o),
(323,402,cs),
(375,402,o),
(384,358,o),
(380,313,cs)
);
},
{
closed = 1;
nodes = (
(65,0,l),
(197,0,l),
(224,732,l),
(92,732,l)
);
}
);
width = 586;
},
{
layerId = "F9DFE8EC-1309-4B06-A6CE-E9C97F6115FD";
shapes = (
{
closed = 1;
nodes = (
(384,183,ls),
(369,44,o),
(417,-5,o),
(534,-5,cs),
(555,-5,l),
(558,88,l),
(537,88,ls),
(488,88,o),
(480,117,o),
(486,183,cs),
(502,341,ls),
(513,451,o),
(475,527,o),
(367,527,cs),
(280,527,o),
(202,477,o),
(194,373,c),
(213,410,l),
(171,410,l),
(180,189,l),
(187,361,o),
(259,435,o),
(336,435,cs),
(406,435,o),
(406,373,o),
(399,313,cs)
);
},
{
closed = 1;
nodes = (
(70,0,l),
(174,0,l),
(201,732,l),
(97,732,l)
);
}
);
width = 586;
},
{
layerId = "C0AB487F-B285-4883-B6B5-039B935D5538";
shapes = (
{
closed = 1;
nodes = (
(428,137,ls),
(420,47,o),
(449,-5,o),
(519,-5,cs),
(556,-5,l),
(558,39,l),
(524,39,ls),
(481,39,o),
(468,72,o),
(473,137,cs),
(489,329,ls),
(499,454,o),
(439,527,o),
(343,527,cs),
(242,527,o),
(160,448,o),
(147,338,c),
(166,375,l),
(127,375,l),
(137,155,l),
(143,384,o),
(242,482,o),
(338,482,cs),
(414,482,o),
(452,422,o),
(443,318,cs)
);
},
{
closed = 1;
nodes = (
(86,0,l),
(131,0,l),
(158,732,l),
(113,732,l)
);
}
);
width = 586;
},
{
layerId = "8BE779D0-3CB0-4E3D-A7BD-4D55C0B0047B";
shapes = (
{
closed = 1;
nodes = (
(392.052,174.582,ls),
(378.333,44.549,o),
(422.856,-5,o),
(531.255,-5,cs),
(555.183,-5,l),
(558,79.033,l),
(534.621,79.033,ls),
(486.719,79.033,o),
(477.804,108.765,o),
(483.621,174.582,cs),
(499.621,338.804,ls),
(510.438,451.549,o),
(468.412,527,o),
(362.608,527,cs),
(273.046,527,o),
(194.314,471.693,o),
(185.399,366.595,c),
(204.399,403.595,l),
(162.948,403.595,l),
(172.131,182.778,l),
(178.948,365.209,o),
(255.889,443.601,o),
(336.366,443.601,cs),
(407.464,443.601,o),
(414.418,381.967,o),
(407.052,313.915,cs)
);
},
{
closed = 1;
nodes = (
(72.928,0,l),
(166.131,0,l),
(193.131,732,l),
(99.928,732,l)
);
}
);
width = 586;
}
);
unicode = 104;
},
{
glyphname = i;
layers = (
{
layerId = "1B7E510F-672B-4CC4-A590-B1F79D1107BB";
shapes = (
{
closed = 1;
nodes = (
(503,-10,o),
(549,6,o),
(592,26,c),
(542,142,l),
(508,123,o),
(486,116,o),
(452,116,cs),
(363,116,o),
(367,175,o),
(378,300,cs),
(396,518,l),
(272,518,l),
(244,300,ls),
(223,137,o),
(246,-10,o),
(440,-10,cs)
);
},
{
closed = 1;
nodes = (
(266,518,l),
(204,456,o),
(56,359,o),
(-4,322,c),
(70,219,l),
(134,260,o),
(271,361,o),
(326,412,c),
(330,518,l)
);
},
{
closed = 1;
nodes = (
(379,599,o),
(419,638,o),
(419,687,cs),
(419,736,o),
(379,776,o),
(330,776,cs),
(281,776,o),
(241,736,o),
(241,687,cs),
(241,638,o),
(281,599,o),
(330,599,cs)
);
}
);
width = 586;
},
{
layerId = "F9DFE8EC-1309-4B06-A6CE-E9C97F6115FD";
shapes = (
{
closed = 1;
nodes = (
(494,-10,o),
(539,10,o),
(581,36,c),
(541,115,l),
(503,92,o),
(478,83,o),
(439,83,cs),
(354,83,o),
(346,132,o),
(356,232,cs),
(385,518,l),
(289,518,l),
(252,232,ls),
(235,104,o),
(271,-10,o),
(429,-10,cs)
);
},
{
closed = 1;
nodes = (
(285,518,l),
(239,472,o),
(142,397,o),
(4,313,c),
(61,233,l),
(183,306,o),
(280,389,o),
(312,440,c),
(312,518,l)
);
},
{
closed = 1;
nodes = (
(380,620,o),
(412,652,o),
(412,692,cs),
(412,732,o),
(380,764,o),
(340,764,cs),
(300,764,o),
(268,732,o),
(268,692,cs),
(268,652,o),
(300,620,o),
(340,620,cs)
);
}
);
width = 586;
},
{
layerId = "C0AB487F-B285-4883-B6B5-039B935D5538";
shapes = (
{
closed = 1;
nodes = (
(504,-10,o),
(545,4,o),
(583,31,c),
(560,72,l),
(525,47,o),
(491,35,o),
(458,35,cs),
(317,35,o),
(321,166,o),
(336,300,cs),
(360,518,l),
(318,518,l),
(290,300,ls),
(273,165,o),
(270,-10,o),
(460,-10,cs)
);
},
{
closed = 1;
nodes = (
(317,518,l),
(251,447,o),
(86,327,o),
(20,286,c),
(45,250,l),
(100,282,o),
(288,425,o),
(343,488,c),
(346,518,l)
);
},
{
closed = 1;
nodes = (
(362,666,o),
(384,687,o),
(384,714,cs),
(384,741,o),
(362,763,o),
(335,763,cs),
(308,763,o),
(286,741,o),
(286,714,cs),
(286,687,o),
(308,666,o),
(335,666,cs)
);
}
);
width = 586;
},
{
layerId = "8BE779D0-3CB0-4E3D-A7BD-4D55C0B0047B";
shapes = (
{
closed = 1;
nodes = (
(495.83,-10,o),
(540.098,8.902,o),
(581.366,35.085,c),
(544.477,107.131,l),
(507.026,83.765,o),
(480.379,74.216,o),
(442.477,74.216,cs),
(347.229,74.216,o),
(341.425,138.222,o),
(352.34,244.444,cs),
(380.425,518,l),
(294.307,518,l),
(258.954,244.444,ls),
(241.954,115.163,o),
(270.817,-10,o),
(434.673,-10,cs)
);
},
{
closed = 1;
nodes = (
(290.856,518,l),
(241.196,467.425,o),
(131.752,384.19,o),
(6.928,308.059,c),
(58.072,236.111,l),
(167.81,301.608,o),
(281.464,395.588,o),
(317.673,448.784,c),
(318.222,518,l)
);
},
{
closed = 1;
nodes = (
(376.706,628.418,o),
(406.876,658.405,o),
(406.876,696.026,cs),
(406.876,733.647,o),
(376.706,763.817,o),
(339.085,763.817,cs),
(301.464,763.817,o),
(271.294,733.647,o),
(271.294,696.026,cs),
(271.294,658.405,o),
(301.464,628.418,o),
(339.085,628.418,cs)
);
}
);
width = 586;
}
);
unicode = 105;
},
{
glyphname = idotless;
layers = (
{
anchors = (
{
name = top;
pos = (335,518);
}
);
layerId = "1B7E510F-672B-4CC4-A590-B1F79D1107BB";
shapes = (
{
closed = 1;
nodes = (
(503,-10,o),
(549,6,o),
(592,26,c),
(542,142,l),
(507,123,o),
(485,116,o),
(452,116,cs),
(363,116,o),
(367,175,o),
(377,300,cs),
(396,518,l),
(272,518,l),
(244,300,ls),
(223,138,o),
(246,-10,o),
(440,-10,cs)
);
},
{
closed = 1;
nodes = (
(267,518,l),
(205,456,o),
(56,359,o),
(-4,322,c),
(70,219,l),
(135,260,o),
(271,361,o),
(326,412,c),
(330,518,l)
);
}
);
width = 586;
},
{
anchors = (
{
name = top;
pos = (335.79,518);
}
);
layerId = "F9DFE8EC-1309-4B06-A6CE-E9C97F6115FD";
shapes = (
{
closed = 1;
nodes = (
(494,-10,o),
(539,10,o),
(581,36,c),
(541,115,l),
(503,92,o),
(478,83,o),
(438,83,cs),
(354,83,o),
(346,132,o),
(356,232,cs),
(385,518,l),
(289,518,l),
(252,232,ls),
(235,104,o),
(271,-10,o),
(429,-10,cs)
);
},
{
closed = 1;
nodes = (
(285,518,l),
(239,472,o),
(142,397,o),
(4,313,c),
(61,233,l),
(183,306,o),
(280,389,o),
(312,440,c),
(312,518,l)
);
}
);
width = 586;
},
{
anchors = (
{
name = top;
pos = (338,518);
}
);
layerId = "C0AB487F-B285-4883-B6B5-039B935D5538";
shapes = (
{
closed = 1;
nodes = (
(504,-10,o),
(545,4,o),
(583,31,c),
(560,72,l),
(524,47,o),
(491,35,o),
(458,35,cs),
(316,35,o),
(321,166,o),
(336,300,cs),
(360,518,l),
(318,518,l),
(290,300,ls),
(273,166,o),
(270,-10,o),
(459,-10,cs)
);
},
{
closed = 1;
nodes = (
(316,518,l),
(250,446,o),
(85,327,o),
(20,286,c),
(45,250,l),
(100,282,o),
(288,424,o),
(343,488,c),
(346,518,l)
);
}
);
width = 586;
},
{
anchors = (
{
name = top;
pos = (336.194,518);
}
);
layerId = "8BE779D0-3CB0-4E3D-A7BD-4D55C0B0047B";
shapes = (
{
closed = 1;
nodes = (
(495.83,-10,o),
(540.098,8.902,o),
(581.366,35.085,c),
(544.477,107.131,l),
(506.843,83.765,o),
(480.379,74.216,o),
(441.66,74.216,cs),
(347.046,74.216,o),
(341.425,138.222,o),
(352.34,244.444,cs),
(380.425,518,l),
(294.307,518,l),
(258.954,244.444,ls),
(241.954,115.346,o),
(270.817,-10,o),
(434.49,-10,cs)
);
},
{
closed = 1;
nodes = (
(290.673,518,l),
(241.013,467.242,o),
(131.569,384.19,o),
(6.928,308.059,c),
(58.072,236.111,l),
(167.81,301.608,o),
(281.464,395.405,o),
(317.673,448.784,c),
(318.222,518,l)
);
}
);
width = 586;
}
);
unicode = 305;
},
{
glyphname = j;
layers = (
{
anchors = (
{
name = bottom;
pos = (290,-234);
},
{
name = top;
pos = (373,723);
}
);
layerId = "1B7E510F-672B-4CC4-A590-B1F79D1107BB";
shapes = (
{
closed = 1;
nodes = (
(439,518,l),
(307,518,l),
(291,61,ls),
(288,-25,o),
(246,-68,o),
(165,-68,cs),
(129,-68,o),
(92,-61,o),
(56,-54,c),
(39,-175,l),
(84,-187,o),
(129,-193,o),
(175,-193,cs),
(335,-193,o),
(417,-110,o),
(423,57,cs)
);
},
{
closed = 1;
nodes = (
(306,518,l),
(244,456,o),
(96,359,o),
(36,322,c),
(110,219,l),
(174,260,o),
(311,361,o),
(366,412,c),
(370,518,l)
);
},
{
closed = 1;
nodes = (
(419,599,o),
(459,638,o),
(459,687,cs),
(459,736,o),
(419,776,o),
(370,776,cs),
(321,776,o),
(281,736,o),
(281,687,cs),
(281,638,o),
(321,599,o),
(370,599,cs)
);
}
);
width = 586;
},
{
anchors = (
{
name = bottom;
pos = (290,-234);
},
{
name = top;
pos = (373,723);
}
);
layerId = "F9DFE8EC-1309-4B06-A6CE-E9C97F6115FD";
shapes = (
{
closed = 1;
nodes = (
(429,518,l),
(325,518,l),
(309,61,ls),
(305,-47,o),
(262,-100,o),
(176,-100,cs),
(139,-100,o),
(101,-93,o),
(65,-86,c),
(52,-175,l),
(95,-187,o),
(140,-193,o),
(184,-193,cs),
(332,-193,o),
(407,-110,o),
(413,58,cs)
);
},
{
closed = 1;
nodes = (
(325,518,l),
(279,472,o),
(182,397,o),
(44,313,c),
(101,233,l),
(223,306,o),
(320,389,o),
(352,440,c),
(352,518,l)
);
},
{
closed = 1;
nodes = (
(420,620,o),
(452,652,o),
(452,692,cs),
(452,732,o),
(420,764,o),
(380,764,cs),
(340,764,o),
(308,732,o),
(308,692,cs),
(308,652,o),
(340,620,o),
(380,620,cs)
);
}
);
width = 586;
},
{
anchors = (
{
name = bottom;
pos = (290,-234);
},
{
name = top;
pos = (375,723);
}
);
layerId = "C0AB487F-B285-4883-B6B5-039B935D5538";
shapes = (
{
closed = 1;
nodes = (
(403,518,l),
(357,518,l),
(341,59,ls),
(336,-79,o),
(281,-148,o),
(175,-148,cs),
(141,-148,o),
(107,-141,o),
(74,-132,c),
(66,-176,l),
(102,-187,o),
(139,-193,o),
(176,-193,cs),
(311,-193,o),
(381,-109,o),
(387,60,cs)
);
},
{
closed = 1;
nodes = (
(357,518,l),
(291,447,o),
(126,327,o),
(60,286,c),
(85,250,l),
(140,282,o),
(328,425,o),
(383,488,c),
(386,518,l)
);
},
{
closed = 1;
nodes = (
(402,666,o),
(424,687,o),
(424,714,cs),
(424,741,o),
(402,763,o),
(375,763,cs),
(348,763,o),
(326,741,o),
(326,714,cs),
(326,687,o),
(348,666,o),
(375,666,cs)
);
}
);
width = 586;
},
{
anchors = (
{
name = bottom;
pos = (290,-234);
},
{
name = top;
pos = (373.366,723);
}
);
layerId = "8BE779D0-3CB0-4E3D-A7BD-4D55C0B0047B";
shapes = (
{
closed = 1;
nodes = (
(424.242,518,l),
(330.856,518,l),
(314.856,60.634,ls),
(310.673,-52.856,o),
(265.477,-108.784,o),
(175.817,-108.784,cs),
(139.366,-108.784,o),
(102.098,-101.784,o),
(66.647,-94.418,c),
(54.562,-175.183,l),
(96.281,-187,o),
(139.817,-193,o),
(182.536,-193,cs),
(328.157,-193,o),
(402.242,-109.817,o),
(408.242,58.366,cs)
);
},
{
closed = 1;
nodes = (
(330.856,518,l),
(281.196,467.425,o),
(171.752,384.19,o),
(46.928,308.059,c),
(98.072,236.111,l),
(207.81,301.608,o),
(321.464,395.588,o),
(357.673,448.784,c),
(358.222,518,l)
);
},
{
closed = 1;
nodes = (
(416.706,628.418,o),
(446.876,658.405,o),
(446.876,696.026,cs),
(446.876,733.647,o),
(416.706,763.817,o),
(379.085,763.817,cs),
(341.464,763.817,o),
(311.294,733.647,o),
(311.294,696.026,cs),
(311.294,658.405,o),
(341.464,628.418,o),
(379.085,628.418,cs)
);
}
);
width = 586;
}
);
unicode = 106;
},
{
glyphname = jdotless;
layers = (
{
layerId = "1B7E510F-672B-4CC4-A590-B1F79D1107BB";
shapes = (
{
closed = 1;
nodes = (
(439,518,l),
(307,518,l),
(291,61,ls),
(288,-25,o),
(246,-68,o),
(165,-68,cs),
(129,-68,o),
(92,-61,o),
(56,-54,c),
(39,-175,l),
(84,-187,o),
(129,-193,o),
(175,-193,cs),
(335,-193,o),
(417,-110,o),
(423,57,cs)
);
},
{
closed = 1;
nodes = (
(306,518,l),
(244,456,o),
(96,359,o),
(36,322,c),
(110,219,l),
(174,260,o),
(311,361,o),
(366,412,c),
(370,518,l)
);
}
);
width = 586;
},
{
layerId = "F9DFE8EC-1309-4B06-A6CE-E9C97F6115FD";
shapes = (
{
closed = 1;
nodes = (
(429,518,l),
(325,518,l),
(309,61,ls),
(305,-47,o),
(262,-100,o),
(176,-100,cs),
(139,-100,o),
(101,-93,o),
(65,-86,c),
(52,-175,l),
(95,-187,o),
(140,-193,o),
(184,-193,cs),
(332,-193,o),
(407,-110,o),
(413,58,cs)
);
},
{
closed = 1;
nodes = (
(325,518,l),
(279,472,o),
(182,397,o),
(44,313,c),
(101,233,l),
(223,306,o),
(320,389,o),
(352,440,c),
(352,518,l)
);
}
);
width = 586;
},
{
layerId = "C0AB487F-B285-4883-B6B5-039B935D5538";
shapes = (
{
closed = 1;
nodes = (
(403,518,l),
(357,518,l),
(341,59,ls),
(336,-79,o),
(281,-148,o),
(175,-148,cs),
(141,-148,o),
(107,-141,o),
(74,-132,c),
(66,-176,l),
(102,-187,o),
(139,-193,o),
(176,-193,cs),
(311,-193,o),
(381,-109,o),
(387,60,cs)
);
},
{
closed = 1;
nodes = (
(357,518,l),
(291,447,o),
(126,327,o),
(60,286,c),
(85,250,l),
(140,282,o),
(328,425,o),
(383,488,c),
(386,518,l)
);
}
);
width = 586;
},
{
layerId = "8BE779D0-3CB0-4E3D-A7BD-4D55C0B0047B";
shapes = (
{
closed = 1;
nodes = (
(424.242,518,l),
(330.856,518,l),
(314.856,60.634,ls),
(310.673,-52.856,o),
(265.477,-108.784,o),
(175.817,-108.784,cs),
(139.366,-108.784,o),
(102.098,-101.784,o),
(66.647,-94.418,c),
(54.562,-175.183,l),
(96.281,-187,o),
(139.817,-193,o),
(182.536,-193,cs),
(328.157,-193,o),
(402.242,-109.817,o),
(408.242,58.366,cs)
);
},
{
closed = 1;
nodes = (
(330.856,518,l),
(281.196,467.425,o),
(171.752,384.19,o),
(46.928,308.059,c),
(98.072,236.111,l),
(207.81,301.608,o),
(321.464,395.588,o),
(357.673,448.784,c),
(358.222,518,l)
);
}
);
width = 586;
}
);
unicode = 567;
},
{
glyphname = k;
layers = (
{
layerId = "1B7E510F-672B-4CC4-A590-B1F79D1107BB";
shapes = (
{
closed = 1;
nodes = (
(551,-10,o),
(565,-7,o),
(580,-4,c),
(554,117,l),
(548,116,o),
(544,116,o),
(534,116,cs),
(448,116,o),
(399,151,o),
(386,253,c),
(389,164,l),
(486,204,o),
(540,275,o),
(540,360,cs),
(540,454,o),
(479,527,o),
(381,527,cs),
(304,527,o),
(248,486,o),
(239,424,c),
(214,424,l),
(216,260,l),
(219,360,o),
(290,402,o),
(350,402,cs),
(384,402,o),
(408,386,o),
(408,350,cs),
(408,313,o),
(375,270,o),
(271,227,c),
(304,74,o),
(393,-10,o),
(530,-10,cs)
);
},
{
closed = 1;
nodes = (
(74,0,l),
(206,0,l),
(233,732,l),
(101,732,l)
);
}
);
width = 586;
},
{
layerId = "F9DFE8EC-1309-4B06-A6CE-E9C97F6115FD";
shapes = (
{
closed = 1;
nodes = (
(541,-10,o),
(558,-7,o),
(576,-3,c),
(554,85,l),
(542,84,o),
(534,83,o),
(515,83,cs),
(439,83,o),
(397,123,o),
(361,234,c),
(376,159,l),
(468,210,o),
(521,278,o),
(521,366,cs),
(521,455,o),
(468,527,o),
(372,527,cs),
(283,527,o),
(220,468,o),
(211,380,c),
(192,380,l),
(194,205,l),
(198,350,o),
(280,435,o),
(356,435,cs),
(396,435,o),
(416,411,o),
(416,373,cs),
(416,322,o),
(380,265,o),
(270,208,c),
(310,68,o),
(394,-10,o),
(516,-10,cs)
);
},
{
closed = 1;
nodes = (
(82,0,l),
(186,0,l),
(213,732,l),
(109,732,l)
);
}
);
width = 586;
},
{
layerId = "C0AB487F-B285-4883-B6B5-039B935D5538";
shapes = (
{
closed = 1;
nodes = (
(544,-10,o),
(558,-8,o),
(573,-6,c),
(566,37,l),
(555,36,o),
(548,35,o),
(531,35,cs),
(425,35,o),
(367,78,o),
(321,200,c),
(314,183,l),
(439,236,o),
(516,308,o),
(516,401,cs),
(516,483,o),
(467,527,o),
(386,527,cs),
(271,527,o),
(190,449,o),
(159,361,c),
(145,361,l),
(146,205,l),
(159,366,o),
(264,482,o),
(385,482,cs),
(436,482,o),
(470,455,o),
(470,402,cs),
(470,330,o),
(403,265,o),
(274,208,c),
(314,68,o),
(398,-10,o),
(523,-10,cs)
);
},
{
closed = 1;
nodes = (
(93,0,l),
(139,0,l),
(166,732,l),
(120,732,l)
);
}
);
width = 586;
},
{
layerId = "8BE779D0-3CB0-4E3D-A7BD-4D55C0B0047B";
shapes = (
{
closed = 1;
nodes = (
(541.549,-10,o),
(558,-7.183,o),
(575.451,-3.549,c),
(556.196,76.216,l),
(544.379,75.216,o),
(536.562,74.216,o),
(517.928,74.216,cs),
(436.438,74.216,o),
(391.51,114.765,o),
(353.68,227.778,c),
(364.654,163.392,l),
(462.693,214.758,o),
(520.085,283.49,o),
(520.085,372.405,cs),
(520.085,460.124,o),
(467.817,527,o),
(374.562,527,cs),
(280.804,527,o),
(214.51,464.523,o),
(201.484,376.523,c),
(183.399,376.523,l),
(185.216,205,l),
(190.863,352.928,o),
(277.072,443.601,o),
(361.307,443.601,cs),
(403.32,443.601,o),
(425.882,419.052,o),
(425.882,378.307,cs),
(425.882,323.464,o),
(384.209,265,o),
(270.732,208,c),
(310.732,68,o),
(394.732,-10,o),
(517.281,-10,cs)
);
},
{
closed = 1;
nodes = (
(84.013,0,l),
(177.399,0,l),
(204.399,732,l),
(111.013,732,l)
);
}
);
width = 586;
}
);
unicode = 107;
},
{
glyphname = l;
layers = (
{
layerId = "1B7E510F-672B-4CC4-A590-B1F79D1107BB";
shapes = (
{
closed = 1;
nodes = (
(517,133,l),
(483,121,o),
(453,116,o),
(414,116,cs),
(268,116,o),
(259,261,o),
(259,372,cs),
(259,520,o),
(294,622,o),
(355,622,cs),
(402,622,o),
(406,563,o),
(406,528,cs),
(406,366,o),
(257,223,o),
(14,148,c),
(53,37,l),
(356,130,o),
(528,306,o),
(528,530,cs),
(528,642,o),
(482,742,o),
(355,742,cs),
(217,742,o),
(127,593,o),
(127,370,cs),
(127,166,o),
(182,-10,o),
(422,-10,cs),
(463,-10,o),
(503,-4,o),
(554,12,c)
);
}
);
width = 586;
},
{
layerId = "F9DFE8EC-1309-4B06-A6CE-E9C97F6115FD";
shapes = (
{
closed = 1;
nodes = (
(522,101,l),
(491,89,o),
(463,83,o),
(427,83,cs),
(261,83,o),
(238,254,o),
(238,383,cs),
(238,530,o),
(282,651,o),
(350,651,cs),
(408,651,o),
(411,590,o),
(411,546,cs),
(411,352,o),
(282,223,o),
(19,142,c),
(46,54,l),
(346,146,o),
(511,321,o),
(511,537,cs),
(511,638,o),
(473,742,o),
(355,742,cs),
(226,742,o),
(136,590,o),
(136,376,cs),
(136,169,o),
(183,-10,o),
(428,-10,cs),
(465,-10,o),
(500,-4,o),
(545,12,c)
);
}
);
width = 586;
},
{
layerId = "C0AB487F-B285-4883-B6B5-039B935D5538";
shapes = (
{
closed = 1;
nodes = (
(533,54,l),
(500,41,o),
(472,35,o),
(436,35,cs),
(231,35,o),
(197,219,o),
(197,384,cs),
(197,563,o),
(259,697,o),
(358,697,cs),
(445,697,o),
(462,606,o),
(462,537,cs),
(462,352,o),
(309,204,o),
(36,125,c),
(49,81,l),
(345,169,o),
(508,331,o),
(508,534,cs),
(508,632,o),
(474,742,o),
(357,742,cs),
(230,742,o),
(151,592,o),
(151,388,cs),
(151,202,o),
(201,-10,o),
(429,-10,cs),
(465,-10,o),
(502,-4,o),
(547,11,c)
);
}
);
width = 586;
},
{
layerId = "8BE779D0-3CB0-4E3D-A7BD-4D55C0B0047B";
shapes = (
{
closed = 1;
nodes = (
(524.013,92.399,l),
(492.647,80.216,o),
(464.647,74.216,o),
(428.647,74.216,cs),
(255.51,74.216,o),
(230.497,247.595,o),
(230.497,383.183,cs),
(230.497,536.039,o),
(277.791,659.418,o),
(351.464,659.418,cs),
(414.771,659.418,o),
(420.333,592.928,o),
(420.333,544.353,cs),
(420.333,352,o),
(286.941,219.523,o),
(22.111,138.889,c),
(46.549,58.941,l),
(345.817,150.209,o),
(510.451,322.83,o),
(510.451,536.451,cs),
(510.451,636.902,o),
(473.183,742,o),
(355.366,742,cs),
(226.732,742,o),
(138.745,590.366,o),
(138.745,378.196,cs),
(138.745,175.039,o),
(186.294,-10,o),
(428.183,-10,cs),
(465,-10,o),
(500.366,-4,o),
(545.366,11.817,c)
);
}
);
width = 586;
}
);
unicode = 108;
},
{
glyphname = lslash;
layers = (
{
layerId = "1B7E510F-672B-4CC4-A590-B1F79D1107BB";
shapes = (
{
closed = 1;
nodes = (
(33,274,l),
(586,515,l),
(586,637,l),
(33,395,l)
);
},
{
ref = l;
}
);
width = 586;
},
{
layerId = "F9DFE8EC-1309-4B06-A6CE-E9C97F6115FD";
shapes = (
{
closed = 1;
nodes = (
(33,262,l),
(586,535,l),
(586,625,l),
(33,353,l)
);
},
{
ref = l;
}
);
width = 586;
},
{
layerId = "C0AB487F-B285-4883-B6B5-039B935D5538";
shapes = (
{
closed = 1;
nodes = (
(33,266,l),
(586,590,l),
(586,638,l),
(33,314,l)
);
},
{
ref = l;
}
);
width = 586;
},
{
layerId = "8BE779D0-3CB0-4E3D-A7BD-4D55C0B0047B";
shapes = (
{
closed = 1;
nodes = (
(33,262.732,l),
(586,545.065,l),
(586,627.379,l),
(33,345.863,l)
);
},
{
alignment = -1;
ref = l;
}
);
width = 586;
}
);
unicode = 322;
},
{
glyphname = m;
layers = (
{
layerId = "1B7E510F-672B-4CC4-A590-B1F79D1107BB";
shapes = (
{
closed = 1;
nodes = (
(165,518,l),
(57,518,l),
(37,0,l),
(164,0,l),
(177,384,l)
);
},
{
closed = 1;
nodes = (
(232,0,l),
(334,0,l),
(349,391,ls),
(351,443,o),
(341,527,o),
(269,527,cs),
(223,527,o),
(198,506,o),
(186,453,c),
(157,453,l),
(175,331,l),
(178,380,o),
(191,404,o),
(215,404,cs),
(241,404,o),
(246,379,o),
(245,359,cs)
);
},
{
closed = 1;
nodes = (
(544,391,ls),
(549,459,o),
(530,527,o),
(447,527,cs),
(400,527,o),
(373,507,o),
(359,453,c),
(328,453,l),
(345,331,l),
(347,380,o),
(365,404,o),
(389,404,cs),
(413,404,o),
(417,377,o),
(416,359,cs),
(401,159,ls),
(392,42,o),
(445,-5,o),
(552,-5,cs),
(571,-5,l),
(575,118,l),
(565,118,ls),
(527,118,o),
(525,139,o),
(527,166,cs)
);
}
);
width = 586;
},
{
layerId = "F9DFE8EC-1309-4B06-A6CE-E9C97F6115FD";
shapes = (
{
closed = 1;
nodes = (
(149,518,l),
(64,518,l),
(46,0,l),
(148,0,l),
(162,384,l)
);
},
{
closed = 1;
nodes = (
(238,0,l),
(329,0,l),
(344,391,ls),
(346,452,o),
(334,527,o),
(254,527,cs),
(206,527,o),
(174,502,o),
(167,439,c),
(142,439,l),
(157,243,l),
(159,371,o),
(180,444,o),
(221,444,cs),
(247,444,o),
(254,426,o),
(253,404,cs)
);
},
{
closed = 1;
nodes = (
(534,391,ls),
(537,453,o),
(524,527,o),
(444,527,cs),
(392,527,o),
(360,503,o),
(351,439,c),
(319,439,l),
(338,243,l),
(340,371,o),
(361,444,o),
(404,444,cs),
(429,444,o),
(435,424,o),
(434,404,cs),
(421,163,ls),
(414,38,o),
(451,-5,o),
(560,-5,cs),
(581,-5,l),
(584,88,l),
(563,88,ls),
(525,88,o),
(519,111,o),
(522,163,cs)
);
}
);
width = 586;
},
{
layerId = "C0AB487F-B285-4883-B6B5-039B935D5538";
shapes = (
{
closed = 1;
nodes = (
(114,518,l),
(76,518,l),
(57,0,l),
(103,0,l),
(117,384,l)
);
},
{
closed = 1;
nodes = (
(261,0,l),
(306,0,l),
(321,391,ls),
(324,458,o),
(306,527,o),
(222,527,cs),
(164,527,o),
(135,489,o),
(124,415,c),
(109,415,l),
(111,243,l),
(119,401,o),
(156,482,o),
(218,482,cs),
(269,482,o),
(277,429,o),
(275,390,cs)
);
},
{
closed = 1;
nodes = (
(523,391,ls),
(527,456,o),
(509,527,o),
(427,527,cs),
(369,527,o),
(340,493,o),
(327,429,c),
(317,429,l),
(315,262,l),
(324,407,o),
(360,482,o),
(421,482,cs),
(472,482,o),
(480,428,o),
(478,390,cs),
(460,117,ls),
(455,39,o),
(481,-5,o),
(551,-5,cs),
(578,-5,l),
(580,39,l),
(556,39,ls),
(513,39,o),
(503,65,o),
(506,117,cs)
);
}
);
width = 586;
},
{
layerId = "8BE779D0-3CB0-4E3D-A7BD-4D55C0B0047B";
shapes = (
{
closed = 1;
nodes = (
(142.595,518,l),
(66.196,518,l),
(48.013,0,l),
(139.765,0,l),
(153.765,384,l)
);
},
{
closed = 1;
nodes = (
(242.209,0,l),
(324.791,0,l),
(339.791,391,ls),
(341.974,453.098,o),
(328.876,527,o),
(248.144,527,cs),
(198.314,527,o),
(166.863,499.621,o),
(159.131,434.608,c),
(135.961,434.608,l),
(148.582,243,l),
(151.68,376.49,o),
(175.608,450.954,o),
(220.451,450.954,cs),
(251.026,450.954,o),
(258.209,426.549,o),
(257.026,401.438,cs)
);
},
{
closed = 1;
nodes = (
(531.987,391,ls),
(535.17,453.549,o),
(521.255,527,o),
(440.889,527,cs),
(387.791,527,o),
(356.34,501.17,o),
(346.608,437.17,c),
(318.634,437.17,l),
(333.791,246.477,l),
(337.072,377.588,o),
(360.817,450.954,o),
(407.111,450.954,cs),
(436.869,450.954,o),
(443.235,424.732,o),
(442.052,401.438,cs),
(428.137,154.582,ls),
(421.503,38.183,o),
(456.49,-5,o),
(558.353,-5,cs),
(580.451,-5,l),
(583.268,79.033,l),
(561.719,79.033,ls),
(522.804,79.033,o),
(516.072,102.582,o),
(519.072,154.582,cs)
);
}
);
width = 586;
}
);
unicode = 109;
},
{
glyphname = n;
layers = (
{
anchors = (
{
name = top;
pos = (299.842,518);
}
);
layerId = "1B7E510F-672B-4CC4-A590-B1F79D1107BB";
shapes = (
{
closed = 1;
nodes = (
(369,179,ls),
(358,48,o),
(422,-5,o),
(536,-5,cs),
(555,-5,l),
(559,118,l),
(550,118,ls),
(501,118,o),
(499,147,o),
(502,186,cs),
(515,347,ls),
(524,464,o),
(477,527,o),
(375,527,cs),
(296,527,o),
(224,490,o),
(218,407,c),
(230,434,l),
(191,434,l),
(204,189,l),
(210,338,o),
(264,402,o),
(323,402,cs),
(375,402,o),
(384,358,o),
(380,313,cs)
);
},
{
closed = 1;
nodes = (
(65,0,l),
(197,0,l),
(211,394,l),
(198,518,l),
(84,518,l)
);
}
);
width = 586;
},
{
anchors = (
{
name = top;
pos = (293.842,518);
}
);
layerId = "F9DFE8EC-1309-4B06-A6CE-E9C97F6115FD";
shapes = (
{
closed = 1;
nodes = (
(383,183,ls),
(368,44,o),
(417,-5,o),
(534,-5,cs),
(555,-5,l),
(558,88,l),
(537,88,ls),
(488,88,o),
(482,117,o),
(488,183,cs),
(504,341,ls),
(515,451,o),
(475,527,o),
(367,527,cs),
(280,527,o),
(202,477,o),
(194,373,c),
(213,410,l),
(171,410,l),
(180,189,l),
(187,361,o),
(259,435,o),
(336,435,cs),
(406,435,o),
(405,373,o),
(398,313,cs)
);
},
{
closed = 1;
nodes = (
(70,0,l),
(174,0,l),
(189,395,l),
(175,518,l),
(88,518,l)
);
}
);
width = 586;
},
{
anchors = (
{
name = top;
pos = (289.842,518);
}
);
layerId = "C0AB487F-B285-4883-B6B5-039B935D5538";
shapes = (
{
closed = 1;
nodes = (
(428,137,ls),
(420,47,o),
(449,-5,o),
(519,-5,cs),
(556,-5,l),
(558,39,l),
(524,39,ls),
(481,39,o),
(468,72,o),
(473,137,cs),
(489,329,ls),
(499,454,o),
(439,527,o),
(343,527,cs),
(242,527,o),
(160,448,o),
(147,338,c),
(166,375,l),
(127,375,l),
(136,155,l),
(143,384,o),
(242,482,o),
(338,482,cs),
(414,482,o),
(452,422,o),
(443,318,cs)
);
},
{
closed = 1;
nodes = (
(85,0,l),
(131,0,l),
(144,360,l),
(141,518,l),
(104,518,l)
);
}
);
width = 586;
},
{
anchors = (
{
name = top;
pos = (293.11,518);
}
);
layerId = "8BE779D0-3CB0-4E3D-A7BD-4D55C0B0047B";
shapes = (
{
closed = 1;
nodes = (
(391.235,174.582,ls),
(377.516,44.549,o),
(422.856,-5,o),
(531.255,-5,cs),
(555.183,-5,l),
(558,79.033,l),
(534.621,79.033,ls),
(486.719,79.033,o),
(479.438,108.765,o),
(485.255,174.582,cs),
(501.255,338.804,ls),
(512.072,451.549,o),
(468.412,527,o),
(362.608,527,cs),
(273.046,527,o),
(194.314,471.693,o),
(185.399,366.595,c),
(204.399,403.595,l),
(162.948,403.595,l),
(171.948,182.778,l),
(178.948,365.209,o),
(255.889,443.601,o),
(336.366,443.601,cs),
(407.464,443.601,o),
(413.601,381.967,o),
(406.235,313.915,cs)
);
},
{
closed = 1;
nodes = (
(72.745,0,l),
(166.131,0,l),
(180.765,388.595,l),
(168.778,518,l),
(90.928,518,l)
);
}
);
width = 586;
}
);
unicode = 110;
},
{
glyphname = nhookleft;
layers = (
{
layerId = "1B7E510F-672B-4CC4-A590-B1F79D1107BB";
shapes = (
{
closed = 1;
nodes = (
(-67,-231,l),
(-47,-229,ls),
(118,-204,o),
(192,-139,o),
(199,46,cs),
(205,217,l),
(73,217,l),
(66,30,ls),
(63,-58,o),
(33,-94,o),
(-33,-105,cs),
(-72,-112,l)
);
},
{
closed = 1;
nodes = (
(369,179,ls),
(358,48,o),
(421,-5,o),
(536,-5,cs),
(555,-5,l),
(559,118,l),
(550,118,ls),
(501,118,o),
(499,148,o),
(502,187,cs),
(515,347,ls),
(524,464,o),
(478,527,o),
(375,527,cs),
(297,527,o),
(225,490,o),
(218,407,c),
(229,434,l),
(191,434,l),
(204,189,l),
(209,338,o),
(263,402,o),
(323,402,cs),
(375,402,o),
(384,359,o),
(380,313,cs)
);
},
{
closed = 1;
nodes = (
(65,0,l),
(199,46,l),
(211,394,l),
(198,518,l),
(83,518,l)
);
}
);
width = 586;
},
{
layerId = "F9DFE8EC-1309-4B06-A6CE-E9C97F6115FD";
shapes = (
{
closed = 1;
nodes = (
(-71,-229,l),
(-62,-229,ls),
(98,-219,o),
(170,-139,o),
(176,46,cs),
(182,217,l),
(78,217,l),
(71,30,ls),
(67,-76,o),
(32,-122,o),
(-50,-134,cs),
(-73,-137,l)
);
},
{
closed = 1;
nodes = (
(384,183,ls),
(369,44,o),
(417,-5,o),
(534,-5,cs),
(555,-5,l),
(558,88,l),
(537,88,ls),
(488,88,o),
(480,117,o),
(486,183,cs),
(501,341,ls),
(512,451,o),
(475,527,o),
(367,527,cs),
(279,527,o),
(202,477,o),
(194,373,c),
(213,410,l),
(171,410,l),
(180,189,l),
(188,361,o),
(258,435,o),
(335,435,cs),
(406,435,o),
(405,373,o),
(398,313,cs)
);
},
{
closed = 1;
nodes = (
(70,0,l),
(176,46,l),
(188,395,l),
(175,518,l),
(88,518,l)
);
}
);
width = 586;
},
{
layerId = "C0AB487F-B285-4883-B6B5-039B935D5538";
shapes = (
{
closed = 1;
nodes = (
(-74,-229,l),
(-65,-228,ls),
(68,-221,o),
(126,-140,o),
(133,41,cs),
(138,188,l),
(92,188,l),
(85,30,ls),
(80,-111,o),
(40,-176,o),
(-58,-185,cs),
(-74,-186,l)
);
},
{
closed = 1;
nodes = (
(428,137,ls),
(420,47,o),
(449,-5,o),
(520,-5,cs),
(557,-5,l),
(558,39,l),
(524,39,ls),
(481,39,o),
(468,72,o),
(474,137,cs),
(489,329,ls),
(500,455,o),
(440,527,o),
(343,527,cs),
(242,527,o),
(160,447,o),
(147,337,c),
(166,375,l),
(127,375,l),
(136,155,l),
(143,385,o),
(242,482,o),
(338,482,cs),
(414,482,o),
(452,422,o),
(443,318,cs)
);
},
{
closed = 1;
nodes = (
(85,0,l),
(133,41,l),
(144,360,l),
(141,518,l),
(104,518,l)
);
}
);
width = 586;
},
{
layerId = "8BE779D0-3CB0-4E3D-A7BD-4D55C0B0047B";
shapes = (
{
closed = 1;
nodes = (
(-71.549,-229,l),
(-62.549,-228.817,ls),
(92.51,-219.366,o),
(161.948,-139.183,o),
(168.131,45.085,cs),
(173.948,211.693,l),
(80.562,211.693,l),
(73.562,30,ls),
(69.379,-82.405,o),
(33.464,-131.882,o),
(-51.464,-143.333,cs),
(-73.183,-145.967,l)
);
},
{
closed = 1;
nodes = (
(392.052,174.582,ls),
(378.333,44.549,o),
(422.856,-5,o),
(531.438,-5,cs),
(555.366,-5,l),
(558,79.033,l),
(534.621,79.033,ls),
(486.719,79.033,o),
(477.804,108.765,o),
(483.804,174.582,cs),
(498.804,338.804,ls),
(509.804,451.732,o),
(468.595,527,o),
(362.608,527,cs),
(272.229,527,o),
(194.314,471.51,o),
(185.399,366.412,c),
(204.399,403.595,l),
(162.948,403.595,l),
(171.948,182.778,l),
(179.765,365.392,o),
(255.072,443.601,o),
(335.549,443.601,cs),
(407.464,443.601,o),
(413.601,381.967,o),
(406.235,313.915,cs)
);
},
{
closed = 1;
nodes = (
(72.745,0,l),
(168.131,45.085,l),
(179.948,388.595,l),
(168.778,518,l),
(90.928,518,l)
);
}
);
width = 586;
}
);
unicode = 626;
},
{
glyphname = eng;
layers = (
{
layerId = "1B7E510F-672B-4CC4-A590-B1F79D1107BB";
shapes = (
{
closed = 1;
nodes = (
(207,-234,l),
(256,-229,ls),
(421,-208,o),
(496,-139,o),
(502,46,cs),
(506,165,l),
(374,165,l),
(369,30,ls),
(366,-58,o),
(337,-97,o),
(270,-105,cs),
(202,-114,l)
);
},
{
closed = 1;
nodes = (
(374,165,l),
(506,165,l),
(514,347,ls),
(519,464,o),
(478,527,o),
(375,527,cs),
(297,527,o),
(225,490,o),
(218,407,c),
(229,434,l),
(191,434,l),
(204,189,l),
(209,338,o),
(263,402,o),
(323,402,cs),
(375,402,o),
(382,359,o),
(380,313,cs)
);
},
{
closed = 1;
nodes = (
(65,0,l),
(197,0,l),
(211,394,l),
(198,518,l),
(83,518,l)
);
}
);
width = 586;
},
{
layerId = "F9DFE8EC-1309-4B06-A6CE-E9C97F6115FD";
shapes = (
{
closed = 1;
nodes = (
(206,-234,l),
(255,-229,l),
(415,-214,o),
(487,-139,o),
(493,46,cs),
(497,153,l),
(393,153,l),
(389,30,ls),
(385,-76,o),
(349,-123,o),
(268,-134,cs),
(204,-143,l)
);
},
{
closed = 1;
nodes = (
(394,153,l),
(498,153,l),
(503,341,ls),
(507,451,o),
(475,527,o),
(367,527,cs),
(279,527,o),
(202,477,o),
(194,373,c),
(213,410,l),
(171,410,l),
(180,189,l),
(188,361,o),
(258,435,o),
(335,435,cs),
(406,435,o),
(400,374,o),
(398,313,cs)
);
},
{
closed = 1;
nodes = (
(70,0,l),
(174,0,l),
(188,395,l),
(175,518,l),
(88,518,l)
);
}
);
width = 586;
},
{
layerId = "C0AB487F-B285-4883-B6B5-039B935D5538";
shapes = (
{
closed = 1;
nodes = (
(237,-229,l),
(252,-229,ls),
(405,-219,o),
(472,-140,o),
(478,41,cs),
(481,137,l),
(437,137,l),
(432,30,ls),
(426,-111,o),
(377,-172,o),
(263,-185,cs),
(236,-187,l)
);
},
{
closed = 1;
nodes = (
(436,137,l),
(481,137,l),
(489,329,ls),
(495,455,o),
(440,527,o),
(343,527,cs),
(242,527,o),
(160,447,o),
(147,337,c),
(166,375,l),
(127,375,l),
(136,155,l),
(143,385,o),
(242,482,o),
(338,482,cs),
(414,482,o),
(447,422,o),
(443,318,cs)
);
},
{
closed = 1;
nodes = (
(85,0,l),
(131,0,l),
(144,360,l),
(141,518,l),
(104,518,l)
);
}
);
width = 586;
},
{
layerId = "8BE779D0-3CB0-4E3D-A7BD-4D55C0B0047B";
shapes = (
{
closed = 1;
nodes = (
(211.673,-233.085,l),
(254.451,-229,ls),
(413.17,-214.915,o),
(484.255,-139.183,o),
(490.255,45.085,cs),
(494.072,150.072,l),
(401.052,150.072,l),
(396.869,30,ls),
(392.503,-82.405,o),
(354.124,-131.967,o),
(267.085,-143.333,cs),
(209.856,-151.052,l)
);
},
{
closed = 1;
nodes = (
(401.686,150.072,l),
(494.889,150.072,l),
(500.438,338.804,ls),
(504.804,451.732,o),
(468.595,527,o),
(362.608,527,cs),
(272.229,527,o),
(194.314,471.51,o),
(185.399,366.412,c),
(204.399,403.595,l),
(162.948,403.595,l),
(171.948,182.778,l),
(179.765,365.392,o),
(255.072,443.601,o),
(335.549,443.601,cs),
(407.464,443.601,o),
(408.601,382.784,o),
(406.235,313.915,cs)
);
},
{
closed = 1;
nodes = (
(72.745,0,l),
(166.131,0,l),
(179.948,388.595,l),
(168.778,518,l),
(90.928,518,l)
);
}
);
width = 586;
}
);
unicode = 331;
},
{
glyphname = o;
layers = (
{
anchors = (
{
name = top;
pos = (302,518);
}
);
layerId = "1B7E510F-672B-4CC4-A590-B1F79D1107BB";
shapes = (
{
closed = 1;
nodes = (
(134,527,o),
(47,399,o),
(47,247,cs),
(47,100,o),
(138,-10,o),
(290,-10,cs),
(452,-10,o),
(539,119,o),
(539,271,cs),
(539,418,o),
(448,527,o),
(296,527,cs)
);
},
{
closed = 1;
nodes = (
(373,402,o),
(405,334,o),
(405,268,cs),
(405,196,o),
(370,116,o),
(288,116,cs),
(213,116,o),
(181,184,o),
(181,250,cs),
(181,322,o),
(216,402,o),
(298,402,cs)
);
}
);
width = 586;
},
{
anchors = (
{
name = top;
pos = (302,518);
}
);
layerId = "F9DFE8EC-1309-4B06-A6CE-E9C97F6115FD";
shapes = (
{
closed = 1;
nodes = (
(132,527,o),
(57,397,o),
(57,245,cs),
(57,98,o),
(136,-10,o),
(291,-10,cs),
(458,-10,o),
(529,121,o),
(529,272,cs),
(529,418,o),
(453,527,o),
(298,527,cs)
);
},
{
closed = 1;
nodes = (
(392,435,o),
(428,348,o),
(428,268,cs),
(428,176,o),
(389,83,o),
(287,83,cs),
(195,83,o),
(158,169,o),
(158,249,cs),
(158,340,o),
(198,435,o),
(299,435,cs)
);
}
);
width = 586;
},
{
anchors = (
{
name = top;
pos = (302,518);
}
);
layerId = "C0AB487F-B285-4883-B6B5-039B935D5538";
shapes = (
{
closed = 1;
nodes = (
(141,527,o),
(64,389,o),
(64,248,cs),
(64,107,o),
(137,-10,o),
(287,-10,cs),
(443,-10,o),
(521,128,o),
(521,268,cs),
(521,408,o),
(448,527,o),
(298,527,cs)
);
},
{
closed = 1;
nodes = (
(422,482,o),
(475,379,o),
(475,267,cs),
(475,154,o),
(415,35,o),
(287,35,cs),
(164,35,o),
(110,137,o),
(110,249,cs),
(110,362,o),
(170,482,o),
(299,482,cs)
);
}
);
width = 586;
},
{
anchors = (
{
name = top;
pos = (302,518);
}
);
layerId = "8BE779D0-3CB0-4E3D-A7BD-4D55C0B0047B";
shapes = (
{
closed = 1;
nodes = (
(133.647,527,o),
(58.281,395.536,o),
(58.281,245.549,cs),
(58.281,99.647,o),
(136.183,-10,o),
(290.268,-10,cs),
(455.255,-10,o),
(527.536,122.281,o),
(527.536,271.268,cs),
(527.536,416.17,o),
(452.085,527,o),
(298,527,cs)
);
},
{
closed = 1;
nodes = (
(397.49,443.601,o),
(436.601,353.673,o),
(436.601,267.817,cs),
(436.601,171.974,o),
(393.758,74.216,o),
(287,74.216,cs),
(189.327,74.216,o),
(149.216,163.144,o),
(149.216,249,cs),
(149.216,344.026,o),
(192.876,443.601,o),
(299,443.601,cs)
);
}
);
width = 586;
}
);
unicode = 111;
},
{
glyphname = oslash;
layers = (
{
layerId = "1B7E510F-672B-4CC4-A590-B1F79D1107BB";
shapes = (
{
closed = 1;
nodes = (
(160,-44,l),
(516,565,l),
(430,565,l),
(74,-44,l)
);
},
{
ref = o;
}
);
width = 586;
},
{
layerId = "F9DFE8EC-1309-4B06-A6CE-E9C97F6115FD";
shapes = (
{
closed = 1;
nodes = (
(159,-45,l),
(503,565,l),
(431,565,l),
(86,-45,l)
);
},
{
ref = o;
}
);
width = 586;
},
{
layerId = "C0AB487F-B285-4883-B6B5-039B935D5538";
shapes = (
{
closed = 1;
nodes = (
(157,-45,l),
(480,565,l),
(431,565,l),
(107,-45,l)
);
},
{
ref = o;
}
);
width = 586;
},
{
layerId = "8BE779D0-3CB0-4E3D-A7BD-4D55C0B0047B";
shapes = (
{
closed = 1;
nodes = (
(158.634,-45,l),
(498.791,565,l),
(431,565,l),
(89.843,-45,l)
);
},
{
alignment = -1;
ref = o;
}
);
width = 586;
}
);
unicode = 248;
},
{
glyphname = oe;
layers = (
{
layerId = "1B7E510F-672B-4CC4-A590-B1F79D1107BB";
shapes = (
{
closed = 1;
nodes = (
(371,113,o),
(354,196,o),
(354,265,cs),
(354,349,o),
(381,402,o),
(427,402,cs),
(452,402,o),
(463,385,o),
(463,362,cs),
(463,311,o),
(409,281,o),
(316,279,c),
(338,171,l),
(494,175,o),
(584,246,o),
(584,361,cs),
(584,446,o),
(543,527,o),
(447,527,cs),
(338,527,o),
(273,424,o),
(273,261,cs),
(273,133,o),
(311,-10,o),
(467,-10,cs),
(497,-10,o),
(532,-3,o),
(560,7,c),
(528,123,l),
(506,117,o),
(480,113,o),
(458,113,cs)
);
},
{
closed = 1;
nodes = (
(272,-10,o),
(331,83,o),
(331,263,cs),
(331,369,o),
(327,527,o),
(185,527,cs),
(59,527,o),
(-5,427,o),
(-5,254,cs),
(-5,142,o),
(11,-10,o),
(157,-10,cs)
);
},
{
closed = 1;
nodes = (
(118,111,o),
(121,214,o),
(121,254,cs),
(121,345,o),
(144,402,o),
(189,402,cs),
(243,402,o),
(242,287,o),
(242,247,cs),
(242,157,o),
(220,111,o),
(175,111,cs)
);
}
);
width = 586;
},
{
layerId = "F9DFE8EC-1309-4B06-A6CE-E9C97F6115FD";
shapes = (
{
closed = 1;
nodes = (
(356,83,o),
(345,183,o),
(345,264,cs),
(345,368,o),
(374,435,o),
(423,435,cs),
(457,435,o),
(466,402,o),
(466,374,cs),
(466,306,o),
(412,266,o),
(319,264,c),
(338,186,l),
(481,190,o),
(563,259,o),
(563,373,cs),
(563,449,o),
(530,527,o),
(442,527,cs),
(336,527,o),
(272,424,o),
(272,262,cs),
(272,134,o),
(309,-10,o),
(466,-10,cs),
(495,-10,o),
(528,-3,o),
(555,7,c),
(525,93,l),
(505,87,o),
(481,83,o),
(461,83,cs)
);
},
{
closed = 1;
nodes = (
(277,-10,o),
(329,75,o),
(329,239,cs),
(329,341,o),
(320,527,o),
(185,527,cs),
(73,527,o),
(12,421,o),
(12,250,cs),
(12,137,o),
(29,-10,o),
(176,-10,cs)
);
},
{
closed = 1;
nodes = (
(115,83,o),
(113,205,o),
(113,259,cs),
(113,365,o),
(141,435,o),
(193,435,cs),
(258,435,o),
(260,291,o),
(260,242,cs),
(260,140,o),
(236,83,o),
(188,83,cs)
);
}
);
width = 586;
},
{
layerId = "C0AB487F-B285-4883-B6B5-039B935D5538";
shapes = (
{
closed = 1;
nodes = (
(336,34,o),
(318,177,o),
(318,267,cs),
(318,399,o),
(361,483,o),
(434,483,cs),
(492,483,o),
(515,432,o),
(515,382,cs),
(515,296,o),
(441,245,o),
(312,242,c),
(318,198,l),
(473,202,o),
(561,269,o),
(561,378,cs),
(561,455,o),
(523,527,o),
(437,527,cs),
(335,527,o),
(284,445,o),
(284,287,cs),
(284,172,o),
(304,-10,o),
(453,-10,cs),
(479,-10,o),
(509,-3,o),
(533,7,c),
(518,49,l),
(497,40,o),
(473,34,o),
(452,34,cs)
);
},
{
closed = 1;
nodes = (
(266,-10,o),
(315,78,o),
(315,248,cs),
(315,345,o),
(313,527,o),
(182,527,cs),
(75,527,o),
(20,423,o),
(20,262,cs),
(20,159,o),
(35,-10,o),
(169,-10,cs)
);
},
{
closed = 1;
nodes = (
(74,35,o),
(66,190,o),
(66,265,cs),
(66,395,o),
(104,482,o),
(179,482,cs),
(282,482,o),
(278,321,o),
(278,248,cs),
(278,108,o),
(242,35,o),
(172,35,cs)
);
}
);
width = 586;
},
{
layerId = "8BE779D0-3CB0-4E3D-A7BD-4D55C0B0047B";
shapes = (
{
closed = 1;
nodes = (
(352.34,74.033,o),
(340.059,181.902,o),
(340.059,264.549,cs),
(340.059,373.673,o),
(371.621,443.784,o),
(425.013,443.784,cs),
(463.405,443.784,o),
(474.967,407.49,o),
(474.967,375.464,cs),
(474.967,304.17,o),
(417.307,262.157,o),
(317.719,259.974,c),
(334.34,188.196,l),
(479.536,192.196,o),
(562.634,260.83,o),
(562.634,373.915,cs),
(562.634,450.098,o),
(528.719,527,o),
(441.085,527,cs),
(335.817,527,o),
(274.196,427.843,o),
(274.196,266.575,cs),
(274.196,140.954,o),
(308.085,-10,o),
(463.621,-10,cs),
(492.072,-10,o),
(524.523,-3,o),
(550.974,7,c),
(523.719,84.948,l),
(503.536,78.399,o),
(479.536,74.033,o),
(459.353,74.033,cs)
);
},
{
closed = 1;
nodes = (
(274.987,-10,o),
(326.438,75.549,o),
(326.438,240.647,cs),
(326.438,341.732,o),
(318.719,527,o),
(184.451,527,cs),
(73.366,527,o),
(13.464,421.366,o),
(13.464,252.196,cs),
(13.464,141.026,o),
(30.098,-10,o),
(174.719,-10,cs)
);
},
{
closed = 1;
nodes = (
(107.497,74.216,o),
(104.399,202.255,o),
(104.399,260.098,cs),
(104.399,370.49,o),
(134.229,443.601,o),
(190.438,443.601,cs),
(262.392,443.601,o),
(263.294,296.49,o),
(263.294,243.098,cs),
(263.294,134.144,o),
(237.098,74.216,o),
(185.072,74.216,cs)
);
}
);
width = 586;
}
);
unicode = 339;
},
{
glyphname = p;
layers = (
{
layerId = "1B7E510F-672B-4CC4-A590-B1F79D1107BB";
shapes = (
{
closed = 1;
nodes = (
(200,-185,l),
(220,395,l),
(211,518,l),
(92,518,l),
(67,-185,l)
);
},
{
closed = 1;
nodes = (
(443,-10,o),
(557,107,o),
(557,304,cs),
(557,416,o),
(514,527,o),
(383,527,cs),
(295,527,o),
(239,480,o),
(230,397,c),
(245,424,l),
(203,424,l),
(212,189,l),
(222,338,o),
(285,402,o),
(351,402,cs),
(414,402,o),
(424,345,o),
(424,295,cs),
(424,172,o),
(369,114,o),
(253,114,cs),
(219,114,o),
(159,121,o),
(116,128,c),
(76,0,l),
(143,-6,o),
(209,-10,o),
(248,-10,cs)
);
}
);
width = 586;
},
{
layerId = "F9DFE8EC-1309-4B06-A6CE-E9C97F6115FD";
shapes = (
{
closed = 1;
nodes = (
(179,-185,l),
(200,395,l),
(186,518,l),
(99,518,l),
(75,-185,l)
);
},
{
closed = 1;
nodes = (
(433,-10,o),
(549,111,o),
(549,300,cs),
(549,414,o),
(510,527,o),
(377,527,cs),
(280,527,o),
(211,467,o),
(203,363,c),
(224,400,l),
(183,400,l),
(191,189,l),
(198,361,o),
(281,435,o),
(358,435,cs),
(435,435,o),
(447,361,o),
(447,300,cs),
(447,176,o),
(385,79,o),
(243,79,cs),
(203,79,o),
(152,87,o),
(117,95,c),
(83,0,l),
(133,-7,o),
(197,-10,o),
(234,-10,cs)
);
}
);
width = 586;
},
{
layerId = "C0AB487F-B285-4883-B6B5-039B935D5538";
shapes = (
{
closed = 1;
nodes = (
(133,-185,l),
(153,375,l),
(152,518,l),
(113,518,l),
(87,-185,l)
);
},
{
closed = 1;
nodes = (
(421,-10,o),
(536,108,o),
(536,302,cs),
(536,417,o),
(491,527,o),
(359,527,cs),
(255,527,o),
(166,455,o),
(153,329,c),
(174,366,l),
(135,366,l),
(145,155,l),
(151,384,o),
(248,482,o),
(354,482,cs),
(457,482,o),
(490,396,o),
(490,307,cs),
(490,138,o),
(393,35,o),
(234,35,cs),
(199,35,o),
(150,40,o),
(125,47,c),
(95,0,l),
(144,-6,o),
(195,-10,o),
(229,-10,cs)
);
}
);
width = 586;
},
{
layerId = "8BE779D0-3CB0-4E3D-A7BD-4D55C0B0047B";
shapes = (
{
closed = 1;
nodes = (
(170.582,-185,l),
(191.399,391.34,l),
(179.778,518,l),
(101.562,518,l),
(77.196,-185,l)
);
},
{
closed = 1;
nodes = (
(430.804,-10,o),
(546.621,110.451,o),
(546.621,300.366,cs),
(546.621,414.549,o),
(506.523,527,o),
(373.706,527,cs),
(275.425,527,o),
(202.765,464.804,o),
(193.85,356.778,c),
(214.85,393.778,l),
(174.216,393.778,l),
(182.582,182.778,l),
(189.399,365.209,o),
(274.961,443.601,o),
(357.268,443.601,cs),
(439.026,443.601,o),
(454.869,367.405,o),
(454.869,301.281,cs),
(454.869,169.046,o),
(386.464,70.948,o),
(241.353,70.948,cs),
(202.268,70.948,o),
(151.634,78.399,o),
(118.464,86.216,c),
(85.196,0,l),
(135.013,-6.817,o),
(196.634,-10,o),
(233.085,-10,cs)
);
}
);
width = 586;
}
);
unicode = 112;
},
{
glyphname = thorn;
layers = (
{
layerId = "1B7E510F-672B-4CC4-A590-B1F79D1107BB";
shapes = (
{
closed = 1;
nodes = (
(67,-185,l),
(200,-185,l),
(233,732,l),
(101,732,l)
);
},
{
closed = 1;
nodes = (
(441,-10,o),
(555,107,o),
(555,304,cs),
(555,416,o),
(512,527,o),
(381,527,cs),
(293,527,o),
(240,480,o),
(233,397,c),
(243,424,l),
(201,424,l),
(213,189,l),
(220,338,o),
(283,402,o),
(349,402,cs),
(412,402,o),
(422,345,o),
(422,295,cs),
(422,172,o),
(367,114,o),
(251,114,cs),
(217,114,o),
(157,121,o),
(114,128,c),
(75,0,l),
(141,-6,o),
(207,-10,o),
(246,-10,cs)
);
}
);
width = 586;
},
{
layerId = "F9DFE8EC-1309-4B06-A6CE-E9C97F6115FD";
shapes = (
{
closed = 1;
nodes = (
(75,-185,l),
(179,-185,l),
(211,732,l),
(107,732,l)
);
},
{
closed = 1;
nodes = (
(432,-10,o),
(548,111,o),
(548,300,cs),
(548,414,o),
(509,527,o),
(376,527,cs),
(279,527,o),
(212,467,o),
(204,363,c),
(223,400,l),
(182,400,l),
(190,189,l),
(197,361,o),
(280,435,o),
(357,435,cs),
(434,435,o),
(446,361,o),
(446,300,cs),
(446,176,o),
(384,79,o),
(242,79,cs),
(202,79,o),
(151,87,o),
(116,95,c),
(82,0,l),
(132,-7,o),
(196,-10,o),
(233,-10,cs)
);
}
);
width = 586;
},
{
layerId = "C0AB487F-B285-4883-B6B5-039B935D5538";
shapes = (
{
closed = 1;
nodes = (
(87,-185,l),
(133,-185,l),
(166,732,l),
(121,732,l)
);
},
{
closed = 1;
nodes = (
(421,-10,o),
(536,108,o),
(536,302,cs),
(536,417,o),
(491,527,o),
(359,527,cs),
(255,527,o),
(168,455,o),
(155,329,c),
(174,366,l),
(135,366,l),
(145,155,l),
(151,384,o),
(248,482,o),
(354,482,cs),
(457,482,o),
(490,396,o),
(490,307,cs),
(490,138,o),
(393,35,o),
(234,35,cs),
(199,35,o),
(150,40,o),
(125,47,c),
(95,0,l),
(144,-6,o),
(195,-10,o),
(229,-10,cs)
);
}
);
width = 586;
},
{
layerId = "8BE779D0-3CB0-4E3D-A7BD-4D55C0B0047B";
shapes = (
{
closed = 1;
nodes = (
(77.196,-185,l),
(170.582,-185,l),
(202.765,732,l),
(109.562,732,l)
);
},
{
closed = 1;
nodes = (
(429.987,-10,o),
(545.804,110.451,o),
(545.804,300.366,cs),
(545.804,414.549,o),
(505.706,527,o),
(372.889,527,cs),
(274.608,527,o),
(203.948,464.804,o),
(195.033,356.778,c),
(214.033,393.778,l),
(173.399,393.778,l),
(181.765,182.778,l),
(188.582,365.209,o),
(274.144,443.601,o),
(356.451,443.601,cs),
(438.209,443.601,o),
(454.052,367.405,o),
(454.052,301.281,cs),
(454.052,169.046,o),
(385.647,70.948,o),
(240.536,70.948,cs),
(201.451,70.948,o),
(150.817,78.399,o),
(117.647,86.216,c),
(84.379,0,l),
(134.196,-6.817,o),
(195.817,-10,o),
(232.268,-10,cs)
);
}
);
width = 586;
}
);
unicode = 254;
},
